<?xml version="1.0" encoding="utf-8"?>
<!-- Generator: Adobe Illustrator 23.0.2, SVG Export Plug-In . SVG Version: 6.00 Build 0)  -->
<svg version="1.1" id="Layer_1" xmlns="http://www.w3.org/2000/svg" xmlns:xlink="http://www.w3.org/1999/xlink" x="0px" y="0px"
	 viewBox="0 0 52 52" style="enable-background:new 0 0 52 52;" xml:space="preserve">
<g>
	<path style="fill:#E63343;" d="M49.87,49.09c-0.23-0.01-0.45-0.01-0.68-0.01c-3.76,0-7.53,0-11.29,0c-1.95,0-1.94,0-1.91-1.95
		c0.01-0.46,0.11-0.62,0.59-0.59c0.88,0.06,1.76,0.02,2.63-0.16c4.39-0.91,7.66-5.67,6.8-9.93c-0.09-0.47-0.22-0.85-0.79-0.81
		c-0.63,0.05-0.66,0.51-0.63,0.99c0.06,0.88,0.12,1.77-0.08,2.64c-0.94,4.06-4.63,6.52-8.78,5.74c-3.65-0.69-6.44-4.33-5.84-8.37
		c0.65-4.41,5.15-7.34,9.43-6.05c1.82,0.55,3.22,1.63,4.24,3.21c0.21,0.32,0.39,0.66,0.86,0.62c0.61-0.06,0.79-0.62,0.42-1.27
		c-1.84-3.19-5.8-4.92-9.41-4.1c-0.52,0.12-0.76,0.06-0.71-0.53c0.04-0.35,0-0.71,0.01-1.06c0.01-0.48-0.12-1.03,0.08-1.41
		c0.2-0.37,0.79-0.09,1.2-0.16c0.41-0.07,0.65-0.32,0.66-0.71c0.01-0.36-0.23-0.61-0.58-0.7c-0.22-0.05-0.45-0.07-0.67-0.04
		c-0.5,0.05-0.71-0.09-0.7-0.65c0.03-1.11-0.01-1.12,1.12-1.22c0.05-0.01,0.1,0,0.15-0.01c0.4-0.06,0.67-0.3,0.7-0.69
		c0.02-0.43-0.27-0.7-0.69-0.77c-0.25-0.04-0.51-0.04-0.76-0.02c-0.41,0.04-0.54-0.14-0.5-0.53c0.02-0.22,0.02-0.46,0-0.68
		c-0.05-0.47,0.1-0.69,0.62-0.65c0.59,0.05,1.31,0.05,1.31-0.74c0-0.8-0.73-0.73-1.32-0.74c-0.2,0-0.54,0.13-0.57-0.18
		c-0.06-0.5-0.12-1.04,0.02-1.5c0.12-0.38,0.63-0.14,0.96-0.17c0.51-0.04,0.95-0.21,0.92-0.77c-0.03-0.55-0.48-0.76-0.99-0.69
		c-0.82,0.13-0.98-0.23-0.98-0.99c0-0.71,0.16-1.04,0.91-0.91c0.17,0.03,0.35-0.02,0.52-0.05c0.36-0.06,0.52-0.33,0.54-0.64
		c0.02-0.32-0.16-0.6-0.5-0.67c-0.29-0.06-0.6-0.05-0.9-0.07c-0.17-0.02-0.43,0.07-0.48-0.11c-0.15-0.51-0.15-1.07-0.02-1.57
		c0.1-0.4,0.56-0.19,0.86-0.2c0.53-0.02,1.03-0.13,1.03-0.73c0-0.6-0.49-0.78-1.03-0.73c-0.6,0.05-1.03,0.02-0.94-0.79
		c0.04-0.4-0.25-0.74-0.71-0.73c-0.48,0.01-0.71,0.33-0.74,0.79c-0.01,0.18,0.06,0.44-0.03,0.52c-0.51,0.44-1.13,0.13-1.7,0.2
		c-0.21,0.02-0.58,0.15-0.62-0.22c-0.05-0.47-0.11-0.99,0.02-1.43c0.13-0.4,0.63-0.12,0.95-0.2c0.07-0.02,0.15-0.02,0.22-0.04
		c0.34-0.11,0.57-0.31,0.57-0.71c0-0.43-0.28-0.63-0.65-0.72c-0.37-0.1-0.9,0.21-1.1-0.21c-0.16-0.33-0.05-0.79-0.05-1.2
		c0-0.1,0-0.2-0.01-0.3C30.84,2.27,30.61,1.99,30.16,2c-0.43,0.01-0.69,0.28-0.7,0.73c-0.01,0.4,0,0.81-0.01,1.21
		c0,0.19,0.05,0.45-0.25,0.45c-0.68,0.01-1.43,0.15-2.01-0.09c-0.37-0.15-0.08-0.93-0.14-1.42c-0.01-0.07,0-0.15-0.01-0.23
		C27,2.26,26.77,2,26.36,2c-0.44,0-0.7,0.25-0.7,0.71C25.65,3.14,25.65,3.57,25.65,4c0,0.22-0.03,0.41-0.31,0.41
		c-0.65-0.01-1.38,0.16-1.94-0.08C23,4.16,23.32,3.4,23.25,2.92c-0.01-0.07,0-0.15-0.01-0.23c-0.07-0.43-0.3-0.71-0.75-0.69
		c-0.42,0.02-0.63,0.3-0.65,0.7c-0.02,0.43-0.01,0.86-0.02,1.29c-0.01,0.17,0.02,0.4-0.22,0.41c-0.68,0.01-1.41,0.13-2.02-0.07
		C19.2,4.2,19.48,3.5,19.42,3.06c-0.01-0.07,0-0.15-0.01-0.23c-0.03-0.45-0.19-0.82-0.7-0.83C18.18,2,18.01,2.37,17.97,2.86
		c-0.05,0.51,0.26,1.21-0.18,1.48c-0.38,0.24-1.03,0.06-1.56,0.07c-0.05,0-0.1-0.01-0.15,0c-0.39,0.05-0.55-0.1-0.53-0.51
		c0.03-0.4,0-0.81,0-1.21C15.55,2.27,15.31,2.03,14.91,2c-0.45-0.02-0.7,0.24-0.74,0.69c-0.02,0.25-0.04,0.51,0,0.76
		c0.12,0.78-0.16,1.09-0.96,0.98c-0.52-0.07-1,0.1-0.99,0.74c0.01,0.64,0.52,0.78,1.03,0.72C14,5.79,14.2,6.06,14.2,6.82
		c-0.01,0.75-0.18,1.07-0.95,0.94c-0.16-0.03-0.36-0.01-0.52,0.05c-0.34,0.12-0.55,0.35-0.52,0.74c0.03,0.35,0.24,0.57,0.56,0.63
		c0.3,0.05,0.6,0.03,0.9,0.05c0.14,0.01,0.39,0.02,0.41,0.09c0.17,0.51,0.13,1.05,0.05,1.57c-0.06,0.42-0.5,0.2-0.76,0.22
		c-0.54,0.04-1.16-0.02-1.16,0.74c0,0.71,0.59,0.7,1.1,0.72c0.96,0.02,1,0.08,0.72,1.09c-0.22-0.05-0.44-0.14-0.66-0.14
		c-1.84-0.01-3.69-0.03-5.53,0.01c-0.8,0.01-1.39,0.66-1.4,1.49c-0.02,1.14,0,2.27-0.01,3.41c-0.01,0.53,0.17,0.94,0.73,0.95
		c0.59,0.01,0.72-0.46,0.73-0.96c0.01-0.91,0.03-1.82-0.01-2.73c-0.02-0.54,0.11-0.77,0.7-0.75c1.36,0.04,2.73,0.04,4.09,0
		c0.5-0.02,0.71,0.2,0.87,0.63c0.5,1.34,1.05,2.67,1.57,4.01c0.22,0.55,0.55,0.97,1.18,1.05c1.3,0.16,2.6,0.34,3.9,0.44
		c0.46,0.04,0.65,0.22,0.82,0.59c0.52,1.15,1.1,2.27,1.59,3.43c0.33,0.79,0.87,1.11,1.7,1.08c0.83-0.03,1.67,0.02,2.5-0.02
		c0.46-0.02,0.68,0.17,0.83,0.58c0.39,1.09,0.86,2.15,1.22,3.25c0.32,0.99,0.87,1.59,2.17,1.38c-0.29,0.34-0.44,0.51-0.58,0.68
		c-3.55,4.26-2.43,10.82,2.5,13.36c1.49,0.76,1.82,1.6,1.68,3.03c-0.05,0.52-0.17,0.69-0.7,0.68c-2.17-0.03-4.34-0.04-6.51,0.01
		c-0.61,0.01-0.7-0.22-0.69-0.75c0.03-1.92,0.02-3.84,0.01-5.76c-0.01-1.19-0.76-1.97-1.92-1.97c-2.4-0.02-4.8-0.02-7.2,0
		c-1.02,0.01-1.73,0.64-1.83,1.65c-0.07,0.7-0.05,1.41-0.04,2.12c0.01,0.45,0.19,0.8,0.71,0.8c0.52,0,0.71-0.34,0.72-0.79
		c0.02-0.58,0.01-1.16,0.01-1.74c-0.01-0.45,0.21-0.64,0.65-0.64c0.71,0.01,1.41,0.03,2.12-0.01c0.47-0.02,0.61,0.14,0.6,0.6
		c-0.03,1.51-0.01,3.03-0.01,4.55c0,1.93,0,1.93-1.9,1.93c-1.44,0-1.44,0-1.45-1.4c0-0.08,0-0.15,0-0.23
		c-0.02-0.47-0.16-0.88-0.7-0.9c-0.56-0.02-0.72,0.39-0.74,0.86c-0.02,0.3-0.03,0.61,0,0.91c0.06,0.58-0.13,0.79-0.75,0.78
		c-2.04-0.04-4.09-0.05-6.14,0.01c-0.75,0.02-0.98-0.16-0.97-0.95c0.03-8.66,0.02-17.32,0.02-25.99c0-0.3-0.01-0.61-0.06-0.9
		c-0.06-0.39-0.34-0.54-0.72-0.52c-0.38,0.02-0.61,0.23-0.66,0.61c-0.03,0.25-0.02,0.5-0.02,0.76c0,8.74-0.01,17.48,0.01,26.21
		c0,0.57-0.12,0.81-0.74,0.77c-0.96-0.05-1.92-0.01-2.88-0.01c-0.45-0.01-0.75,0.19-0.78,0.64c-0.03,0.49,0.28,0.73,0.75,0.75
		c0.18,0.01,0.35,0,0.53,0c15.3,0,30.6,0,45.91,0c0.23,0,0.46,0.02,0.68-0.02c0.4-0.08,0.63-0.34,0.58-0.75
		C50.48,49.34,50.26,49.1,49.87,49.09 M15.58,6.14c0-0.11,0.07-0.21,0.18-0.21c0.67-0.01,1.35-0.02,2.02-0.01
		c0.2,0.01,0.18,0.2,0.19,0.35c0.01,0.2-0.02,0.41,0.01,0.6c0.13,0.74-0.19,1-0.9,0.88c-0.12-0.02-0.25-0.01-0.44-0.01
		c-0.3-0.07-0.85,0.2-0.99-0.13C15.48,7.19,15.59,6.64,15.58,6.14 M15.61,9.51c0.32-0.68,1.17-0.18,1.78-0.29
		c0.21-0.04,0.55-0.12,0.57,0.28c0.02,0.43,0,0.86,0.01,1.29c0,0.23-0.12,0.31-0.33,0.3c-0.28,0-0.55,0-0.83,0v0.01h-0.07
		C15.61,11.1,15.13,10.54,15.61,9.51 M17.71,19.28c-0.52,0.04-1.23,0.22-1.44-0.67c-0.16-0.73-0.65-1.35-0.72-2.13
		c-0.04-0.4,0.07-0.57,0.53-0.6c1.89-0.08,1.89-0.1,1.89,1.8c0,0.23,0.04,0.46-0.01,0.68C17.88,18.68,18.23,19.24,17.71,19.28
		 M17.95,14.2c-0.01,0.25-0.22,0.23-0.39,0.23c-0.28,0.01-0.56,0-0.83,0c-1.13,0-1.48-0.5-1.16-1.6c0.1-0.37,0.39-0.3,0.6-0.27
		c0.59,0.09,1.34-0.33,1.74,0.23C18.14,13.11,17.97,13.72,17.95,14.2 M19.47,9.53c0.31-0.74,1.2-0.18,1.81-0.31
		c0.29-0.06,0.55,0.01,0.54,0.42c-0.02,0.32-0.02,0.65,0,0.98c0.02,0.35-0.11,0.51-0.47,0.48c-0.25-0.02-0.5-0.01-0.75-0.01
		C19.43,11.1,19.01,10.65,19.47,9.53 M21.81,20c-0.69-0.31-1.32-0.36-1.94-0.42c-0.37-0.04-0.46-0.19-0.46-0.52
		c0.01-0.88,0.01-1.76,0.01-2.65c0-0.08-0.03-0.18,0.01-0.22c0.53-0.63,1.24-0.16,1.86-0.29c0.31-0.07,0.53,0.04,0.52,0.44
		C21.8,17.52,21.81,18.7,21.81,20 M21.81,14.13c0,0.28-0.2,0.31-0.41,0.31c-0.28,0-0.55,0-0.83,0c-1.11,0-1.55-0.53-1.1-1.59
		c0.28-0.67,1.07-0.18,1.61-0.27c0.24-0.04,0.66-0.19,0.72,0.28C21.84,13.27,21.81,13.7,21.81,14.13 M20.57,7.75
		c-0.37-0.01-0.93,0.19-1.06-0.12c-0.18-0.43-0.08-0.98-0.07-1.48c0-0.24,0.21-0.24,0.39-0.24c0.28,0,0.55,0,0.83,0v0
		c0.18,0,0.35,0.02,0.53,0c0.49-0.06,0.64,0.14,0.64,0.63C21.83,7.75,21.85,7.76,20.57,7.75 M24.4,14.44
		c-0.33-0.08-0.91,0.21-1.07-0.14c-0.19-0.42-0.06-0.98-0.07-1.49c0-0.05,0.02-0.13,0.04-0.14c0.68-0.26,1.39-0.12,2.08-0.09
		c0.46,0.02,0.27,0.47,0.27,0.73C25.64,14.63,25.83,14.41,24.4,14.44 M23.25,6.18c0.07-0.29,0.24-0.27,0.44-0.28
		c0.48-0.01,0.96,0.02,1.43-0.01c0.44-0.03,0.54,0.16,0.55,0.57c0.03,1.29,0.04,1.29-1.25,1.29C23.26,7.75,22.97,7.35,23.25,6.18
		 M23.25,9.49c0.06-0.23,0.18-0.28,0.37-0.28c0.33,0,0.66-0.01,0.98,0c1.2,0.01,1.06-0.11,1.05,1.04c0,0.99,0.14,0.82-1.25,0.84
		C23.26,11.1,22.96,10.66,23.25,9.49 M25.34,24.69c-0.58,0.06-1.26,0.31-1.63-0.59c-0.72-1.75-0.73-1.53,0.97-1.52
		c1.13,0.01,0.95-0.14,0.97,1.18C25.48,24.02,25.98,24.63,25.34,24.69 M24.39,21.09c-1.1,0-1.46-0.52-1.14-1.59
		c0.04-0.14,0.09-0.23,0.23-0.23c0.63-0.01,1.25-0.01,1.88,0c0.17,0,0.28,0.09,0.29,0.27c0,0.05,0,0.1,0.01,0.15
		C25.8,21.09,25.8,21.09,24.39,21.09 M25.59,17.51c-0.41,0.6-1.19,0.14-1.81,0.24c-0.19,0.03-0.5,0.11-0.53-0.24
		c-0.03-0.45-0.01-0.9-0.01-1.36c0-0.25,0.19-0.26,0.37-0.26c0.28,0,0.55,0,0.83,0v0c0.03,0,0.05-0.01,0.08,0
		c0.36,0.06,0.9-0.2,1.04,0.16C25.75,16.49,25.83,17.18,25.59,17.51 M27.05,6.16c0.06-0.23,0.2-0.26,0.38-0.26
		c0.32,0,0.65-0.01,0.98,0c1.2,0.02,1.03-0.14,1.04,1.03c0.01,0.82,0,0.82-1.25,0.82C27.09,7.75,26.75,7.26,27.05,6.16 M27.1,9.53
		c0.3-0.74,1.2-0.18,1.82-0.31c0.29-0.06,0.56-0.01,0.54,0.41c-0.02,0.35-0.01,0.71,0,1.06c0.01,0.29-0.11,0.41-0.4,0.4
		c-0.28-0.01-0.56,0-0.83,0C27.05,11.1,26.64,10.66,27.1,9.53 M29.46,27.07c-0.05,0.01-0.1,0.01-0.15,0.02
		c-0.17-0.44-0.36-0.87-0.51-1.31c-0.22-0.64-0.65-1.02-1.33-1.04c-0.33-0.01-0.41-0.13-0.43-0.44c-0.12-1.72-0.13-1.69,1.58-1.73
		c0.63-0.01,0.89,0.11,0.85,0.81C29.41,24.6,29.46,25.84,29.46,27.07 M28.31,21.09c-0.03,0-0.05,0-0.08,0
		c-1.18,0-1.46-0.37-1.19-1.56c0.05-0.23,0.16-0.28,0.36-0.28c0.35,0,0.7-0.01,1.05,0c1.15,0.02,0.9-0.13,1.02,0.99
		C29.6,21.35,28.88,21.05,28.31,21.09 M27.1,16.21c0.26-0.7,1.1-0.21,1.66-0.3c0.24-0.04,0.66-0.19,0.69,0.31
		c0.02,0.4,0,0.8,0.01,1.21c0,0.27-0.16,0.34-0.39,0.33c-0.25,0-0.5,0-0.75,0v0h-0.07C27.04,17.76,26.67,17.38,27.1,16.21
		 M29.46,14.15c-0.05,0.23-0.17,0.28-0.36,0.28c-0.35,0-0.71,0.01-1.06,0c-1.14-0.02-0.93,0.13-1-1.02
		c-0.04-0.69,0.16-0.99,0.86-0.87c0.12,0.02,0.25,0,0.38,0C29.45,12.55,29.74,12.96,29.46,14.15 M33.21,20.82
		c-0.31,0.64-1.16,0.16-1.76,0.26c-0.22,0.04-0.54,0.1-0.56-0.3c-0.01-0.4,0-0.8,0-1.2c0-0.27,0.16-0.33,0.39-0.33
		c0.28,0,0.55,0,0.83,0C33.22,19.25,33.7,19.8,33.21,20.82 M32.08,24.43c-0.05,0-0.1,0.01-0.15,0c-0.33-0.06-0.85,0.19-0.97-0.15
		c-0.16-0.45-0.07-0.98-0.06-1.48c0.01-0.19,0.19-0.21,0.34-0.21c0.55-0.01,1.1,0,1.66-0.01c0.25,0,0.37,0.1,0.35,0.36
		c-0.01,0.1,0,0.2,0,0.3C33.28,24.43,33.28,24.43,32.08,24.43 M32.08,17.76c-0.05,0-0.1,0.01-0.15,0c-0.33-0.06-0.85,0.19-0.97-0.16
		c-0.15-0.45-0.06-0.99-0.05-1.49c0.01-0.19,0.19-0.21,0.34-0.21c0.55,0,1.11,0,1.66,0c0.26-0.01,0.36,0.12,0.35,0.37
		c-0.01,0.1,0,0.2,0,0.3C33.27,17.76,33.27,17.76,32.08,17.76 M30.9,9.46c0-0.19,0.16-0.24,0.32-0.24c0.55-0.01,1.11,0,1.67-0.01
		c0.25,0,0.38,0.1,0.36,0.36c-0.01,0.13,0,0.25,0,0.38c0.01,1.15,0.01,1.15-1.16,1.15c-0.03,0-0.05,0-0.08,0
		c-0.36-0.06-0.91,0.2-1.05-0.15C30.79,10.52,30.9,9.96,30.9,9.46 M30.9,12.8c0.01-0.15,0.11-0.23,0.25-0.23
		c0.63-0.01,1.26-0.01,1.89,0c0.15,0,0.21,0.12,0.21,0.26c0.01,0.15,0.01,0.3,0.01,0.45c0.01,1.15,0.01,1.15-1.15,1.15
		c-0.03,0-0.05,0-0.08,0c-0.36-0.06-0.87,0.2-1.06-0.15C30.73,13.86,30.89,13.31,30.9,12.8 M30.86,29.04
		c0.06-0.85,0.01-1.71,0.02-2.57c0-0.19-0.08-0.5,0.16-0.52c0.67-0.05,1.35-0.05,2.03-0.02c0.24,0.01,0.18,0.27,0.18,0.43
		c0.01,0.53,0,1.06,0,1.58c0,0.13,0,0.25,0,0.38c0,1.53,0,1.5-1.52,1.57C31.04,29.93,30.82,29.74,30.86,29.04 M24.85,49.08
		c-0.81-0.02-1.61-0.02-2.42,0c-0.41,0.01-0.52-0.16-0.51-0.54c0.02-1.01,0.01-2.02,0.01-3.03c0-0.98,0.02-1.97-0.01-2.95
		c-0.01-0.44,0.15-0.57,0.57-0.56c0.68,0.03,1.36,0.03,2.04,0c0.55-0.02,0.8,0.2,0.8,0.75c0,1.94,0,3.89,0,5.83
		C25.33,48.92,25.22,49.09,24.85,49.08"/>
	<path style="fill:#E63343;" d="M31.13,38.61c0.35,3.39,3.97,5.9,7.42,5.15c2.95-0.64,5-3.37,4.85-6.43
		c-0.14-2.87-2.51-5.4-5.38-5.76c-0.83-0.1-1.41,0.38-1.45,1.24c-0.03,0.63,0,1.26-0.03,1.89c-0.03,0.73,0.29,1.67-0.15,2.12
		c-0.48,0.49-1.43,0.07-2.05,0.16c-0.68,0-1.24,0-1.79,0C31.46,37,31.02,37.51,31.13,38.61 M33.07,38.44
		c1.11,0.03,2.22,0.02,3.33,0.01c1.12-0.02,1.55-0.45,1.56-1.57c0.01-1.06,0.03-2.12,0-3.18c-0.01-0.54,0.08-0.7,0.66-0.52
		c1.92,0.59,3.36,2.51,3.37,4.55c0,2.05-1.49,4.03-3.46,4.55c-0.44,0.12-0.88,0.24-1.26,0.18c-2.16-0.01-4.12-1.51-4.62-3.45
		C32.54,38.58,32.6,38.43,33.07,38.44"/>
	<path style="fill:#E63343;" d="M33.73,35.28c0.07-0.8,0.59-1.19,1.34-1.3c0.46-0.06,0.71-0.31,0.67-0.74
		c-0.04-0.49-0.38-0.65-0.85-0.65c-1.3,0.02-2.51,1.2-2.57,2.54c-0.05,0.46,0.1,0.86,0.64,0.89C33.44,36.05,33.69,35.77,33.73,35.28
		"/>
	<path style="fill:#E63343;" d="M16.15,29.37c0.56-0.01,0.74-0.44,0.73-0.96c-0.01-0.15,0-0.3,0-0.45c0-0.18,0-0.35,0-0.53
		c-0.01-0.46-0.21-0.79-0.71-0.8c-0.52-0.01-0.69,0.35-0.72,0.79c-0.02,0.33-0.01,0.66-0.01,0.98
		C15.45,28.9,15.57,29.38,16.15,29.37"/>
	<path style="fill:#E63343;" d="M16.14,22.31c-0.93,0.02-0.68,0.83-0.7,1.38c-0.02,0.56-0.11,1.32,0.73,1.3
		c0.82-0.02,0.69-0.76,0.7-1.39C16.82,23.1,17.09,22.29,16.14,22.31"/>
	<path style="fill:#E63343;" d="M16.87,36.07c-0.04-0.43-0.27-0.71-0.71-0.72c-0.42-0.01-0.64,0.26-0.69,0.66
		c-0.03,0.25-0.04,0.5-0.03,0.75c0.03,0.55-0.15,1.29,0.72,1.29c0.89,0,0.67-0.76,0.71-1.17C16.87,36.52,16.89,36.29,16.87,36.07"/>
	<path style="fill:#E63343;" d="M26.34,35.34c-0.49-0.02-0.71,0.32-0.72,0.78c-0.01,0.45-0.01,0.91,0.03,1.35
		c0.03,0.38,0.27,0.57,0.66,0.59c0.39,0.01,0.63-0.19,0.7-0.55c0.05-0.27,0.04-0.55,0.05-0.82c-0.01,0-0.01,0-0.02,0
		c0-0.18,0.01-0.35,0-0.53C27.02,35.71,26.82,35.36,26.34,35.34"/>
	<path style="fill:#E63343;" d="M16.19,30.97c-0.57-0.03-0.74,0.42-0.75,0.92c0,0.15-0.01,0.3,0,0.45c0.05,0.54-0.19,1.31,0.69,1.33
		c0.95,0.03,0.7-0.78,0.75-1.26c0-0.23-0.01-0.38,0-0.53C16.9,31.39,16.68,31,16.19,30.97"/>
	<path style="fill:#E63343;" d="M26.32,30.97c-0.42,0-0.69,0.28-0.7,0.73c-0.01,0.23,0,0.45,0,0.68h-0.01c0,0.18-0.01,0.35,0,0.53
		c0.02,0.45,0.17,0.8,0.7,0.79c0.51,0,0.71-0.33,0.72-0.78c0.02-0.4,0.02-0.81-0.01-1.21C27,31.28,26.74,30.97,26.32,30.97"/>
	<path style="fill:#E63343;" d="M11.05,29.36c0.92,0.03,0.68-0.8,0.71-1.26c0-0.33,0-0.55,0-0.78c-0.01-0.43-0.25-0.66-0.66-0.68
		c-0.45-0.02-0.7,0.25-0.73,0.69c-0.02,0.23-0.01,0.45-0.01,0.68C10.38,28.57,10.23,29.34,11.05,29.36"/>
	<path style="fill:#E63343;" d="M21.25,26.63c-0.49-0.01-0.72,0.3-0.71,0.78c0,0.38,0.01,0.76,0,1.13
		c-0.01,0.48,0.22,0.81,0.69,0.83c0.47,0.02,0.72-0.3,0.7-0.79c-0.01-0.2,0-0.4,0-0.6c0-0.18-0.01-0.35,0-0.53
		C21.93,26.98,21.75,26.64,21.25,26.63"/>
	<path style="fill:#E63343;" d="M11.07,33.68c0.91,0.01,0.64-0.76,0.7-1.21c0-0.32-0.01-0.54,0-0.77c0.01-0.47-0.27-0.73-0.68-0.74
		c-0.42-0.01-0.69,0.28-0.71,0.73c-0.01,0.22-0.02,0.45,0,0.68C10.4,32.92,10.19,33.67,11.07,33.68"/>
	<path style="fill:#E63343;" d="M20.53,31.73c-0.01,0.43-0.01,0.86,0,1.28c0.02,0.46,0.28,0.69,0.73,0.69
		c0.42-0.01,0.64-0.25,0.64-0.67c0-0.23,0-0.45,0-0.68h0.01c0-0.2-0.01-0.4,0-0.6c0.03-0.46-0.22-0.76-0.64-0.78
		C20.82,30.95,20.54,31.25,20.53,31.73"/>
	<path style="fill:#E63343;" d="M20.53,36.74c0.04,0.54-0.2,1.3,0.7,1.3c0.92,0,0.62-0.78,0.68-1.2c0-0.33,0-0.55,0-0.78
		c0-0.46-0.24-0.72-0.68-0.72c-0.44,0-0.68,0.28-0.7,0.73C20.53,36.29,20.52,36.52,20.53,36.74"/>
	<path style="fill:#E63343;" d="M11.76,22.97c-0.02-0.41-0.21-0.66-0.64-0.68c-0.46-0.02-0.71,0.22-0.74,0.66
		c-0.02,0.25-0.01,0.5-0.01,0.75c0.01,0.57-0.12,1.3,0.73,1.29c0.81-0.02,0.65-0.73,0.66-1.13C11.77,23.47,11.77,23.22,11.76,22.97"
		/>
	<path style="fill:#E63343;" d="M11.77,36.17c0.02-0.48-0.18-0.81-0.66-0.82c-0.53-0.02-0.74,0.34-0.73,0.84
		c0.01,0.43-0.02,0.86,0.02,1.28c0.04,0.41,0.31,0.61,0.73,0.59c0.38-0.02,0.61-0.23,0.64-0.61c0.02-0.25,0.01-0.5,0.01-0.75h0.01
		C11.77,36.52,11.76,36.34,11.77,36.17"/>
</g>
</svg>
