<?xml version="1.0" encoding="utf-8"?>
<!-- Generator: Adobe Illustrator 23.0.2, SVG Export Plug-In . SVG Version: 6.00 Build 0)  -->
<svg version="1.1" id="Layer_1" xmlns="http://www.w3.org/2000/svg" xmlns:xlink="http://www.w3.org/1999/xlink" x="0px" y="0px"
	 viewBox="0 0 52 52" style="enable-background:new 0 0 52 52;" xml:space="preserve">
<g>
	<path style="fill:#E63343;" d="M49.74,47.55c-0.4-0.23-0.19-0.32-0.11-0.51c0.57-1.22,0.23-2.5-0.91-3.1
		c-0.43-0.23-0.45-0.45-0.41-0.84c0.12-1.02-0.27-1.82-1.16-2.35c-0.82-0.47-1.64-0.44-2.43,0.08c-0.86,0.57-1.2,1.38-1.03,2.41
		c0.03,0.2,0.12,0.38-0.16,0.56c-1.55,1.02-1.8,1.91-1,3.63c-1.28,0.12-1.28,0.12-1.28-1.11V11.97c0-1.26,0-1.26,1.24-1.3
		c0.83-0.03,1.1-0.25,1.12-1.09c0.01-0.43,0.17-0.53,0.57-0.53c1.57,0.02,3.14,0.01,4.71,0c0.75,0,1.01-0.26,1.02-1.02
		c0.01-0.86,0.01-1.72,0-2.57c-0.01-0.87-0.26-1.11-1.15-1.11c-1.3,0-2.6,0-3.9,0c-1.21,0-1.21,0-1.23-1.18
		C43.63,2.23,43.41,2,42.47,2C40.23,2,38,2,35.77,2c-1.42,0-1.61,0.14-1.55,1.53c0.03,0.71-0.23,0.83-0.87,0.83
		c-7.58-0.02-15.16-0.01-22.74-0.01c-2.26,0-4.51,0.01-6.77,0c-0.67,0-1.01,0.29-1.01,0.96c-0.01,0.93,0,1.87,0,2.8
		c0,0.63,0.3,0.96,0.94,0.96c0.47,0,0.94,0.04,1.4-0.01c0.6-0.06,0.79,0.12,0.78,0.75c-0.03,4.46-0.01,8.93-0.02,13.39
		c-0.01,0.83,0.06,1.52,1.1,1.66c0.33,0.04,0.52,0.37,0.5,0.72c-0.01,0.32-0.19,0.56-0.49,0.67c-0.29,0.11-0.68,0.11-0.8-0.17
		c-0.29-0.68-0.84-0.5-1.36-0.54c-0.44-0.04-0.52,0.18-0.43,0.52c0.06,0.21,0.13,0.43,0.25,0.6c0.25,0.33,0.2,0.59-0.06,0.9
		c-0.45,0.55-0.86,1.13-1.28,1.7c-1.01,1.4-0.44,2.96-0.44,4.46c0,0.08,0.09,0.17,0.16,0.24c0.96,1.12,1.94,1.94,3.65,1.82
		c1.39-0.09,2.49-0.33,3.36-1.47c0.33-0.43,0.51-0.82,0.58-1.36c0.24-2.04-0.21-3.82-1.72-5.28c-0.05-0.05-0.08-0.13-0.13-0.18
		c-0.28-0.26-0.25-0.49-0.06-0.83c0.63-1.14,0.33-2.43-0.74-3.09c-0.4-0.24-0.5-0.49-0.5-0.93c0.02-4.29,0.03-8.58-0.01-12.88
		c0-0.64,0.19-0.75,0.78-0.75c8.39,0.02,16.78,0.01,25.16,0.01c0.12,0,0.25,0.01,0.37,0c0.24-0.02,0.32,0.08,0.36,0.33
		c0.19,1.22,0.27,1.33,1.48,1.26c0.72-0.04,0.88,0.18,0.88,0.89c-0.03,11.7-0.02,23.4-0.02,35.1c0,0.12-0.01,0.25,0,0.37
		c0.05,0.4-0.13,0.51-0.51,0.5c-0.56-0.02-1.13-0.05-1.69,0.01c-0.71,0.08-0.94-0.12-0.94-0.9c0.03-9.84,0.02-19.67,0.02-29.51
		c0-0.17-0.02-0.35,0-0.52c0.06-0.58-0.36-0.5-0.67-0.46c-0.33,0.05-0.92-0.31-0.92,0.45c0,0.71-0.02,1.42,0.01,2.13
		c0.01,0.42-0.13,0.55-0.55,0.54c-1.13-0.02-2.26-0.04-3.38,0.01c-0.61,0.03-0.86-0.14-0.79-0.77c0.03-0.24,0.16-0.64-0.14-0.72
		c-0.39-0.1-0.85-0.11-1.23,0c-0.33,0.09-0.18,0.52-0.16,0.79c0.04,0.54-0.13,0.73-0.7,0.71c-1.15-0.04-2.3-0.02-3.46-0.01
		c-0.32,0-0.6,0.01-0.56-0.44c0.02-0.32-0.22-0.35-0.45-0.32c-0.37,0.05-1.02-0.18-1.05,0.16c-0.08,0.85-0.62,0.58-1.04,0.59
		c-0.71,0.03-1.42,0.01-2.13,0.01c-1.61,0-1.57,0-1.63-1.59c-0.03-0.69,0.22-0.79,0.83-0.79c2.89,0.03,5.79,0.02,8.68,0.01
		c0.22,0,0.51,0.12,0.66-0.16c0.35-0.63-0.07-1.36-0.79-1.36c-2.92,0-5.84-0.01-8.76,0.01c-0.47,0-0.65-0.12-0.62-0.62
		c0.04-0.69,0.02-1.37,0.01-2.06c0-0.18,0.08-0.39-0.18-0.51c-0.74-0.34-1.42,0.08-1.42,0.9v33.4c0,0.19-0.01,0.39,0,0.59
		c0.03,0.33-0.13,0.41-0.44,0.42c-0.51,0.02-0.92-0.06-1.3-0.48c-0.95-1.02-1.96-1.99-2.96-2.97c-0.6-0.6-0.95-0.6-1.55,0.01
		c-1.01,1-2.01,2.01-3.02,3.01c-0.16,0.15-0.31,0.35-0.51,0.4c-0.85,0.25-0.31,0.89-0.37,1.33c-0.07,0.48,0.42,0.28,0.65,0.28
		c15.26,0.01,30.51,0.01,45.77,0.01c0.21,0,0.59,0.16,0.61-0.19C49.92,48.44,50.18,47.79,49.74,47.55 M48.22,6.18
		c0.21,1.42,0.38,1.41-1.8,1.2C47.06,6.96,47.63,6.58,48.22,6.18 M45.41,6.03c-0.38,0.43-1.06,0.89-1.67,1.14
		C43.47,5.88,43.65,5.75,45.41,6.03 M6.99,7.48c-0.72,0-1.45,0-2.17,0c-0.17,0-0.37,0-0.37-0.24c0-0.41-0.14-0.86,0.08-1.22
		C4.64,5.84,4.98,5.95,5.2,6.1C5.8,6.5,6.41,6.91,7.02,7.32C7.01,7.37,7,7.42,6.99,7.48 M9.12,31.63c0.01,0.84-0.01,1.59-0.77,2.23
		c-0.57,0.48-1.15,0.25-1.72,0.36c-0.85,0.16-1.45-0.22-1.94-0.85c-0.2-0.25-0.38-1.93-0.22-2.19c0.11-0.18,0.3-0.13,0.46-0.14
		c0.61-0.01,1.22,0,1.84,0c0.59,0,1.18,0.02,1.77-0.01C9,31.01,9.12,31.19,9.12,31.63 M8.12,29.46H5.19
		c0.57-0.59,0.69-1.48,1.53-1.53C7.63,27.88,7.67,28.89,8.12,29.46 M10.03,7.23c-0.05,0.03-0.16,0.06-0.2,0.03
		c-0.6-0.38-1.18-0.77-1.77-1.15c0.03-0.04,0.06-0.09,0.09-0.14h3.52c0.03,0.04,0.05,0.08,0.08,0.13
		C11.17,6.48,10.6,6.86,10.03,7.23 M12.58,7.44c0.75-0.5,1.34-0.89,1.93-1.27c0.19-0.12,0.32,0.08,0.45,0.17
		c0.5,0.31,0.98,0.65,1.66,1.1H12.58z M19.44,7.24c-0.12,0.08-0.23,0.02-0.34-0.05C18.57,6.83,18.03,6.47,17.33,6h3.85
		C20.63,6.54,20,6.84,19.44,7.24 M22,7.44c0.7-0.47,1.25-0.8,1.77-1.18c0.24-0.18,0.4-0.08,0.58,0.04c0.5,0.34,1.01,0.68,1.69,1.14
		H22z M28.93,7.2c-0.18,0.12-0.31,0.06-0.46-0.04c-0.52-0.35-1.04-0.7-1.56-1.04c0.01-0.05,0.03-0.09,0.05-0.14h3.77
		C30.02,6.46,29.47,6.82,28.93,7.2 M33.29,7.48c-0.55,0-1.1,0-1.65,0c-0.01-0.05-0.03-0.1-0.04-0.15c0.64-0.43,1.26-0.89,1.92-1.28
		c0.44-0.26,0.71-0.13,0.7,0.46C34.2,7.48,34.23,7.48,33.29,7.48 M5.51,47.46c0.69-0.67,1.26-1.19,1.8-1.74
		c0.2-0.2,0.32-0.13,0.48,0.03c0.53,0.53,1.08,1.05,1.76,1.71H5.51z M27.15,21.44c0-0.41,0.06-0.63,0.55-0.61
		c1.2,0.04,2.4,0.04,3.6,0c0.49-0.01,0.56,0.19,0.55,0.61c-0.02,1.1-0.01,2.21-0.01,3.31c0,1.13-0.02,2.25,0.01,3.38
		c0.01,0.42-0.13,0.54-0.55,0.54c-1.2-0.02-2.4-0.03-3.6,0c-0.48,0.01-0.56-0.19-0.56-0.61C27.17,25.85,27.17,23.64,27.15,21.44
		 M21.46,20.83c1.2,0.03,2.4,0.01,3.6,0.01c0.23,0,0.53-0.08,0.53,0.31c0,2.07,0,4.14,0,6.21c-0.09,0.06-0.18,0.13-0.27,0.19
		c-0.37-0.44-0.76-0.87-1.1-1.33c-0.51-0.7-1.24-0.67-1.99-0.66c-1.33,0.02-1.33,0.01-1.33-1.35c0-0.93,0.02-1.86-0.01-2.79
		C20.88,20.99,20.98,20.81,21.46,20.83 M15.02,20.83c1.3,0.02,2.6,0.01,3.89,0c0.62-0.01,0.37,0.44,0.4,0.73
		c0.04,0.31,0.08,0.64-0.44,0.61c-0.64-0.04-1.27-0.01-1.91-0.01c-0.64,0-1.28-0.03-1.91,0.01c-0.53,0.03-0.47-0.31-0.43-0.62
		C14.64,21.27,14.39,20.82,15.02,20.83 M31.14,47.51c-4.93-0.01-9.85-0.01-14.78-0.01c-1.75,0-1.75,0-1.75-1.74V35.61
		c0-3.73,0.01-7.46-0.01-11.18c0-0.53,0.11-0.73,0.68-0.71c1.13,0.05,2.26,0.04,3.38,0c0.5-0.01,0.71,0.11,0.67,0.64
		c-0.04,0.61-0.01,1.23-0.01,1.84c0,0.63,0.31,0.96,0.94,0.96c0.05,0,0.1,0.01,0.14,0c1.89-0.37,3.3,0.37,4.4,1.87
		c0.74,1.02,1.73,1.37,2.99,1.26c1.14-0.11,2.31,0,3.46-0.03c0.49-0.01,0.62,0.15,0.61,0.63c-0.01,5.32-0.02,10.64,0.01,15.96
		C31.87,47.44,31.64,47.51,31.14,47.51 M37.29,3.6c1.63,0,1.63,0,1.63,1.63c0,1.48,0,1.48-1.49,1.48c-1.63,0-1.63,0-1.63-1.63
		C35.8,3.6,35.8,3.6,37.29,3.6 M36.33,9.06c-0.27,0-0.54,0.04-0.53-0.39c0.01-0.44,0.3-0.37,0.56-0.37c1-0.01,2.01,0.01,3.01-0.01
		c0.89-0.01,1.13-0.25,1.14-1.13c0.01-1.03,0.03-2.06-0.01-3.08c-0.02-0.57,0.34-0.52,0.67-0.47c0.33,0.06,0.92-0.33,0.92,0.43
		c0.01,1.52,0,3.04,0.01,4.55c0,0.35-0.13,0.47-0.48,0.46c-0.91-0.01-1.81-0.01-2.72-0.01C38.05,9.06,37.19,9.06,36.33,9.06
		 M38.44,33.58c-0.11-0.16-0.07-0.26,0.02-0.39c0.37-0.56,0.75-1.11,1.12-1.67c0.04,0.03,0.09,0.05,0.13,0.08v3.75
		C39.15,34.76,38.84,34.14,38.44,33.58 M39.36,38.4c-0.36,0.52-0.7,1.05-1.18,1.76v-4.1c0.48,0.71,0.84,1.26,1.21,1.81
		C39.53,38.07,39.49,38.22,39.36,38.4 M38.17,30.65v-3.77C39.66,27.87,39.68,28.85,38.17,30.65 M38.46,14.77
		c-0.12-0.17-0.09-0.3,0.01-0.45c0.37-0.54,0.73-1.08,1.2-1.78v4.05C39.21,15.89,38.84,15.33,38.46,14.77 M39.42,19.08
		c0.09,0.13,0.08,0.28-0.01,0.41c-0.38,0.55-0.75,1.11-1.22,1.8v-3.95C38.73,17.9,39.03,18.53,39.42,19.08 M38.93,10.77
		c-0.22,0.34-0.43,0.65-0.66,0.99C38.01,10.72,38.07,10.63,38.93,10.77 M38.2,45.49c0.48,0.73,0.86,1.31,1.26,1.91
		C37.91,47.59,38.12,47.74,38.2,45.49 M39.71,44.64c-0.04,0.03-0.09,0.05-0.13,0.08c-0.39-0.59-0.77-1.18-1.17-1.76
		c-0.09-0.13-0.04-0.23,0.03-0.33c0.37-0.56,0.75-1.13,1.13-1.69c0.05,0.02,0.09,0.04,0.14,0.07V44.64z M39.6,25.9
		c-0.4-0.61-0.78-1.19-1.17-1.76c-0.11-0.16-0.03-0.28,0.04-0.39c0.36-0.55,0.72-1.09,1.08-1.63c0.06,0.01,0.12,0.02,0.18,0.04
		c0,1.04,0.01,2.08,0,3.12C39.73,25.45,39.81,25.66,39.6,25.9 M44.42,46.73c-0.45-0.01-0.72-0.3-0.74-0.74
		c-0.01-0.49,0.29-0.77,0.77-0.77c0.44,0.01,0.71,0.26,0.75,0.76C45.14,46.4,44.91,46.73,44.42,46.73 M45.98,43.57
		c-0.45,0-0.74-0.29-0.75-0.73c-0.01-0.48,0.31-0.74,0.74-0.79c0.5,0.03,0.78,0.32,0.79,0.74C46.77,43.25,46.48,43.57,45.98,43.57
		 M47.52,46.72c-0.44-0.02-0.69-0.32-0.69-0.81c0.02-0.47,0.31-0.7,0.75-0.69c0.44,0.01,0.74,0.25,0.73,0.74
		C48.3,46.45,48,46.74,47.52,46.72"/>
	<path style="fill:#E63343;" d="M20.11,44.4c-0.66-0.16-0.84,0.11-0.81,0.76c0.03,0.55,0.03,0.89,0.77,0.86
		c0.66-0.02,0.87-0.17,0.86-0.86C20.91,44.53,20.77,44.24,20.11,44.4"/>
	<path style="fill:#E63343;" d="M29.55,44.35c-0.65,0-0.87,0.14-0.85,0.83c0.02,0.6,0.11,0.86,0.79,0.83c0.63-0.02,1-0.11,0.82-0.83
		C30.46,44.52,30.2,44.35,29.55,44.35"/>
	<path style="fill:#E63343;" d="M23.27,30.29c0.68,0.03,0.87-0.21,0.74-0.83c0.14-0.62-0.07-0.84-0.75-0.83
		c-0.64,0.01-0.86,0.14-0.87,0.84C22.39,30.18,22.65,30.27,23.27,30.29"/>
	<path style="fill:#E63343;" d="M20.01,30.29c0.56-0.05,0.98,0,0.91-0.79c-0.05-0.55-0.03-0.94-0.77-0.87
		c-0.53,0.05-1.03-0.02-0.82,0.74C19.26,29.9,19.22,30.35,20.01,30.29"/>
	<path style="fill:#E63343;" d="M23.23,44.4c-0.63-0.14-0.84,0.09-0.82,0.75c0.01,0.63,0.13,0.87,0.83,0.87
		c0.73,0.01,0.79-0.28,0.82-0.88C24.08,44.47,23.85,44.26,23.23,44.4"/>
	<path style="fill:#E63343;" d="M23.3,36.57c0.73,0.04,0.82-0.3,0.71-0.87c0.2-0.75-0.27-0.71-0.81-0.75
		c-0.67-0.05-0.78,0.2-0.8,0.82C22.36,36.53,22.72,36.54,23.3,36.57"/>
	<path style="fill:#E63343;" d="M29.53,34.99c-0.62-0.14-0.87,0.06-0.83,0.74c0.03,0.56,0.04,0.89,0.77,0.85
		c0.61-0.03,0.91-0.1,0.88-0.83C30.33,35.12,30.19,34.83,29.53,34.99"/>
	<path style="fill:#E63343;" d="M20.17,38.11c-0.56-0.1-0.94-0.02-0.87,0.71c0.05,0.5-0.06,0.97,0.73,0.87
		c0.5-0.06,0.97,0.03,0.88-0.74C20.86,38.45,20.97,37.92,20.17,38.11"/>
	<path style="fill:#E63343;" d="M29.57,38.07c-0.53,0.03-0.95,0-0.86,0.75c0.06,0.49-0.06,0.97,0.72,0.87
		c0.52-0.06,1.09,0.06,0.87-0.76C30.43,38.32,30.26,38.03,29.57,38.07"/>
	<path style="fill:#E63343;" d="M20.04,36.57c0.54-0.04,0.93-0.02,0.88-0.76c-0.04-0.54-0.02-0.94-0.76-0.86
		c-0.51,0.05-1.04-0.05-0.81,0.77C19.2,36.28,19.31,36.62,20.04,36.57"/>
	<path style="fill:#E63343;" d="M23.26,38.07c-0.57,0.04-0.9,0.07-0.85,0.78c0.04,0.54,0.01,1.01,0.76,0.81
		c0.55,0.09,0.94,0.06,0.88-0.69C24.01,38.4,24.03,38.01,23.26,38.07"/>
	<path style="fill:#E63343;" d="M29.54,41.24c-0.57,0.03-0.88,0.05-0.84,0.77c0.03,0.6,0.11,0.95,0.79,0.78
		c0.6,0.12,0.87-0.04,0.86-0.74C30.34,41.43,30.2,41.21,29.54,41.24"/>
	<path style="fill:#E63343;" d="M16.99,38.07c-0.66-0.01-0.81,0.19-0.82,0.83c-0.01,0.67,0.2,0.8,0.83,0.81
		c0.66,0,0.83-0.24,0.7-0.82C17.83,38.3,17.64,38.07,16.99,38.07"/>
	<path style="fill:#E63343;" d="M23.22,33.4c0.58-0.02,0.97-0.07,0.79-0.78c0.16-0.67-0.14-0.82-0.77-0.81
		c-0.59,0.01-0.85,0.1-0.84,0.79C22.41,33.25,22.6,33.42,23.22,33.4"/>
	<path style="fill:#E63343;" d="M20.09,33.35c0.61,0.18,0.82-0.06,0.83-0.73c0.01-0.65-0.19-0.84-0.83-0.82
		c-0.56,0.02-0.84,0.08-0.8,0.75C19.33,33.11,19.31,33.56,20.09,33.35"/>
	<path style="fill:#E63343;" d="M23.24,41.29c-0.58-0.15-0.85,0.01-0.84,0.71c0.01,0.61,0.12,0.87,0.8,0.83
		c0.54-0.03,0.91-0.02,0.85-0.76C24.01,41.49,23.99,41.1,23.24,41.29"/>
	<path style="fill:#E63343;" d="M20.03,42.83c0.52-0.04,0.94,0.01,0.89-0.75c-0.04-0.58-0.06-0.99-0.82-0.79
		c-0.63-0.19-0.82,0.08-0.8,0.73C19.31,42.57,19.36,42.88,20.03,42.83"/>
	<path style="fill:#E63343;" d="M29.45,33.36c0.55,0.09,0.94,0.05,0.9-0.7c-0.03-0.57-0.06-0.92-0.77-0.85
		c-0.51,0.05-0.95-0.03-0.87,0.74C28.76,33.08,28.7,33.56,29.45,33.36"/>
	<path style="fill:#E63343;" d="M26.36,39.66c0.66,0.16,0.82-0.13,0.82-0.77c0.01-0.65-0.18-0.83-0.82-0.82
		c-0.61,0.01-0.8,0.18-0.78,0.79C25.59,39.43,25.62,39.85,26.36,39.66"/>
	<path style="fill:#E63343;" d="M16.9,30.29c0.56-0.05,0.99-0.04,0.79-0.76c0.08-0.55,0.07-0.94-0.69-0.9
		c-0.58,0.03-0.91,0.09-0.83,0.79C16.23,29.91,16.12,30.36,16.9,30.29"/>
	<path style="fill:#E63343;" d="M16.96,44.35c-0.69-0.01-0.78,0.24-0.78,0.83c0,0.59,0.1,0.85,0.79,0.84
		c0.67-0.01,0.87-0.23,0.74-0.84C17.84,44.56,17.62,44.36,16.96,44.35"/>
	<path style="fill:#E63343;" d="M17.03,34.95c-0.56,0.03-0.91,0.04-0.86,0.77c0.04,0.58,0.07,0.9,0.79,0.86
		c0.59-0.04,0.9-0.14,0.74-0.78C17.78,35.27,17.74,34.9,17.03,34.95"/>
	<path style="fill:#E63343;" d="M26.35,36.58c0.64-0.01,0.85-0.16,0.82-0.82c-0.02-0.55-0.07-0.86-0.74-0.81
		c-0.53,0.04-1.02-0.01-0.82,0.76C25.5,36.31,25.65,36.59,26.35,36.58"/>
	<path style="fill:#E63343;" d="M26.44,44.36c-0.55,0.03-0.94,0.01-0.86,0.76c0.06,0.51-0.03,0.96,0.74,0.89
		c0.55-0.05,1.02-0.01,0.82-0.79C27.27,44.66,27.17,44.31,26.44,44.36"/>
	<path style="fill:#E63343;" d="M26.41,33.41c0.63,0.01,0.76-0.2,0.77-0.79c0.01-0.67-0.2-0.91-0.84-0.76
		c-0.67-0.17-0.74,0.19-0.77,0.75C25.53,33.29,25.8,33.4,26.41,33.41"/>
	<path style="fill:#E63343;" d="M26.35,42.83c0.61-0.01,0.97-0.1,0.79-0.8c0.16-0.64-0.13-0.78-0.74-0.79
		c-0.62-0.01-0.86,0.12-0.84,0.8C25.59,42.64,25.72,42.84,26.35,42.83"/>
	<path style="fill:#E63343;" d="M16.99,33.4c0.76,0.07,0.71-0.34,0.74-0.86c0.04-0.67-0.25-0.8-0.82-0.69
		c-0.77-0.2-0.69,0.31-0.74,0.83C16.11,33.36,16.46,33.36,16.99,33.4"/>
	<path style="fill:#E63343;" d="M16.94,42.83c0.54-0.04,0.93-0.06,0.74-0.78c0.18-0.61-0.05-0.82-0.72-0.81
		c-0.57,0.01-0.82,0.1-0.79,0.75C16.19,42.56,16.23,42.89,16.94,42.83"/>
</g>
</svg>
