<?xml version="1.0" encoding="utf-8"?>
<!-- Generator: Adobe Illustrator 23.0.2, SVG Export Plug-In . SVG Version: 6.00 Build 0)  -->
<svg version="1.1" id="Layer_1" xmlns="http://www.w3.org/2000/svg" xmlns:xlink="http://www.w3.org/1999/xlink" x="0px" y="0px"
	 viewBox="0 0 52 52" style="enable-background:new 0 0 52 52;" xml:space="preserve">
<g>
	<path style="fill:#E63343;" d="M46.64,48.35c-0.63,0.03-0.81-0.15-0.8-0.79c0.02-7,0.02-13.99,0.02-20.99c0-7.05,0-14.1,0-21.14
		c0-0.89-0.19-1.12-1.05-1.13c-4.98-0.01-9.96-0.01-14.94-0.01c-0.73,0-1.07,0.33-1.05,1.08c0.02,0.89-0.04,1.79,0.02,2.68
		c0.05,0.79-0.47,0.6-0.9,0.63c-0.48,0.03-0.83,0.01-0.78-0.66c0.06-0.86,0.02-1.74,0.01-2.6c-0.01-0.84-0.25-1.1-1.09-1.12
		c-0.92-0.02-1.84-0.02-2.76,0c-0.42,0.01-0.6-0.12-0.58-0.57c0.03-0.58,0-1.17,0-1.76c0-0.53-0.2-0.92-0.76-0.96
		c-0.61-0.04-0.86,0.38-0.9,0.92c-0.04,0.58-0.04,1.17,0,1.76c0.02,0.47-0.14,0.63-0.61,0.62c-0.92-0.03-1.84-0.01-2.76,0
		c-0.68,0.01-1.04,0.32-1,1.04c0.02,0.41,0.02,0.82,0,1.22c-0.04,0.68,0.3,1.55-0.15,1.99c-0.41,0.4-1.26,0.09-1.92,0.13
		c-0.03,0-0.05,0-0.08,0c-0.91,0.03-1.17,0.29-1.18,1.21c-0.01,1.97-0.02,3.93,0.01,5.9c0.01,0.51-0.14,0.66-0.64,0.65
		c-1.84-0.03-3.68-0.01-5.52-0.01c-1.48,0-1.52,0.04-1.52,1.49c0,9.65,0,19.3,0,28.95c0,0.45,0.11,1.01-0.1,1.34
		c-0.22,0.34-0.8,0.08-1.22,0.14c-0.1,0.01-0.21,0.02-0.3,0.06c-0.36,0.14-0.61,0.42-0.6,0.81c0.01,0.42,0.27,0.72,0.7,0.78
		c0.25,0.04,0.51,0.02,0.76,0.02c5.87,0,11.75,0,17.62,0c8.02,0,16.04,0,24.05,0c1.04,0,1.47-0.23,1.48-0.81
		C48.09,48.63,47.61,48.3,46.64,48.35 M20.37,5.93c1.45,0,2.9,0.02,4.35-0.01c0.53-0.01,0.82,0.08,0.75,0.7
		c-0.08,0.65,0.27,1.5-0.14,1.91c-0.4,0.42-1.25,0.11-1.91,0.14c-0.51,0.02-1.02,0-1.53,0c-1.02,0-2.04-0.01-3.05,0.01
		c-0.39,0.01-0.51-0.14-0.54-0.53C18.18,5.93,18.17,5.93,20.37,5.93 M15.56,48.03c0,0.17-0.07,0.3-0.26,0.3
		c-0.2,0-0.25-0.14-0.25-0.3c0-0.33,0.01-0.66-0.02-0.99c-0.04-0.48-0.27-0.84-0.8-0.85c-0.55-0.01-0.83,0.33-0.86,0.86
		c-0.02,0.28,0,0.56-0.01,0.84c0,0.19,0.06,0.44-0.27,0.43c-0.26-0.01-0.23-0.23-0.23-0.4c-0.01-0.33,0-0.66,0-0.99
		c0-1.35,0-1.35,1.37-1.35c1.34,0,1.35,0,1.34,1.38C15.57,47.31,15.56,47.67,15.56,48.03 M21.05,33.22c0,4.77-0.01,9.54,0.01,14.31
		c0,0.63-0.14,0.86-0.79,0.81c-0.79-0.06-1.58-0.04-2.37,0c-0.52,0.03-0.72-0.12-0.7-0.67c0.04-0.89-0.01-1.79,0.02-2.68
		c0.02-0.72-0.33-1.03-1.01-1.04c-1.35-0.01-2.7-0.01-4.06,0c-0.64,0-0.99,0.33-0.98,1c0.01,0.92-0.02,1.84,0.01,2.75
		c0.01,0.44-0.08,0.66-0.58,0.64c-0.92-0.04-1.84-0.02-2.76,0c-0.39,0.01-0.57-0.12-0.53-0.52c0.01-0.12,0-0.25,0-0.38
		c0-9.49,0.01-18.98-0.02-28.47c0-0.74,0.19-0.94,0.93-0.93c4.01,0.04,8.01,0.03,12.02,0.01c0.63-0.01,0.82,0.16,0.81,0.8
		C21.04,23.63,21.05,28.43,21.05,33.22 M24.74,23.57c0.2,0,0.41-0.01,0.61-0.04c0.44-0.08,0.68-0.39,0.68-0.8
		c-0.01-0.41-0.24-0.74-0.7-0.77c-0.66-0.03-1.32-0.05-1.99-0.03c-0.46,0.01-0.64-0.14-0.61-0.61c0.03-0.54,0.03-1.08,0-1.61
		c-0.02-0.41,0.15-0.53,0.54-0.52c0.58,0.02,1.17,0.03,1.76,0c0.57-0.02,1.04-0.28,1-0.91c-0.04-0.56-0.46-0.8-1.03-0.77
		c-0.41,0.02-0.81,0-1.22,0c-0.52,0.01-1.04,0.12-1.18-0.67c-0.08-0.44-0.58-0.41-0.97-0.41c-1.97,0-3.93-0.02-5.9,0.01
		c-0.52,0.01-0.71-0.12-0.69-0.67c0.03-1.61,0.03-3.22,0-4.82c0-0.45,0.1-0.62,0.59-0.62c4.19,0.02,8.37,0.02,12.56,0
		c0.52,0,0.64,0.18,0.63,0.66c-0.02,2.45-0.01,4.9-0.01,7.35c0,2.43-0.01,4.85,0.01,7.28c0,0.51-0.12,0.72-0.67,0.71
		c-1.58-0.03-3.17-0.03-4.75,0c-0.48,0.01-0.66-0.11-0.67-0.64C22.69,23.59,22.67,23.6,24.74,23.57 M35.77,48.35
		c-4.11-0.03-8.22-0.03-12.32,0c-0.57,0-0.73-0.15-0.73-0.72c0.02-6.33,0.02-12.66,0.01-18.99c0-0.52,0.12-0.7,0.67-0.7
		c4.16,0.02,8.32,0.02,12.48,0c0.5,0,0.64,0.15,0.64,0.64c-0.02,3.19-0.01,6.38-0.01,9.57c0,3.14-0.01,6.28,0.01,9.42
		C36.51,48.14,36.41,48.36,35.77,48.35 M43.31,48.35c-1.48-0.06-2.96-0.05-4.44,0c-0.59,0.02-0.71-0.18-0.71-0.74
		c0.02-6.97,0.01-13.94,0.01-20.91c0-0.23,0.01-0.46-0.01-0.69c-0.03-0.44-0.32-0.71-0.72-0.77c-0.42-0.06-0.8,0.15-0.86,0.58
		c-0.1,0.7-0.6,0.46-0.98,0.48c-0.37,0.03-0.76,0.1-0.8-0.51c-0.02-0.35-0.38-0.56-0.73-0.56c-0.37,0-0.72,0.18-0.77,0.6
		c-0.06,0.47-0.33,0.48-0.69,0.49c-2.1,0.05-2.1,0.05-2.1-2.02c0-5.82,0.02-11.64-0.02-17.46c0-0.76,0.22-0.92,0.94-0.91
		c3.96,0.03,7.92,0.04,11.87-0.01c0.81-0.01,0.96,0.25,0.95,0.99c-0.03,6.74-0.02,13.48-0.02,20.22c0,6.77-0.01,13.53,0.02,20.3
		C44.24,48.17,44.05,48.39,43.31,48.35"/>
	<path style="fill:#E63343;" d="M38.16,20.55c-0.05-0.5-0.33-0.81-0.83-0.82c-0.47-0.01-0.76,0.3-0.81,0.75
		c-0.04,0.4-0.04,0.82,0,1.22c0.06,0.45,0.32,0.75,0.81,0.74c0.51-0.02,0.78-0.32,0.82-0.82c0.02-0.17,0-0.35,0-0.53
		C38.16,20.9,38.18,20.72,38.16,20.55"/>
	<path style="fill:#E63343;" d="M38.16,15.01c-0.05-0.51-0.38-0.81-0.85-0.8c-0.44,0.01-0.76,0.31-0.79,0.78
		c-0.03,0.43-0.04,0.87,0.03,1.29c0.07,0.41,0.35,0.67,0.81,0.65c0.45-0.02,0.69-0.29,0.78-0.7c0.04-0.19,0.01-0.4,0.01-0.61
		c0,0,0.01,0,0.01,0C38.16,15.42,38.18,15.22,38.16,15.01"/>
	<path style="fill:#E63343;" d="M40.63,41.74c-0.56,0.01-0.8,0.42-0.8,1.39c0,0.15-0.01,0.3,0,0.46c0.02,0.53,0.25,0.9,0.81,0.9
		c0.52,0,0.76-0.35,0.81-0.84c0.02-0.18,0.02-0.35,0.02-0.53C41.48,42.2,41.19,41.74,40.63,41.74"/>
	<path style="fill:#E63343;" d="M40.61,25.23c-0.4,0.02-0.71,0.26-0.75,0.71c-0.02,0.2-0.02,0.41-0.03,0.61c0.01,0,0.02,0,0.03,0
		c0,0.23-0.02,0.46,0,0.68c0.04,0.44,0.3,0.69,0.74,0.71c0.44,0.01,0.73-0.19,0.82-0.63c0.09-0.48,0.09-0.96,0-1.44
		C41.34,25.45,41.01,25.21,40.61,25.23"/>
	<path style="fill:#E63343;" d="M37.36,11.41c0.45-0.02,0.7-0.27,0.78-0.69c0.04-0.19,0.01-0.4,0.01-0.61h0
		c0-0.23,0.03-0.46-0.01-0.68c-0.07-0.43-0.33-0.68-0.77-0.71c-0.43-0.02-0.74,0.19-0.83,0.62c-0.1,0.47-0.1,0.96-0.01,1.43
		C36.63,11.19,36.91,11.43,37.36,11.41"/>
	<path style="fill:#E63343;" d="M40.59,11.4c0.52,0.02,0.82-0.25,0.85-0.76c0.03-0.42,0.03-0.86-0.03-1.28
		c-0.05-0.44-0.38-0.65-0.8-0.64c-0.42,0.01-0.72,0.24-0.76,0.69c-0.02,0.22,0,0.45,0,0.68h-0.01c0,0.18-0.01,0.35,0,0.53
		C39.87,11.1,40.1,11.38,40.59,11.4"/>
	<path style="fill:#E63343;" d="M40.6,30.74c-0.42,0.03-0.7,0.28-0.74,0.73c-0.02,0.2-0.02,0.4-0.02,0.4c0,0.36,0,0.51,0,0.66
		c0.01,0.52,0.2,0.91,0.77,0.93c0.61,0.02,0.84-0.4,0.86-0.94c0.01-0.38,0.02-0.76-0.05-1.13C41.34,30.96,41.03,30.71,40.6,30.74"/>
	<path style="fill:#E63343;" d="M40.58,22.43c0.56,0.03,0.84-0.29,0.88-0.82c0.03-0.35,0.02-0.71,0-1.06
		c-0.04-0.49-0.32-0.82-0.82-0.82c-0.5,0.01-0.77,0.32-0.79,0.84c0,0.18,0,0.36,0,0.53h0c0,0.15,0,0.3,0,0.46
		C39.85,22.05,40.04,22.4,40.58,22.43"/>
	<path style="fill:#E63343;" d="M40.63,16.93c0.53,0.01,0.77-0.32,0.82-0.81c0.02-0.18,0.02-0.35,0.02-0.53
		c0-0.91-0.28-1.38-0.83-1.39c-0.55-0.01-0.82,0.43-0.81,1.38c0,0.18-0.01,0.36,0,0.53C39.87,16.6,40.1,16.92,40.63,16.93"/>
	<path style="fill:#E63343;" d="M39.84,38.08c0.01,0.49,0.21,0.85,0.74,0.88c0.56,0.03,0.84-0.3,0.88-0.83
		c0.03-0.35,0.02-0.71,0-1.06c-0.04-0.5-0.32-0.82-0.82-0.81c-0.5,0.01-0.78,0.32-0.79,0.84c0,0.18,0,0.35,0,0.53h0
		C39.84,37.78,39.83,37.93,39.84,38.08"/>
	<path style="fill:#E63343;" d="M34.05,11.4c0.41,0,0.69-0.19,0.76-0.61c0.03-0.22,0.01-0.46,0.01-0.68h0.02c0-0.18,0-0.36,0-0.54
		c0-0.52-0.27-0.83-0.77-0.85c-0.51-0.02-0.81,0.29-0.82,0.8c-0.01,0.43-0.01,0.87,0.04,1.3C33.33,11.25,33.64,11.41,34.05,11.4"/>
	<path style="fill:#E63343;" d="M34.04,16.93c0.41-0.01,0.68-0.21,0.76-0.6c0.05-0.22,0.03-0.45,0.03-0.47c0-0.39,0-0.57,0-0.75
		c0.02-0.56-0.3-0.89-0.81-0.9c-0.48-0.01-0.78,0.34-0.79,0.85c0,0.43-0.01,0.86,0.05,1.29C33.33,16.76,33.63,16.94,34.04,16.93"/>
	<path style="fill:#E63343;" d="M34.83,20.63c0.01-0.55-0.27-0.89-0.8-0.89c-0.5-0.01-0.78,0.32-0.79,0.83
		c-0.01,0.43-0.01,0.86,0.04,1.28c0.05,0.42,0.36,0.59,0.76,0.59c0.4,0,0.69-0.19,0.77-0.59c0.05-0.25,0.03-0.51,0.04-0.76
		c0,0-0.01,0-0.01,0C34.83,20.93,34.83,20.78,34.83,20.63"/>
	<path style="fill:#E63343;" d="M14.22,32.98c-0.44,0-0.72,0.22-0.82,0.64c-0.05,0.21-0.03,0.45-0.04,0.68c0.01,0,0.02,0,0.02,0
		c0,0.23-0.03,0.46,0.01,0.68c0.08,0.42,0.35,0.66,0.79,0.67c0.44,0.01,0.74-0.21,0.82-0.63c0.08-0.47,0.09-0.96-0.01-1.43
		C14.9,33.19,14.63,32.98,14.22,32.98"/>
	<path style="fill:#E63343;" d="M15.03,28.42c-0.02-0.55-0.23-0.97-0.83-0.97c-0.59,0.01-0.83,0.4-0.84,0.96c0,0.28,0,0.56,0,0.84
		c0.01,0.55,0.31,0.89,0.83,0.9c0.53,0.01,0.81-0.36,0.83-0.9c0.01-0.15,0-0.3,0-0.46h0C15.03,28.68,15.04,28.55,15.03,28.42"/>
	<path style="fill:#E63343;" d="M13.37,23.81c0.04,0.5,0.3,0.81,0.81,0.82c0.52,0.01,0.8-0.3,0.83-0.79
		c0.03-0.4,0.04-0.81-0.02-1.21c-0.06-0.41-0.33-0.67-0.78-0.67c-0.44,0-0.72,0.23-0.82,0.65c-0.05,0.21-0.03,0.45-0.04,0.68
		c0,0,0.01,0,0.01,0C13.36,23.46,13.35,23.64,13.37,23.81"/>
	<path style="fill:#E63343;" d="M14.22,38.46c-0.43-0.01-0.76,0.23-0.82,0.65c-0.07,0.47-0.06,0.96,0.01,1.44
		c0.05,0.37,0.36,0.61,0.76,0.62c0.44,0.01,0.72-0.23,0.82-0.65c0.05-0.22,0.04-0.45,0.06-0.71c-0.02-0.22-0.01-0.48-0.07-0.72
		C14.9,38.69,14.61,38.47,14.22,38.46"/>
	<path style="fill:#E63343;" d="M10.92,30.16c0.55-0.01,0.78-0.4,0.77-0.93c0-0.15,0-0.3,0-0.46c0-0.12,0-0.25,0-0.38
		c-0.01-0.51-0.18-0.91-0.76-0.93c-0.61-0.02-0.84,0.37-0.87,0.92c-0.02,0.28-0.01,0.56,0,0.84C10.08,29.77,10.33,30.17,10.92,30.16
		"/>
	<path style="fill:#E63343;" d="M11.69,33.86c-0.01-0.53-0.22-0.88-0.81-0.88c-0.54,0-0.79,0.32-0.81,0.82
		c-0.02,0.43-0.02,0.87,0.05,1.29c0.07,0.41,0.4,0.56,0.8,0.55c0.37-0.01,0.64-0.18,0.72-0.55c0.05-0.25,0.04-0.51,0.06-0.76
		c-0.01,0-0.01,0-0.02,0C11.69,34.17,11.7,34.02,11.69,33.86"/>
	<path style="fill:#E63343;" d="M10.98,38.47c-0.43-0.04-0.76,0.15-0.86,0.58c-0.13,0.52-0.13,1.06,0.01,1.58
		c0.1,0.38,0.41,0.57,0.81,0.54c0.4-0.03,0.66-0.24,0.72-0.65c0.03-0.22,0.03-0.45,0.04-0.68c-0.01-0.23-0.01-0.45-0.03-0.68
		C11.63,38.74,11.38,38.51,10.98,38.47"/>
	<path style="fill:#E63343;" d="M10.92,24.63c0.4-0.01,0.68-0.21,0.74-0.63c0.03-0.23,0.03-0.46,0.03-0.46c0-0.38,0-0.53,0-0.68
		c-0.01-0.53-0.21-0.9-0.8-0.9c-0.59,0-0.81,0.37-0.82,0.89c-0.01,0.41-0.01,0.82,0.06,1.22C10.2,24.47,10.52,24.64,10.92,24.63"/>
	<path style="fill:#E63343;" d="M18.3,28.3c-0.03-0.53-0.27-0.88-0.84-0.85c-0.52,0.03-0.76,0.35-0.76,0.86
		c0,0.38-0.01,0.76,0.01,1.14c0.03,0.45,0.34,0.69,0.75,0.71c0.41,0.02,0.73-0.19,0.8-0.64c0.03-0.23,0.04-0.45,0.06-0.68
		c-0.01,0-0.02,0-0.02,0C18.3,28.66,18.31,28.48,18.3,28.3"/>
	<path style="fill:#E63343;" d="M17.6,32.99c-0.66-0.09-0.9,0.28-0.9,1.31c0,1.04,0.23,1.41,0.88,1.34
		c0.81-0.09,0.73-0.73,0.72-1.28C18.3,33.8,18.46,33.1,17.6,32.99"/>
	<path style="fill:#E63343;" d="M17.52,38.47c-0.42,0-0.73,0.21-0.8,0.65c-0.03,0.22-0.01,0.45-0.01,0.68H16.7c0,0.18,0,0.35,0,0.53
		c0,0.51,0.26,0.81,0.78,0.83c0.52,0.02,0.79-0.29,0.81-0.79c0.01-0.43,0.01-0.86-0.03-1.28C18.22,38.67,17.91,38.47,17.52,38.47"/>
	<path style="fill:#E63343;" d="M17.47,24.62c0.52,0.02,0.8-0.28,0.82-0.79c0.01-0.43,0.01-0.87-0.04-1.29
		c-0.05-0.42-0.37-0.58-0.77-0.58c-0.4,0.01-0.69,0.19-0.76,0.6c-0.04,0.22-0.01,0.46-0.01,0.69H16.7c0,0.18,0,0.36,0,0.53
		C16.7,24.3,16.95,24.61,17.47,24.62"/>
	<path style="fill:#E63343;" d="M26.31,29.66c-0.7,0-0.84,0.55-0.84,1.13c0,4.92,0,9.85,0,14.77c0,0.59,0.15,1.12,0.86,1.11
		c0.71-0.01,0.83-0.52,0.83-1.12c-0.01-2.45,0-4.9,0-7.35c0-2.47-0.01-4.95,0-7.42C27.16,30.16,27,29.66,26.31,29.66"/>
	<path style="fill:#E63343;" d="M29.52,29.65c-0.4,0.05-0.64,0.3-0.69,0.7c-0.03,0.23-0.02,0.46-0.02,0.69c0,2.37,0,4.74,0,7.11
		c0,2.37,0,4.74,0,7.11c0,0.23,0,0.46,0.02,0.69c0.04,0.41,0.26,0.66,0.67,0.7c0.43,0.05,0.77-0.1,0.88-0.54
		c0.07-0.27,0.09-0.55,0.09-0.83c0-4.74,0-9.49,0-14.23c0-0.27-0.02-0.56-0.09-0.83C30.28,29.8,29.96,29.6,29.52,29.65"/>
	<path style="fill:#E63343;" d="M33.75,38.18c0-2.45,0-4.9,0-7.34c0-0.81-0.29-1.23-0.84-1.19c-0.7,0.05-0.84,0.58-0.84,1.15
		c-0.01,4.92-0.01,9.84,0,14.77c0,0.58,0.16,1.11,0.88,1.1c0.73-0.01,0.81-0.54,0.81-1.13C33.75,43.08,33.75,40.63,33.75,38.18"/>
	<path style="fill:#E63343;" d="M24.94,13.08c-2.01,0.02-4.03,0.01-6.04,0c-0.61,0-1.1,0.18-1.1,0.86c0.01,0.65,0.5,0.82,1.07,0.82
		h2.98c1.02,0,2.04-0.01,3.06,0c0.61,0.01,1.12-0.2,1.1-0.86C26.01,13.3,25.54,13.08,24.94,13.08"/>
</g>
</svg>
