<?xml version="1.0" encoding="utf-8"?>
<!-- Generator: Adobe Illustrator 23.0.2, SVG Export Plug-In . SVG Version: 6.00 Build 0)  -->
<svg version="1.1" id="Layer_1" xmlns="http://www.w3.org/2000/svg" xmlns:xlink="http://www.w3.org/1999/xlink" x="0px" y="0px"
	 viewBox="0 0 52 52" style="enable-background:new 0 0 52 52;" xml:space="preserve">
<g>
	<path style="fill:#E63343;" d="M27.47,8.59c-3.45-0.4-6.62,0.45-9.59,2.19c-0.5,0.29-0.87,0.68-0.5,1.25
		c0.33,0.51,0.78,0.3,1.22,0.04c3-1.81,6.22-2.43,9.69-1.91c6.54,0.98,11.8,6.92,11.85,13.53c0.05,4.96-1.94,8.93-5.9,11.91
		c-0.65,0.49-1.2,1.06-1.65,1.74c-0.41,0.61-0.32,1.61-0.87,1.9c-0.59,0.31-1.47,0.08-2.22,0.11c-0.46,0.02-0.84,0.23-0.83,0.74
		c0.01,0.54,0.38,0.76,0.89,0.76c0.52,0,1.04,0.03,1.56-0.01c0.53-0.04,0.74,0.11,0.72,0.68c-0.04,0.91-0.01,1.82-0.01,2.72
		c-0.01,1.38-0.62,1.99-2,2.01c-1.27,0.02-2.54,0-3.81,0c-1.32,0-2.65,0.02-3.97-0.01c-1.23-0.03-1.85-0.67-1.87-1.9
		c-0.02-0.93,0.02-1.87-0.01-2.8c-0.02-0.52,0.12-0.74,0.69-0.71c0.91,0.04,1.82,0.01,2.72,0.01c0.93,0,1.87,0.01,2.8-0.01
		c0.48-0.01,0.8-0.26,0.81-0.76c0.01-0.47-0.33-0.67-0.75-0.74c-0.2-0.03-0.42-0.01-0.62-0.01c-1.72,0-3.43,0-5.14,0
		c-0.28,0-0.54,0.05-0.64-0.37c-0.35-1.64-1.44-2.73-2.74-3.72c-4.45-3.37-6.43-9.29-5.02-14.65c0.66-2.49,1.89-4.64,3.72-6.45
		c0.38-0.38,0.55-0.81,0.15-1.23c-0.38-0.4-0.8-0.22-1.15,0.13c-3.85,3.97-5.34,8.68-4.31,14.11c0.78,4.11,3.01,7.33,6.38,9.78
		c1.08,0.78,1.61,1.87,1.61,3.21c0,1.43-0.01,2.85,0,4.28c0.02,1.47,0.72,2.53,2.08,3.07c0.36,0.14,0.53,0.35,0.7,0.65
		c1,1.74,2.51,2.67,4.52,2.67c2.03,0,3.57-0.93,4.56-2.71c0.17-0.31,0.39-0.48,0.73-0.62c1.33-0.55,2.01-1.59,2.04-3.02
		c0.03-1.17,0.07-2.34-0.01-3.5c-0.14-1.95,0.63-3.32,2.2-4.49c5.38-4.04,7.58-11.24,5.22-17.53C38.45,12.85,33.99,9.35,27.47,8.59
		 M26.14,49.36c-1.27,0.06-2.33-0.47-3.22-1.62h6.11C28.29,48.84,27.29,49.31,26.14,49.36"/>
	<path style="fill:#E63343;" d="M34.38,20.06c0.61-0.83,0.6-0.99-0.11-1.71c-0.33-0.33-0.66-0.66-0.99-0.99
		c-1.23-1.23-1.23-1.23-2.65-0.17c-0.96,0.72-2.06,0.28-2.26-0.92c-0.03-0.18-0.03-0.36-0.06-0.54c-0.17-1.13-0.24-1.2-1.37-1.2
		c-0.34,0-0.67,0-1.01,0c-2.38,0.01-1.97-0.21-2.36,1.94c-0.16,0.91-1.32,1.35-2.07,0.82c-0.46-0.32-0.84-0.78-1.42-0.9
		c-0.29-0.03-0.5,0.09-0.69,0.29c-0.34,0.35-0.7,0.7-1.05,1.04c-1.58,1.58-1.48,1.28-0.23,2.99c0.55,0.75,0.05,1.93-0.88,2.07
		c-1.91,0.28-2-0.05-1.96,2.28c0,0.08,0,0.16,0,0.23c0,2.07,0,2.07,2.05,2.31c0.25,0.03,0.5-0.03,0.67,0.27
		c0.52,0.92,0.52,1.25-0.14,2.12c-0.11,0.15-0.21,0.3-0.33,0.43c-0.46,0.52-0.44,1.01,0.08,1.48c0.38,0.35,0.74,0.73,1.11,1.1
		c1.35,1.37,1.21,1.24,2.65,0.18c0.25-0.19,0.45-0.51,0.86-0.43c0.89,0.16,1.28,0.53,1.42,1.42c0.04,0.28,0.1,0.56,0.12,0.85
		c0.05,0.61,0.38,0.86,0.97,0.85c0.83-0.01,1.66-0.01,2.49,0c0.63,0.01,0.96-0.26,1.02-0.9c0.04-0.44,0.14-0.87,0.22-1.3
		c0.03-0.17,0.01-0.33,0.2-0.47c0.71-0.5,1.33-0.51,2.02,0c0.23,0.17,0.47,0.33,0.68,0.51c0.46,0.4,0.88,0.34,1.29-0.08
		c0.45-0.47,0.92-0.92,1.38-1.38c1.04-1.03,1.05-1.06,0.12-2.23c-0.44-0.56-0.74-1.01-0.31-1.77c0.25-0.44,0.43-0.69,0.95-0.67
		c0.36,0.01,0.72-0.1,1.07-0.15c0.55-0.08,0.84-0.39,0.84-0.94c0.01-0.88,0.02-1.76-0.01-2.65c-0.01-0.53-0.26-0.88-0.85-0.92
		c-0.28-0.02-0.56-0.09-0.85-0.13c-1.34-0.18-1.78-1.23-0.97-2.31C34.15,20.34,34.27,20.2,34.38,20.06 M34.3,24.2
		c0.3,0.01,0.75-0.07,0.83,0.25c0.11,0.46,0.14,1.01,0,1.45c-0.1,0.31-0.65,0.29-0.98,0.29c-0.9,0-1.42,0.36-1.55,1.26
		c-0.01,0.08-0.03,0.16-0.07,0.22c-0.83,1.12-0.69,2.13,0.32,3.05c0.22,0.2,0.22,0.4-0.01,0.65c-0.85,0.97-0.86,1.01-1.86,0.19
		c-0.62-0.5-1.19-0.69-1.87-0.15c-0.16,0.12-0.37,0.22-0.56,0.25c-1.22,0.15-1.63,0.96-1.6,2.04c0.02,0.77-0.47,0.66-0.93,0.65
		c-0.48-0.01-0.99,0.14-0.98-0.69c0.02-1.04-0.45-1.61-1.53-2.06c-1.24-0.52-2.16-0.62-3.08,0.4c-0.21,0.23-0.39,0.22-0.65-0.01
		c-0.97-0.85-1.02-0.87-0.2-1.86c0.52-0.63,0.65-1.2,0.14-1.87c-0.02-0.02-0.03-0.05-0.04-0.07c-0.28-1.41-1.05-2.23-2.57-2.16
		c-0.09,0-0.25-0.05-0.26-0.11c-0.13-0.48-0.12-0.99-0.03-1.46c0.06-0.33,0.47-0.27,0.73-0.28c0.97-0.03,1.73-0.3,1.86-1.42
		c0.01-0.05,0.02-0.11,0.05-0.15c0.84-1.09,0.66-2.08-0.31-2.98c-0.3-0.28-0.21-0.5,0.06-0.77c0.28-0.26,0.47-0.61,0.71-0.92
		c0.52,0.38,0.88,0.59,1.18,0.87c0.53,0.51,1.06,0.57,1.67,0.14c0.21-0.15,0.46-0.29,0.7-0.31c1.27-0.14,1.56-1.04,1.56-2.08
		c0-0.84,0.55-0.62,1-0.64c0.5-0.03,0.94-0.05,0.89,0.68c-0.03,0.38,0.08,0.77,0.17,1.15c0.16,0.69,2.88,1.68,3.47,1.28
		c0.19-0.13,0.37-0.28,0.56-0.42c0.69-0.52,1.48-0.29,1.85,0.52c0.09,0.19-0.01,0.29-0.1,0.41c-0.16,0.21-0.3,0.43-0.47,0.62
		c-0.54,0.58-0.71,1.17-0.19,1.87c0.18,0.24,0.32,0.56,0.36,0.85C32.73,23.93,33.42,24.16,34.3,24.2"/>
	<path style="fill:#E63343;" d="M25.26,5.83c0.01,0.5,0.23,0.89,0.76,0.89c0.49-0.01,0.72-0.38,0.72-0.85
		c0.01-1.34,0.01-2.69,0-4.03C26.73,1.38,26.53,1.01,26.02,1c-0.56-0.01-0.75,0.38-0.76,0.87c-0.01,0.65,0,1.29,0,1.94
		C25.25,4.49,25.25,5.16,25.26,5.83"/>
	<path style="fill:#E63343;" d="M13.23,11.74c0.4,0.34,1.05-0.05,1.08-0.64c-0.03-0.09-0.05-0.26-0.15-0.36
		c-1.07-1.09-2.15-2.17-3.24-3.23c-0.3-0.28-0.64-0.15-0.9,0.12C9.79,7.87,9.68,8.19,9.93,8.46C10.97,9.61,12.05,10.74,13.23,11.74"
		/>
	<path style="fill:#E63343;" d="M38.45,11.87c0.09-0.03,0.28-0.05,0.37-0.15c1.09-1.07,2.17-2.15,3.23-3.24
		c0.29-0.3,0.15-0.64-0.12-0.89c-0.28-0.26-0.61-0.34-0.9-0.05c-1.07,1.05-2.15,2.09-3.18,3.19C37.46,11.14,37.83,11.83,38.45,11.87
		"/>
	<path style="fill:#E63343;" d="M47.85,22.81c-1.42-0.02-2.84-0.02-4.26,0c-0.44,0.01-0.75,0.29-0.74,0.74
		c0.01,0.45,0.31,0.69,0.76,0.7c0.7,0.01,1.4,0,2.09,0.01c0.7,0,1.4,0.01,2.09,0c0.45-0.01,0.76-0.22,0.77-0.69
		C48.58,23.1,48.29,22.82,47.85,22.81"/>
	<path style="fill:#E63343;" d="M8.22,22.8c-0.62,0.01-1.24,0-1.86,0c-0.67,0-1.34,0-2.02,0c-0.5,0-0.9,0.17-0.91,0.72
		c-0.01,0.56,0.39,0.73,0.89,0.73c1.32,0,2.64,0,3.96,0c0.51,0,0.9-0.21,0.88-0.75C9.13,22.99,8.72,22.79,8.22,22.8"/>
	<path style="fill:#E63343;" d="M19.85,7.86c0.36-0.11,0.51-0.43,0.43-0.72c-0.18-0.64-0.43-1.26-0.71-1.87
		c-0.15-0.31-0.49-0.34-0.82-0.26c-0.37,0.09-0.45,0.38-0.51,0.8c0.23,0.55,0.47,1.2,0.78,1.81C19.19,7.94,19.54,7.95,19.85,7.86"/>
	<path style="fill:#E63343;" d="M32.1,7.84c0.34,0.13,0.71,0.11,0.89-0.23c0.3-0.59,0.52-1.22,0.76-1.8
		c-0.06-0.37-0.11-0.67-0.47-0.78c-0.35-0.1-0.71-0.08-0.87,0.28c-0.27,0.58-0.5,1.18-0.69,1.79C31.62,7.4,31.76,7.71,32.1,7.84"/>
	<path style="fill:#E63343;" d="M44.48,16.24c-0.17-0.33-0.48-0.49-0.85-0.36c-0.54,0.18-1.07,0.37-1.59,0.61
		c-0.33,0.15-0.47,0.46-0.37,0.85c0.1,0.37,0.36,0.48,0.81,0.5c0.56-0.17,1.24-0.37,1.82-0.75C44.61,16.89,44.63,16.54,44.48,16.24"
		/>
	<path style="fill:#E63343;" d="M10.03,16.55c-0.58-0.27-1.19-0.51-1.8-0.69c-0.31-0.09-0.62,0.11-0.73,0.44
		c-0.11,0.32-0.08,0.66,0.23,0.83c0.59,0.32,1.22,0.56,1.84,0.72c0.37-0.03,0.65-0.11,0.75-0.48C10.4,17.02,10.33,16.7,10.03,16.55"
		/>
	<path style="fill:#E63343;" d="M25.97,20.45c-2.59,0.01-4.68,2.1-4.7,4.69c-0.02,2.6,2.13,4.78,4.72,4.78
		c2.59,0.01,4.74-2.16,4.73-4.76C30.72,22.54,28.6,20.44,25.97,20.45 M25.95,28.4c-1.81-0.01-3.23-1.46-3.21-3.28
		c0.02-1.74,1.48-3.21,3.23-3.23c1.8-0.02,3.31,1.51,3.29,3.33C29.24,27.02,27.79,28.41,25.95,28.4"/>
</g>
</svg>
