<?xml version="1.0" encoding="utf-8"?>
<!-- Generator: Adobe Illustrator 23.0.2, SVG Export Plug-In . SVG Version: 6.00 Build 0)  -->
<svg version="1.1" id="Layer_1" xmlns="http://www.w3.org/2000/svg" xmlns:xlink="http://www.w3.org/1999/xlink" x="0px" y="0px"
	 viewBox="0 0 52 52" style="enable-background:new 0 0 52 52;" xml:space="preserve">
<style type="text/css">
	.st0{fill:#4EAD33;}
	.st1{fill:#FFFFFF;}
</style>
<g>
	<path class="st0" d="M26,51c-13.9,0-25-11.2-25-25.1C1.1,12.2,12.3,1,26,1c13.9,0,25,11.2,25,25.1C51,39.8,39.7,51,26,51"/>
	<path class="st1" d="M12.7,20.5c0-2.7,1.3-4.6,3.9-5.6c1.2-0.5,2.2-0.2,3,0.7c1.4,1.5,2.4,3.3,2.3,5.4c0,0.4-0.2,0.7-0.5,0.9
		c-0.5,0.3-0.9,0.7-1.4,1c-0.2,0.1-0.3,0.3-0.5,0.5c-0.5,0.5-0.5,1-0.3,1.6c0.4,1,1,1.8,1.7,2.6c1.6,1.9,3.3,3.6,5.4,5
		c0.5,0.3,0.9,0.6,1.5,0.8c0.4,0.1,0.8,0.1,1.1-0.3c0.7-0.8,1.4-1.6,2.1-2.4c0.4-0.5,0.9-0.6,1.6-0.5c1.8,0.5,3.5,1.5,5.1,2.5
		c0.6,0.4,0.7,0.9,0.6,1.5c-0.4,2.7-2.1,4.3-4.6,5.1c-1.6,0.5-3.2,0.3-4.7-0.2c-7.5-2.4-12.6-7.3-15.5-14.7
		C13,23.3,12.7,21.9,12.7,20.5"/>
</g>
</svg>
