<?xml version="1.0" encoding="utf-8"?>
<!-- Generator: Adobe Illustrator 23.0.2, SVG Export Plug-In . SVG Version: 6.00 Build 0)  -->
<svg version="1.1" id="Layer_1" xmlns="http://www.w3.org/2000/svg" xmlns:xlink="http://www.w3.org/1999/xlink" x="0px" y="0px"
	 viewBox="0 0 52 52" style="enable-background:new 0 0 52 52;" xml:space="preserve">
<path style="fill:#E52336;" d="M43.59,10.37c-0.13,0-0.28,0.04-0.38-0.01c-1.15-0.5-1.65,0.31-2.25,1c-2.22,2.57-4.46,5.12-6.7,7.67
	c-0.34,0.38-0.41,0.62-0.06,1.07c2.13,2.77,2.68,5.83,1.59,9.14c-0.14,0.42-0.06,0.6,0.33,0.81c2.4,1.3,4.79,2.62,7.17,3.94
	c0.36,0.2,0.6,0.17,0.96-0.05c1.65-1.06,3.72-0.93,5.19,0.28c1.47,1.2,1.96,3.13,1.25,4.87c-0.73,1.74-2.54,2.79-4.55,2.61
	c-1.78-0.15-3.36-1.55-3.78-3.33c-0.03-0.12-0.06-0.26-0.04-0.37c0.23-1.06-0.37-1.54-1.25-2c-2.15-1.1-4.25-2.3-6.36-3.49
	c-0.38-0.21-0.61-0.21-0.91,0.14c-1.15,1.32-2.58,2.25-4.25,2.83c-0.34,0.12-0.53,0.23-0.48,0.63c0.28,1.85,0.54,3.69,0.8,5.53
	c0.05,0.38,0.39,0.36,0.64,0.45c1.83,0.67,3.09,2.49,2.91,4.22c-0.2,2.06-1.57,3.58-3.57,3.95c-1.98,0.37-3.94-0.62-4.8-2.41
	c-0.84-1.76-0.32-3.91,1.31-5.08c0.53-0.37,0.63-0.72,0.54-1.3c-0.25-1.54-0.46-3.09-0.67-4.63c-0.07-0.55-0.28-0.8-0.91-0.84
	c-3.22-0.23-5.74-1.7-7.6-4.25c-0.23-0.32-0.41-0.41-0.81-0.24c-2.16,0.91-4.33,1.8-6.5,2.67c-0.36,0.15-0.47,0.35-0.49,0.73
	c-0.1,2.17-1.92,3.9-4.11,3.96c-2.43,0.06-4.31-1.52-4.58-3.83c-0.24-2.14,1.32-4.12,3.54-4.55c1.38-0.28,2.57,0.09,3.62,0.93
	c0.33,0.27,0.57,0.31,0.95,0.15c2.09-0.88,4.18-1.74,6.28-2.59c0.47-0.19,0.61-0.44,0.51-0.92c-0.68-3.48,0.3-6.47,2.84-8.99
	c0.24-0.24,0.28-0.4,0.07-0.7c-1.11-1.58-2.19-3.18-3.27-4.78c-0.18-0.27-0.38-0.34-0.71-0.3c-2.52,0.31-4.79-1.43-4.96-3.79
	c-0.18-2.53,1.7-4.6,4.28-4.69c3.26-0.11,5.49,3.45,3.9,6.28c-0.25,0.46-0.22,0.74,0.06,1.13c1.03,1.45,2.04,2.92,3.02,4.4
	c0.25,0.38,0.45,0.48,0.93,0.31c3.02-1.16,5.98-0.99,8.82,0.53c0.38,0.21,0.57,0.16,0.84-0.15c2.52-2.91,5.05-5.81,7.6-8.71
	c0.23-0.26,0.22-0.46,0.09-0.74c-0.76-1.74-0.43-3.31,0.86-4.68c1.18-1.25,3.08-1.63,4.72-0.98c1.77,0.69,2.66,2.04,2.79,3.84
	C48.17,8.35,46.08,10.38,43.59,10.37 M26.07,19c-3.95,0.02-7.28,3.26-7.28,7.1c0,3.88,3.36,7.14,7.34,7.12
	c3.96-0.02,7.28-3.26,7.28-7.1C33.42,22.25,30.05,18.99,26.07,19 M46.58,38.86c0.84,0.02,1.44-0.53,1.47-1.32
	c0.02-0.81-0.53-1.41-1.33-1.44c-0.87-0.03-1.5,0.53-1.52,1.35C45.19,38.24,45.77,38.84,46.58,38.86 M43.63,4.77
	c-0.8-0.01-1.46,0.6-1.48,1.35c-0.02,0.76,0.69,1.43,1.5,1.42c0.77-0.01,1.45-0.67,1.44-1.41C45.08,5.39,44.41,4.77,43.63,4.77
	 M29.03,47.47c0.82,0,1.42-0.59,1.42-1.38c0-0.78-0.61-1.39-1.41-1.4c-0.82-0.01-1.51,0.65-1.49,1.42
	C27.58,46.88,28.23,47.47,29.03,47.47 M4.16,34.64c0,0.78,0.62,1.41,1.4,1.42c0.8,0.01,1.46-0.66,1.45-1.46
	c-0.02-0.78-0.65-1.37-1.45-1.36C4.74,33.25,4.16,33.84,4.16,34.64 M15.85,9.05c-0.01-0.76-0.67-1.41-1.43-1.4
	c-0.76,0-1.4,0.65-1.41,1.42c0,0.79,0.69,1.47,1.47,1.44C15.25,10.48,15.86,9.83,15.85,9.05"/>
</svg>
