<?xml version="1.0" encoding="utf-8"?>
<!-- Generator: Adobe Illustrator 23.0.2, SVG Export Plug-In . SVG Version: 6.00 Build 0)  -->
<svg version="1.1" id="Layer_1" xmlns="http://www.w3.org/2000/svg" xmlns:xlink="http://www.w3.org/1999/xlink" x="0px" y="0px"
	 viewBox="0 0 52 52" style="enable-background:new 0 0 52 52;" xml:space="preserve">
<g>
	<path style="fill:#E63343;" d="M26,50.98C12.1,50.96,0.96,39.76,1,25.82C1.04,12.16,12.3,0.98,26.02,1.02
		C39.92,1.06,51.04,12.24,51,26.16C50.96,39.84,39.72,51.02,26,50.98"/>
	<path style="fill:#FFFFFF;" d="M24.84,29.76c0.72,0.72,1.58,0.72,2.32,0c2.22-2.16,4.4-4.36,6.56-6.56c0.7-0.72,0.64-1.66-0.04-2.3
		c-0.62-0.58-1.54-0.6-2.24,0c-0.3,0.26-0.58,0.54-0.84,0.84c-0.88,0.92-1.78,1.84-2.72,2.8c-0.32-0.54-0.22-0.94-0.22-1.32
		c0-3.88,0-7.78,0-11.66c0-0.42-0.02-0.88-0.12-1.28c-0.2-0.76-0.8-1.14-1.52-1.14c-0.78,0-1.38,0.42-1.56,1.24
		c-0.08,0.38-0.08,0.78-0.08,1.18c0,3.88,0,7.78,0,11.66c0,0.38,0.1,0.78-0.18,1.22c-0.3-0.28-0.58-0.54-0.86-0.8
		c-0.92-0.92-1.82-1.86-2.76-2.74c-0.68-0.64-1.62-0.6-2.24-0.02c-0.68,0.64-0.74,1.58-0.04,2.3C20.44,25.4,22.62,27.6,24.84,29.76"
		/>
	<path style="fill:#FFFFFF;" d="M40.62,30.28c-0.08-0.88-0.72-1.4-1.62-1.42c-0.88-0.02-1.52,0.64-1.58,1.58
		c-0.02,0.32-0.04,0.66,0,0.98c0.14,0.96-0.24,1.22-1.2,1.22c-6.56-0.04-13.1-0.02-19.66-0.02c-1.9,0-1.9,0-1.98-1.94
		c-0.04-1.12-0.62-1.8-1.58-1.82s-1.64,0.72-1.68,1.84c-0.02,0.76-0.02,1.52,0,2.26c0,2,0.88,2.9,2.9,2.9c3.9,0,7.78,0,11.66,0
		c4.04,0,8.06,0,12.1,0c1.48,0,2.5-0.72,2.64-2.02C40.74,32.66,40.72,31.46,40.62,30.28"/>
</g>
</svg>
