<?xml version="1.0" encoding="utf-8"?>
<!-- Generator: Adobe Illustrator 23.0.2, SVG Export Plug-In . SVG Version: 6.00 Build 0)  -->
<svg version="1.1" id="Layer_1" xmlns="http://www.w3.org/2000/svg" xmlns:xlink="http://www.w3.org/1999/xlink" x="0px" y="0px"
	 viewBox="0 0 512 512" style="enable-background:new 0 0 512 512;" xml:space="preserve">
<g>
	<path style="fill:#E63343;" d="M235.5,272.74c12.91,3.33,28.53,3.03,41.62-0.02c31.55-7.36,62.33-17.34,93.4-26.29
		c41.2-11.87,82.37-23.76,128.58-37.09c-10.35-3.8-15.42-5.97-20.7-7.56c-64.67-19.35-129.55-38.11-193.94-58.19
		c-19.59-6.12-37.19-5.97-56.54,0.44c-34.68,11.48-70.1,21.16-105.17,31.68c-36.12,10.85-72.21,21.81-108.31,32.72
		c0.13,1.62,0.27,3.25,0.39,4.86C88.34,233.27,161.69,253.74,235.5,272.74"/>
	<path style="fill:#E63343;" d="M298,298.97c-29.52,8.62-57.92,8.71-87.47,0.02c-35.6-10.46-71.89-19.04-110.62-29.14
		c0,31.32,0.91,59.97-0.4,88.53c-0.63,13.68,5.57,19.57,18.64,24.39c93.26,34.42,185.74,29.46,277.7-3.71
		c5.18-1.86,12.4-7.21,12.52-11.08c1.02-31.76,0.58-63.55,0.58-98.23C369.83,279.97,333.59,288.57,298,298.97"/>
	<path style="fill:#E63343;" d="M39.93,322.45c-1.57-18.79,0.02-37.77-0.73-56.65c-0.22-5.62-3.84-11.14-5.91-16.71
		c-2.8,0.71-5.59,1.43-8.39,2.14c0,10.95,1.01,22-0.21,32.85c-2.79,25.13,8.55,51.65-10.14,75.6c-2.46,3.15,3.61,15.86,9.14,18.65
		c5.61,2.82,18.26,1.24,22.66-2.88c4.37-4.09,3.91-13.96,2.69-20.89C47.14,343.69,40.84,333.29,39.93,322.45"/>
</g>
</svg>
