<?xml version="1.0" encoding="utf-8"?>
<!-- Generator: Adobe Illustrator 23.0.2, SVG Export Plug-In . SVG Version: 6.00 Build 0)  -->
<svg version="1.1" id="Layer_1" xmlns="http://www.w3.org/2000/svg" xmlns:xlink="http://www.w3.org/1999/xlink" x="0px" y="0px"
	 viewBox="0 0 52 52" style="enable-background:new 0 0 52 52;" xml:space="preserve">
<g>
	<path style="fill:#E52336;" d="M25.48,20.14c-0.02-0.29-0.03-0.58-0.07-0.88c-0.03-0.25-0.11-0.52-0.43-0.51
		c-0.34,0-0.35,0.28-0.38,0.53c-0.01,0.1-0.03,0.2-0.02,0.3c0.54,3.41-1.01,6.36-2.1,9.41c-0.7,1.97-0.43,2.7,1.53,3.46
		c0.71,0.28,0.64,0.72,0.55,1.16c-0.14,0.68-0.42,1.33-0.66,1.99c-0.27,0.72-0.56,1.59-0.14,2.19c1.35,1.92,0.7,4.06,0.83,6.1
		c0.08,1.3,0.04,2.61,0.02,3.91c-0.02,1.63-1.01,2.75-2.37,2.74c-1.33,0-2.19-0.99-2.2-2.68c-0.02-4.47,0-8.93,0-13.4
		c0-0.4,0-0.8-0.02-1.2c-0.03-0.38-0.19-0.7-0.64-0.67c-0.38,0.03-0.47,0.34-0.48,0.65c-0.01,0.35-0.01,0.7-0.01,1.05
		c0,4.42,0,8.84,0,13.25c0,1.93-0.78,2.95-2.22,2.94c-1.47,0-2.35-1.14-2.34-3.04c0-0.87,0.02-1.62,0.74-2.43
		c0.71-0.8,0.71-2.15,1.75-2.92c0.43-0.32,0.19-1.07-0.11-1.55c-2.38-3.74-2.57-7.89-2.36-12.15c0.13-2.7,0.06-5.42,0.01-8.13
		c0-0.52,0.38-1.49-0.47-1.46c-0.73,0.03-0.38,0.99-0.39,1.52c-0.04,3.36-0.02,6.72-0.02,10.08c0,0.58-0.1,1.12-0.62,1.45
		c-0.32,0.2-0.54-0.14-0.79-0.27c-0.56-0.27-0.49-0.49-0.11-0.95c1.75-2.09,1.32-4.15-1.14-5.36c-0.64-0.32-0.72-0.7-0.71-1.28
		c0.02-1.66-0.01-3.31,0.01-4.97c0.07-3.97,2.58-7.02,6.49-7.67c2.13-0.36,4.3-0.29,6.43,0.14c0.89,0.18,1.69,0.61,2.44,1.14
		c2.1,1.49,2.29,2.06,1.4,4.38c-0.4,1.06-0.8,2.12-1.19,3.18C25.63,20.18,25.56,20.16,25.48,20.14"/>
	<path style="fill:#E52336;" d="M41.41,27.73c-0.81,0.43-1.47,0.78-2.22,1.18c-0.74-1.99-1.46-3.95-2.2-5.91
		c-0.11-0.29-0.12-0.82-0.6-0.65c-0.45,0.16-0.23,0.57-0.11,0.9c0.67,1.78,1.32,3.57,1.98,5.35c0.16,0.42,0.47,0.87,0.21,1.29
		c-1.5,2.41-0.75,5.09-0.94,7.65c-0.04,0.59,0.27,1.33-0.81,1.42c-0.65,0.05-0.39,0.72-0.4,1.12c-0.02,2.76-0.03,5.52,0,8.28
		c0.01,1.14-0.27,2.11-1.57,2.1c-1.3-0.01-1.54-0.98-1.52-2.12c0.05-2.71,0.05-5.42,0.02-8.13c0-0.46,0.34-1.28-0.58-1.25
		c-0.8,0.02-0.47,0.76-0.47,1.18c-0.03,2.76-0.03,5.52,0.01,8.28c0.01,1.16-0.26,2.08-1.58,2.05c-1.23-0.02-1.51-0.92-1.5-2
		c0.03-2.76-0.01-5.52,0.05-8.28c0.02-0.94-0.21-1.4-1.24-1.28c-3.84,0.42-4.27-1.25-2.99-4.37c1.48-3.61,2.78-7.3,4.12-10.97
		c0.13-0.35,0.63-0.94,0-1.16c-0.64-0.23-0.57,0.57-0.7,0.91c-0.89,2.28-1.71,4.59-2.56,6.9c-0.37,1.02-0.9,1.94-2.17,1.42
		c-1.18-0.48-0.93-1.47-0.57-2.43c1.54-4.13,3.03-8.28,4.59-12.4c0.79-2.1,2.68-3.26,5.09-3.25c2.41,0.01,4.27,1.19,5.07,3.29
		c0.77,2.01,1.48,4.04,2.22,6.06c0.16,0.43,0.32,0.84,0.21,1.31C39.97,25.57,40.42,26.68,41.41,27.73"/>
	<path style="fill:#E52336;" d="M46.5,32.97c-0.29,0.47-0.17,1.02-0.17,1.53c0,4.56,0.01,9.13,0.02,13.69c0,0.25,0.02,0.5,0,0.75
		c-0.05,0.85-0.38,1.51-1.34,1.46c-0.89-0.04-1.15-0.69-1.15-1.48c0-2.06,0.01-4.11,0.01-6.17c0-0.35,0-0.7-0.01-1.05
		c-0.01-0.3-0.03-0.68-0.43-0.65c-0.38,0.02-0.38,0.4-0.38,0.7c-0.01,0.9-0.01,1.81-0.01,2.71c0,1.45,0,2.91,0.01,4.36
		c0,0.83-0.19,1.57-1.17,1.58c-1.04,0.01-1.31-0.73-1.31-1.64c0.01-4.77,0.02-9.53,0.03-14.29c0-0.51,0.11-1.05-0.26-1.7
		c-0.45,0.58-0.33,1.08-0.33,1.53c-0.02,1.76-0.01,3.51-0.01,5.26c0,0.65-0.31,1.09-0.98,1.06c-0.59-0.02-0.84-0.47-0.84-1.05
		c0.01-2.41-0.12-4.82,0.08-7.22c0.23-2.83,2.42-4.21,5.97-4.03c2.6,0.13,4.43,1.91,4.5,4.5c0.06,2.16,0.01,4.31,0.02,6.47
		c0,0.65-0.08,1.3-0.86,1.33c-0.9,0.02-0.95-0.69-0.95-1.39c0.01-2.09,0-4.18,0-6.27C46.8,32.99,46.65,32.98,46.5,32.97"/>
	<path style="fill:#E52336;" d="M7.37,36.36c-0.84,1.84-1.54,3.36-2.24,4.88c-0.27,0.58-0.47,1.37-1.35,1.01
		c-0.91-0.37-0.47-1.06-0.21-1.64c1.06-2.37,2.15-4.74,3.21-7.12c0.58-1.3,1.62-1.86,2.98-1.87c1.37-0.02,2.45,0.53,3.03,1.8
		c1.11,2.41,2.18,4.83,3.27,7.25c0.25,0.56,0.57,1.19-0.18,1.56c-0.87,0.43-1.13-0.35-1.4-0.92c-0.71-1.52-1.39-3.06-2.16-4.76
		c-0.51,0.67-0.15,1.04,0,1.39c0.71,1.65,1.48,3.28,2.19,4.93c0.68,1.58,0.33,2.23-1.32,2.22c-1.11-0.01-1.39,0.39-1.3,1.4
		c0.08,0.84,0.02,1.7,0.05,2.56c0.02,0.71-0.09,1.39-0.97,1.37c-0.8-0.02-0.86-0.68-0.85-1.32c0.02-1.05,0.03-2.1,0.02-3.15
		c0-0.28,0.07-0.69-0.34-0.71c-0.41-0.02-0.4,0.38-0.4,0.67c0,1.06,0.03,2.11,0.04,3.16c0,0.62-0.01,1.3-0.84,1.34
		c-0.94,0.03-0.93-0.71-0.93-1.38c0-0.9-0.04-1.81,0.03-2.7c0.07-0.94-0.29-1.19-1.2-1.21c-1.83-0.04-2.16-0.66-1.4-2.39
		c0.82-1.88,1.65-3.75,2.47-5.63C7.62,37.01,7.54,36.9,7.37,36.36"/>
	<path style="fill:#E52336;" d="M37.03,8.24c-0.02,2.43-1.86,4.26-4.28,4.25c-2.45,0-4.43-1.98-4.39-4.37
		c0.04-2.35,1.98-4.25,4.35-4.26C35.21,3.86,37.05,5.73,37.03,8.24"/>
	<path style="fill:#E52336;" d="M23.77,5.81c-0.02,2.41-1.87,4.26-4.28,4.27c-2.44,0.01-4.43-1.95-4.41-4.34
		c0.02-2.34,1.97-4.27,4.33-4.28C21.9,1.45,23.79,3.34,23.77,5.81"/>
	<path style="fill:#E52336;" d="M46.12,24.97c0.04,1.47-1.16,2.73-2.6,2.74c-1.47,0.01-2.68-1.18-2.68-2.67
		c0-1.42,1.12-2.6,2.53-2.67C44.81,22.31,46.08,23.5,46.12,24.97"/>
	<path style="fill:#E52336;" d="M9.73,30.89c-1.42-0.03-2.57-1.23-2.53-2.64c0.03-1.4,1.25-2.56,2.65-2.53
		c1.39,0.02,2.51,1.22,2.49,2.66C12.32,29.82,11.18,30.92,9.73,30.89"/>
</g>
</svg>
