<?xml version="1.0" encoding="utf-8"?>
<!-- Generator: Adobe Illustrator 23.0.2, SVG Export Plug-In . SVG Version: 6.00 Build 0)  -->
<svg version="1.1" id="Layer_1" xmlns="http://www.w3.org/2000/svg" xmlns:xlink="http://www.w3.org/1999/xlink" x="0px" y="0px"
	 viewBox="0 0 52 52" style="enable-background:new 0 0 52 52;" xml:space="preserve">
<g>
	<path style="fill:#E63343;" d="M50.52,47.22c-0.39-0.4-1.26-0.14-1.91-0.11c-0.68,0.04-0.89-0.14-0.89-0.86
		c0.03-9.04,0.01-18.09,0.03-27.13c0-0.65-0.13-0.88-0.83-0.87c-2.34,0.05-4.69,0.05-7.03,0c-0.69-0.01-0.84,0.21-0.84,0.86
		c0.02,8.66,0.02,17.32,0.01,25.98c0,0.63,0.2,1.47-0.12,1.84c-0.38,0.44-1.24,0.08-1.89,0.16c-0.64,0.08-0.8-0.15-0.8-0.79
		c0.03-5.27,0.01-10.54,0.03-15.82c0-0.6-0.16-0.78-0.76-0.78c-2.34,0.03-4.69,0.04-7.03,0c-0.67-0.01-0.91,0.14-0.9,0.87
		c0.04,4.86,0.02,9.73,0.02,14.59c0,1.91,0,1.88-1.95,1.93c-0.72,0.02-0.87-0.21-0.86-0.89c0.02-7.13,0.01-14.26,0.03-21.4
		c0-0.68-0.18-0.84-0.85-0.83c-2.34,0.04-4.69,0.05-7.03,0c-0.72-0.02-0.82,0.22-0.82,0.86c0.02,6.75,0.02,13.5,0.01,20.25
		c0,0.63,0.27,1.45-0.11,1.84c-0.41,0.43-1.26,0.07-1.9,0.15c-0.65,0.08-0.8-0.16-0.8-0.79c0.03-4.33,0-8.66,0.03-12.99
		c0.01-0.61-0.18-0.77-0.77-0.76c-2.32,0.03-4.63,0.05-6.95,0c-0.74-0.02-0.99,0.14-0.98,0.94c0.05,4.3,0.01,8.61,0.03,12.91
		c0,0.52-0.12,0.73-0.67,0.69c-0.61-0.05-1.22,0.01-1.83-0.01c-0.33-0.01-0.45,0.11-0.44,0.44c0.02,0.56,0.05,1.13-0.01,1.68
		c-0.07,0.63,0.14,0.8,0.78,0.8c7.87-0.03,15.74-0.02,23.61-0.02c7.9,0,15.79-0.01,23.69,0.01c0.63,0,0.95-0.1,0.84-0.82
		C50.57,48.52,50.95,47.65,50.52,47.22 M10.47,46.67c0,0.34-0.12,0.47-0.44,0.43c-0.03,0-0.05,0-0.08,0
		c-0.76-0.01-1.74,0.26-2.22-0.12c-0.5-0.4-0.14-1.43-0.16-2.18c-0.03-1.17-0.01-2.34-0.01-3.51c0-1.73,0.02-3.46-0.01-5.19
		c-0.01-0.51,0.15-0.66,0.64-0.63c0.61,0.04,1.22,0.02,1.83,0c0.32-0.01,0.45,0.09,0.44,0.43C10.46,39.49,10.46,43.08,10.47,46.67
		 M21.18,47.1c-0.7-0.09-1.63,0.31-2.04-0.16c-0.34-0.41-0.11-1.31-0.11-1.99c-0.01-2.67,0-5.35,0-8.02c0-3.11,0.02-6.21-0.01-9.32
		c-0.01-0.59,0.16-0.76,0.72-0.7c0.55,0.05,1.12,0.03,1.68,0c0.4-0.02,0.53,0.11,0.52,0.52c-0.03,1.04-0.01,2.09-0.01,3.13
		c0,5.27-0.01,10.54,0.02,15.81C21.95,46.98,21.77,47.17,21.18,47.1 M33.39,39.92c0,2.19-0.01,4.37,0.01,6.56
		c0.01,0.51-0.15,0.66-0.64,0.63c-0.58-0.04-1.17-0.03-1.75,0c-0.39,0.02-0.53-0.1-0.53-0.51c0.01-4.5,0.01-9,0-13.5
		c0-0.4,0.13-0.53,0.52-0.51c0.76,0.04,1.72-0.24,2.22,0.13c0.5,0.36,0.14,1.37,0.16,2.1C33.41,36.51,33.39,38.21,33.39,39.92
		 M44.85,34.07c0,4.1-0.01,8.19,0.01,12.29c0.01,0.62-0.18,0.81-0.76,0.74c-0.7-0.08-1.63,0.31-2.04-0.16
		c-0.34-0.4-0.12-1.31-0.12-1.99c0-7.66,0.01-15.32-0.02-22.98c0-0.71,0.19-0.94,0.88-0.86c0.65,0.08,1.5-0.27,1.91,0.14
		c0.41,0.41,0.12,1.26,0.13,1.91C44.86,26.8,44.85,30.44,44.85,34.07"/>
	<path style="fill:#E63343;" d="M3.68,25.97c0.4,0.51,0.66,0.38,1.06-0.02c5.06-5.06,10.14-10.1,15.19-15.16
		c0.43-0.43,0.65-0.42,1.07,0.01c3.46,3.49,6.94,6.95,10.4,10.44c0.42,0.42,0.63,0.42,1.05,0c4.86-4.86,9.74-9.7,14.62-14.54
		c0.18-0.18,0.39-0.35,0.68-0.62c0,2.07,0.01,3.97-0.01,5.88c-0.01,0.45,0.09,0.65,0.59,0.61c0.56-0.04,1.12-0.05,1.68,0
		c0.57,0.05,0.66-0.18,0.65-0.69c-0.02-3.36-0.03-6.72,0.01-10.08c0.01-0.58-0.16-0.71-0.72-0.71c-2.93,0.03-5.86,0-8.78,0.02
		c-0.68,0.01-1.55-0.3-1.98,0.14c-0.39,0.41-0.05,1.26-0.13,1.92c-0.08,0.67,0.14,0.87,0.83,0.85c1.87-0.05,3.75-0.02,5.64-0.02
		c-0.04,0.3-0.23,0.4-0.37,0.54c-4.22,4.21-8.45,8.4-12.66,12.62c-0.45,0.45-0.68,0.45-1.13,0c-3.44-3.48-6.91-6.92-10.35-10.39
		c-0.45-0.46-0.67-0.43-1.12,0.01c-5.4,5.4-10.82,10.78-16.24,16.17c-0.49,0.49-1.32,0.97-1.34,1.48C2.32,25,3.25,25.41,3.68,25.97"
		/>
</g>
</svg>
