<?xml version="1.0" encoding="utf-8"?>
<!-- Generator: Adobe Illustrator 23.0.2, SVG Export Plug-In . SVG Version: 6.00 Build 0)  -->
<svg version="1.1" id="Layer_1" xmlns="http://www.w3.org/2000/svg" xmlns:xlink="http://www.w3.org/1999/xlink" x="0px" y="0px"
	 viewBox="0 0 512 512" style="enable-background:new 0 0 512 512;" xml:space="preserve">
<path style="fill:#E63343;" d="M8,201.26c1.78-7.62,3.05-15.36,5.48-22.82c3.71-11.41,9.27-22.15,24.59-23.39
	c15.32-1.24,24.57,7.89,28.51,19.11c8.72,24.9,15.63,50.36,22.72,75.72c3.52,12.52,5.8,25.34,9.24,40.73
	c17.88-18.87,37.66-17.42,56.65-11.32c38.11,12.24,73.25,29.31,100.19,57.06c29.61-28.57,66.12-47.76,107.84-58.72
	c16.67-4.39,33.53-3.89,48.07,12.09c2.86-10.35,5.32-18.67,7.44-27.06c6.59-25.85,12.7-51.8,19.84-77.53
	c1.89-6.8,6.08-13.42,10.63-19.23c12.76-16.35,34.05-14.84,43.53,3.31c3.94,7.56,5.18,16.28,7.53,24.5c0.9,3.13,1.42,6.35,2.13,9.54
	v47.4c-0.73,5.8-2.08,11.59-2.08,17.39c-0.01,32.24-10.99,60.59-35.87,84.24c-4.52,4.3-8.78,8.84-13.42,13.01
	c-23.78,21.4-47.92,42.47-71.37,64.15c-14.93,13.82-25.46,29.71-22.28,50.26H153.02c2.64-17.61-4.75-32.14-17.28-45.05
	c-4.55-4.7-8.97-9.55-13.88-13.96c-22.79-20.43-46.12-40.37-68.5-61.16c-23.89-22.18-41.9-47.13-42.19-79.71
	c-0.09-9.73-2.07-19.45-3.17-29.17V201.26z M172.49,376.91c-16.76-11.31-32.83-22.07-48.82-32.93c-9.33-6.34-18.99-12.37-27.75-19.3
	c-24.04-19.06-31.15-44.73-35.58-72.05c-3.55-21.85-10.3-43.29-15.63-64.92c-1.3,0.13-2.61,0.25-3.92,0.39
	c-0.66,2.37-1.89,4.75-1.89,7.11c0.07,26.93,0.58,53.84,0.48,80.76c-0.09,25.07,12.8,44.79,31.18,62.13
	c14.65,13.81,29.95,27.05,45.08,40.42c25.25,22.34,52.4,43.32,64.65,74.8h61.59v-11.05c0-19.74-0.27-39.49,0.07-59.23
	c0.3-17-6.9-31.3-21.03-41.62c-22.76-16.64-47.89-30.13-76.2-37.98c-5.86-1.62-12.38-1.26-18.6-1.8c-0.61,1.14-1.21,2.29-1.81,3.44
	c14,24.25,44.76,32.56,64.77,51.98C183.71,363.51,178.29,369.99,172.49,376.91 M330.15,453.48c9.1-24.89,28.74-43.02,48.61-60.99
	c22.42-20.28,45.99-39.67,66.82-61.19c10.39-10.75,20.16-24.81,22.51-38.44c4.6-26.79,4.1-54.32,5.06-81.54
	c0.28-7.68-1.69-15.41-2.62-23.11c-4.24,3.56-6.39,7.28-7.43,11.22c-4.66,17.85-10.06,35.63-13.16,53.72
	c-4.18,24.34-8.18,49.13-29.53,66.19c-25.77,20.58-53.88,38.77-81.3,58.22c-6.54-7.92-11.91-14.42-17.61-21.34
	c17.76-11.95,34.71-23.36,51.68-34.74c6.92-4.64,12.73-9.84,12.28-20.62c-8.57,1.36-17.48,1.03-24.39,4.19
	c-22.7,10.38-45.51,20.91-66.67,33.54c-16.88,10.06-25.31,25.74-24.45,44.87c0.66,14.45,0.13,28.93,0.13,43.4v26.63H330.15z"/>
<path style="fill:#E63343;" d="M326.6,35.4c19.14,4.37,37.5,9.99,52.88,21.95c44.82,34.89,48.18,95.12,6.48,132.98
	c-10.74,9.76-22.84,18.45-35.06,26.75c-31.75,21.58-63.92,42.68-96.67,64.48c-12.25-8.76-25.35-18.62-39.04-27.78
	c-23.74-15.89-48.36-30.76-71.61-47.17c-21.83-15.43-39.63-33.8-46.05-59.39C84.86,96.68,121.89,46.25,178.9,37.13
	c1.69-0.27,3.25-1.14,4.88-1.74h21.97c18.61,4.03,35.79,10.51,49.42,23.8c13.72-13.21,30.83-19.8,49.46-23.8H326.6z M254.83,248.26
	c21.41-14.09,42.83-27.84,63.8-42.13c15.99-10.9,32.6-21.43,46.84-34.05c25.56-22.64,28.08-55.84,8.27-82.01
	c-29.53-38.98-81.9-38.13-109.64,1.8c-2.82,4.04-5.71,8.03-8.96,12.59c-4.61-6.62-8.51-12.56-12.79-18.27
	c-8.42-11.22-19.17-19.75-34.16-23.3c-37-8.75-79.59,20.08-83.82,56.17c-3.28,27.94,10.66,48.6,33.75,64.69
	C189.91,205.91,222.66,226.89,254.83,248.26"/>
<polygon style="fill:#E63343;" points="241.05,166.11 213.09,166.11 213.09,140.63 240.59,140.63 240.59,114.73 269.17,114.73 
	269.17,140.02 297.51,140.02 297.51,165.84 270,165.84 270,191.34 241.05,191.34 "/>
</svg>
