<?xml version="1.0" encoding="utf-8"?>
<!-- Generator: Adobe Illustrator 23.0.2, SVG Export Plug-In . SVG Version: 6.00 Build 0)  -->
<svg version="1.1" id="Layer_1" xmlns="http://www.w3.org/2000/svg" xmlns:xlink="http://www.w3.org/1999/xlink" x="0px" y="0px"
	 viewBox="0 0 52 52" style="enable-background:new 0 0 52 52;" xml:space="preserve">
<g>
	<path style="fill:#E52336;" d="M47.72,47.18c-1.01-0.01-2.03-0.03-3.04,0.01c-0.53,0.02-0.7-0.12-0.7-0.68
		c0.03-2.51,0-5.02,0.02-7.53c0-0.63-0.21-1.04-0.85-1.11c-0.55-0.07-0.91,0.39-0.91,1.12c0,2.48-0.01,4.97,0.01,7.45
		c0.01,0.54-0.1,0.75-0.7,0.75c-9.09-0.02-18.18-0.02-27.27,0c-0.55,0-0.69-0.17-0.68-0.7c0.03-2.51,0.01-5.02,0.01-7.52
		c0-0.77-0.29-1.16-0.86-1.17c-0.59-0.01-0.89,0.39-0.89,1.2c0,2.1,0,4.2,0,6.29c0,1.92,0,1.9-1.93,1.9c-0.56,0-0.67-0.19-0.67-0.7
		c0.01-7.5,0.01-15,0-22.5c0-0.4,0.12-0.65,0.44-0.9c5.15-4.01,10.31-8.02,15.43-12.06c0.5-0.39,0.81-0.34,1.27,0.03
		c5.04,3.96,10.09,7.91,15.15,11.83c0.48,0.37,0.71,0.72,0.7,1.36c-0.05,2.56-0.02,5.11-0.01,7.67c0,0.6,0.39,1.06,0.89,1
		c0.53-0.07,0.88-0.36,0.86-0.96c0-0.22,0-0.44,0-0.65v-6.43c0.74,0.46,1.23,0.19,1.72-0.31c0.88-0.93,1.81-1.81,2.7-2.72
		c0.7-0.71,0.67-1.16-0.11-1.78c-1.5-1.18-2.99-2.36-4.51-3.51c-0.47-0.36-0.71-0.72-0.69-1.37c0.05-2.63,0.02-5.25,0.02-7.88
		c0-0.96-0.3-1.26-1.24-1.27c-1.52,0-3.04,0-4.56,0c-0.94,0.01-1.28,0.35-1.29,1.32c0,0.98,0,1.96,0,3.09
		c-0.27-0.19-0.41-0.29-0.54-0.39c-2.91-2.26-5.81-4.54-8.72-6.8c-0.96-0.75-1.08-0.75-2.06,0.01c-0.63,0.49-1.26,0.98-1.88,1.47
		C16.3,9.84,9.75,14.96,3.2,20.08c-0.75,0.59-0.79,1.05-0.13,1.73c0.88,0.89,1.78,1.76,2.65,2.67C6.23,25,6.73,25.4,7.47,24.9
		c0.02,0.08,0.04,0.11,0.04,0.13c0,7.21,0.01,14.42,0.02,21.63c0,0.43-0.17,0.53-0.55,0.52c-1.06-0.01-2.12-0.01-3.18,0
		c-0.75,0.01-1.16,0.33-1.18,0.88C2.6,48.66,3.03,49,3.81,49c14.64,0,29.27,0,43.91,0c0.76,0,1.16-0.3,1.19-0.87
		C48.94,47.55,48.5,47.19,47.72,47.18 M38.42,7.88c0.8,0.03,1.59,0.01,2.39,0.01c0.25,0,0.5-0.02,0.5,0.35c0,2.04,0,4.08,0,6.34
		c-1.17-0.91-2.17-1.7-3.17-2.47c-0.2-0.15-0.22-0.35-0.22-0.57c0-1.03,0.02-2.07,0-3.11C37.9,8.03,38,7.86,38.42,7.88 M7.41,22.6
		c-0.43,0.34-0.69,0.36-1.05-0.06c-0.43-0.51-1.31-1-1.29-1.46c0.03-0.56,0.94-0.9,1.49-1.32c6.2-4.85,12.42-9.69,18.61-14.56
		c0.44-0.34,0.7-0.37,1.15-0.01c6.6,5.17,13.2,10.33,19.81,15.49c0.15,0.12,0.29,0.23,0.44,0.35c-0.06,0.1-0.09,0.16-0.13,0.21
		c-0.53,0.53-1.05,1.06-1.59,1.58c-0.3,0.3-0.47-0.03-0.66-0.18c-4.58-3.57-9.16-7.14-13.73-10.71c-1.29-1-2.6-2-3.87-3.03
		c-0.58-0.48-1.06-0.49-1.66-0.01C19.11,13.47,13.25,18.02,7.41,22.6"/>
	<path style="fill:#E52336;" d="M34.09,22.38c-5.54,0-11.08,0-16.63,0c-0.98,0-1.26,0.28-1.26,1.23c0,5.59,0,11.19,0,16.78
		c0,0.93,0.28,1.22,1.19,1.22c5.57,0,11.13,0,16.7,0c0.95,0,1.22-0.29,1.22-1.27c0-2.77,0-5.54,0-8.31c0-2.8,0-5.59,0-8.39
		C35.32,22.68,35.04,22.38,34.09,22.38 M27.12,24.25c1.01,0.01,2.02,0,3.04,0c0.96,0,1.93,0.02,2.89-0.01
		c0.41-0.01,0.54,0.12,0.53,0.53c-0.02,1.93-0.01,3.86,0,5.78c0,0.36-0.09,0.51-0.48,0.5c-2-0.01-4-0.01-6,0
		c-0.34,0-0.46-0.11-0.46-0.45c0.01-1.98,0.01-3.96,0-5.93C26.63,24.31,26.8,24.25,27.12,24.25 M24.9,39.22
		c0,0.41-0.13,0.54-0.53,0.53c-0.99-0.03-1.98-0.01-2.97-0.01c-0.96,0-1.93-0.01-2.89,0.01c-0.38,0.01-0.56-0.07-0.56-0.51
		c0.02-1.93,0.02-3.86,0-5.78c0-0.41,0.13-0.53,0.53-0.53c1.95,0.02,3.9,0.01,5.86,0c0.38-0.01,0.56,0.06,0.56,0.5
		C24.87,35.37,24.87,37.29,24.9,39.22 M24.9,30.52c0.01,0.46-0.16,0.56-0.58,0.56c-0.99-0.03-1.97-0.01-2.96-0.01
		c-0.94,0-1.88-0.02-2.82,0.01c-0.43,0.01-0.59-0.09-0.58-0.56c0.03-1.9,0.03-3.81,0-5.72c0-0.46,0.16-0.56,0.58-0.56
		c1.93,0.02,3.86,0.02,5.78,0c0.43-0.01,0.59,0.09,0.58,0.56C24.87,26.71,24.87,28.61,24.9,30.52 M33.58,39.22
		c0,0.42-0.13,0.54-0.54,0.53c-0.99-0.02-1.97-0.01-2.96-0.01c-0.96,0-1.93-0.01-2.89,0.01c-0.38,0.01-0.56-0.07-0.56-0.51
		c0.02-1.93,0.02-3.86,0-5.78c0-0.42,0.13-0.53,0.54-0.53c1.95,0.02,3.9,0.01,5.86,0c0.38-0.01,0.56,0.07,0.55,0.51
		C33.55,35.37,33.56,37.3,33.58,39.22"/>
	<path style="fill:#E52336;" d="M43.1,34.7c-0.49,0.07-0.84,0.32-0.85,0.89c-0.01,0.6,0.34,0.88,0.87,0.94
		c0.48,0.06,0.89-0.41,0.88-0.92C43.99,35.1,43.57,34.64,43.1,34.7"/>
	<path style="fill:#E52336;" d="M11.87,35.13c0,0.56,0.31,0.84,0.82,0.89c0.51,0.06,0.91-0.34,0.93-1.01
		c-0.01-0.42-0.3-0.76-0.87-0.77C12.19,34.23,11.87,34.54,11.87,35.13"/>
</g>
</svg>
