<?xml version="1.0" encoding="utf-8"?>
<!-- Generator: Adobe Illustrator 23.0.2, SVG Export Plug-In . SVG Version: 6.00 Build 0)  -->
<svg version="1.1" id="Layer_1" xmlns="http://www.w3.org/2000/svg" xmlns:xlink="http://www.w3.org/1999/xlink" x="0px" y="0px"
	 viewBox="0 0 144 46" style="enable-background:new 0 0 144 46;" xml:space="preserve">
<path style="fill:#E63343;" d="M49.05,7.63L49.05,7.63L36.64,0.46c-0.19-0.11-0.43-0.11-0.61,0L25.5,6.61
	c-0.19,0.11-0.43,0.11-0.62,0L14.33,0.46c-0.19-0.11-0.42-0.11-0.61,0L1.31,7.63C1.11,7.74,1,7.94,1,8.16v22.93
	c0,0.22,0.11,0.42,0.3,0.53l23.6,13.71c0.19,0.11,0.43,0.11,0.62,0l23.53-13.71c0.19-0.11,0.31-0.31,0.31-0.53V8.16
	C49.36,7.94,49.24,7.74,49.05,7.63 M16.18,16.36L16.18,16.36l6.82-3.99c0.14-0.08,0.31,0.02,0.31,0.18v27.2
	c0,0.16-0.17,0.25-0.31,0.18l-6.82-3.96c-0.19-0.11-0.31-0.31-0.31-0.53V16.89C15.88,16.67,16,16.47,16.18,16.36 M27.33,12.34
	L27.33,12.34l6.84,3.99c0.19,0.11,0.31,0.31,0.31,0.53v18.6c0,0.22-0.12,0.42-0.31,0.53l-6.84,3.98c-0.14,0.08-0.31-0.02-0.31-0.18
	V12.52C27.03,12.36,27.2,12.26,27.33,12.34 M34.48,6.02L34.48,6.02v5.83c0,0.16-0.17,0.25-0.31,0.18l-4.99-2.91
	c-0.13-0.08-0.13-0.27,0-0.35l4.99-2.92C34.31,5.77,34.48,5.87,34.48,6.02 M15.88,11.88L15.88,11.88V6.02
	c0-0.16,0.17-0.25,0.31-0.18l5.02,2.93c0.14,0.08,0.14,0.27,0,0.35l-5.02,2.93C16.05,12.13,15.88,12.03,15.88,11.88 M5.02,9.78
	L5.02,9.78l6.84-3.95C12,5.75,12.16,5.85,12.16,6v27.27c0,0.16-0.17,0.25-0.31,0.18l-6.84-3.97c-0.19-0.11-0.3-0.31-0.3-0.53V10.3
	C4.71,10.09,4.83,9.89,5.02,9.78 M45.34,29.48l-6.84,3.98c-0.14,0.08-0.31-0.02-0.31-0.18V6c0-0.16,0.17-0.26,0.31-0.18l6.84,3.95
	c0.19,0.11,0.31,0.31,0.31,0.53v18.65C45.64,29.17,45.53,29.37,45.34,29.48"/>
<path style="fill:#E63343;" d="M92.48,34.03V3.76h6.49v24.6h12.8v5.67H92.48z M114.64,29.76l3.54-5.04
	c2.13,2.22,5.45,4.13,9.62,4.13c3.58,0,5.26-1.59,5.26-3.36c0-5.26-17.43-1.59-17.43-12.98c0-5.04,4.36-9.21,11.48-9.21
	c4.81,0,8.81,1.45,11.8,4.22l-3.58,4.81c-2.45-2.27-5.72-3.31-8.81-3.31c-2.72,0-4.27,1.18-4.27,3c0,4.76,17.38,1.54,17.38,12.84
	c0,5.54-3.99,9.71-12.12,9.71C121.67,34.57,117.5,32.62,114.64,29.76 M57.83,18.91c0-9.58,7.26-15.66,16.16-15.66
	c6.26,0,10.21,3.18,12.48,6.76l-5.31,2.9c-1.41-2.13-3.99-3.95-7.17-3.95c-5.54,0-9.53,4.22-9.53,9.94c0,5.72,3.99,9.94,9.53,9.94
	c2.68,0,5.17-1.18,6.4-2.32v-3.63H72.4v-5.63h14.43V28.9c-3.08,3.45-7.4,5.67-12.84,5.67C65.1,34.57,57.83,28.45,57.83,18.91"/>
</svg>
