<?xml version="1.0" encoding="utf-8"?>
<!-- Generator: Adobe Illustrator 23.0.2, SVG Export Plug-In . SVG Version: 6.00 Build 0)  -->
<svg version="1.1" id="Layer_1" xmlns="http://www.w3.org/2000/svg" xmlns:xlink="http://www.w3.org/1999/xlink" x="0px" y="0px"
	 viewBox="0 0 512 512" style="enable-background:new 0 0 512 512;" xml:space="preserve">
<path style="fill:#E52336;" d="M8.83,492.16c3.24-4.81,4.59-10.44,6.61-15.75c21.7-56.97,43.3-113.96,64.86-170.99
	c1.5-3.98,3.72-6.73,7.5-8.84c23.32-12.94,46.47-26.23,69.81-39.11c3.92-2.17,3.88-3.66,1.66-7.1
	c-7.87-12.14-15.83-24.25-22.97-36.81c-46.55-81.96,1.78-185.85,94.38-203.22C304.25-3.45,376.5,44.93,391.08,118.12
	c7.2,36.08,0.91,69.95-18.48,101.3c-6.41,10.39-12.88,20.77-19.62,30.96c-2.29,3.44-2.2,4.93,1.66,7.06
	c23.48,12.98,46.78,26.31,70.19,39.37c3.32,1.84,5.44,4.19,6.77,7.69c23.52,62.13,47.08,124.25,70.76,186.31
	c1.9,4.96,0.61,8.58-2.81,11.97h-5.8c-38.28-21.62-76.58-43.22-114.81-64.96c-2.71-1.54-4.45-0.53-6.57,0.67
	c-24.33,13.71-48.68,27.36-72.97,41.13c-13.51,7.62-26.94,15.43-40.39,23.16h-5.8c-0.61-0.46-1.15-1.05-1.8-1.42
	c-37.31-21.05-74.64-42.06-111.91-63.2c-2.59-1.48-4.51-1.25-7.02,0.16c-33.06,18.73-66.23,37.33-99.3,56.06
	c-4.67,2.65-9.81,4.55-13.75,8.39c-3.54,0-8.47,1.4-10.23-0.39C7.43,500.62,8.83,495.7,8.83,492.16 M133.26,136.66
	c-0.2,32.38,5.78,54,18.12,73.65c32.38,51.63,64.94,103.12,97.46,154.67c4.53,7.18,9.97,7.24,14.46,0.14
	c32.52-51.53,65.14-102.98,97.44-154.65c16.6-26.6,21.88-55.68,16.32-86.52C365.38,59.35,305.3,15.39,240.34,23.73
	C179.23,31.56,133.46,83.72,133.26,136.66 M161.61,272.28c-1.31,0.59-1.92,0.81-2.47,1.11c-20.71,11.67-41.4,23.4-62.17,34.97
	c-2.43,1.34-3.28,3.34-4.13,5.58c-20.22,53.25-40.45,106.49-60.63,159.78c-0.51,1.36-1.86,2.75-0.79,4.51
	c0.63-0.27,1.25-0.47,1.8-0.77c31.22-17.6,62.43-35.23,93.69-52.74c2.73-1.52,3.11-3.76,3.64-6.25
	c4.27-20.26,8.53-40.51,12.86-60.75c1.31-6.25,4.79-9.12,9.28-7.99c4.77,1.19,6.43,4.85,5.1,11.1
	c-4.19,19.62-8.27,39.26-12.58,58.85c-0.75,3.42,0.18,5.15,3.22,6.83c22.04,12.25,43.99,24.69,65.97,37.05
	c11.14,6.29,22.31,12.56,33.37,18.77c0.42-0.44,0.61-0.54,0.61-0.65c0.08-31.87,0.14-63.75,0.24-95.6c0-1.66-0.61-2.61-2.14-3.34
	c-4.71-2.18-7.75-6.08-10.46-10.37c-18.46-29.42-36.99-58.77-55.51-88.15c-1.33-2.12-2.75-4.21-4.17-6.37
	c-1.25,0.87-1.25,1.86-1.44,2.79c-3.36,15.85-6.67,31.71-10.11,47.54c-1.29,5.9-4.57,8.37-9.28,7.41
	c-4.43-0.91-6.27-4.92-5.02-10.74C154.17,307.61,157.79,290.38,161.61,272.28 M264.22,482.33c0.99-0.48,1.98-0.93,2.91-1.48
	c32.34-18.18,64.63-36.42,97.03-54.5c3.01-1.68,3.48-3.52,2.83-6.57c-8.39-39.19-16.68-78.4-25.04-117.62
	c-1.72-8.07-3.54-16.12-5.5-25.1c-1.48,2.22-2.39,3.54-3.22,4.87c-19.05,30.15-38.08,60.32-57.09,90.5
	c-2.35,3.7-4.73,7.52-8.82,9.33c-3.3,1.46-3.78,3.62-3.78,6.81c0.1,29.59,0.06,59.19,0.08,88.8
	C263.64,478.92,263.25,480.54,264.22,482.33 M351.1,272.8c-0.08,0.37-0.26,0.69-0.2,0.97c10.31,48.66,20.65,97.31,30.94,145.97
	c0.53,2.53,1.88,4.04,4.19,5.34c30.42,17.03,60.77,34.18,91.15,51.29c1.17,0.67,2.24,1.7,3.84,1.59c0.51-1.25-0.26-2.22-0.65-3.23
	c-20.41-53.86-40.85-107.69-61.2-161.58c-1.01-2.63-2.67-4.17-5-5.48c-19.78-11.06-39.5-22.2-59.25-33.31
	C353.73,273.71,352.7,272.54,351.1,272.8"/>
<path style="fill:#E52336;" d="M256.12,225.52c-44.07,0-79.92-35.76-79.92-79.68c-0.02-43.94,35.84-79.7,79.92-79.7
	c44.07,0,79.92,35.76,79.92,79.7C336.04,189.77,300.17,225.52,256.12,225.52 M191.18,145.84c0,35.94,29.14,65.2,64.94,65.2
	c35.79,0,64.94-29.26,64.94-65.2c-0.02-35.95-29.14-65.22-64.94-65.2C220.32,80.64,191.18,109.9,191.18,145.84"/>
<path style="fill:#E52336;" d="M255.95,95.14c28.13-0.04,51.16,22.83,51.1,50.76c-0.08,27.81-22.93,50.62-50.76,50.64
	c-28.13,0.04-51.18-22.85-51.1-50.76C205.25,117.97,228.12,95.16,255.95,95.14 M220.18,145.77c-0.02,20.03,16.16,36.32,36.02,36.26
	c19.72-0.04,35.75-16.1,35.86-35.92c0.12-20.08-15.81-36.36-35.75-36.48C236.41,109.51,220.2,125.75,220.18,145.77"/>
</svg>
