<?xml version="1.0" encoding="utf-8"?>
<!-- Generator: Adobe Illustrator 23.0.2, SVG Export Plug-In . SVG Version: 6.00 Build 0)  -->
<svg version="1.1" id="Layer_1" xmlns="http://www.w3.org/2000/svg" xmlns:xlink="http://www.w3.org/1999/xlink" x="0px" y="0px"
	 viewBox="0 0 52 52" style="enable-background:new 0 0 52 52;" xml:space="preserve">
<g>
	<path style="fill:#E63343;" d="M50.96,34.45c-0.26-1.68-1.46-2.91-3.18-3.25c-1-0.2-1.96,0.07-2.92,0.25
		c-0.66,0.12-0.92,0.02-0.91-0.75c0.04-4.32,0.02-8.64,0.02-12.96c0-1.02-0.17-1.18-1.22-1.18c-1.95,0-3.9-0.02-5.85,0.01
		c-0.57,0.01-0.75-0.12-0.74-0.71c0.04-2.22,0.02-4.45,0.01-6.67c0-0.87-0.2-1.06-1.1-1.07c-0.47,0-0.94-0.03-1.4,0.01
		c-0.47,0.04-0.69-0.1-0.62-0.59c0.03-0.18,0.01-0.36,0.01-0.54c0-1.84,0-1.86-1.85-1.94c-0.44-0.02-0.51-0.19-0.5-0.56
		c0.02-0.56,0.01-1.12,0-1.69C30.69,2.31,30.43,1.98,29.9,2c-0.5,0.02-0.74,0.34-0.74,0.82c-0.01,0.59-0.02,1.18,0,1.76
		c0.02,0.37-0.12,0.51-0.49,0.48c-0.23-0.02-0.47-0.01-0.7-0.01c-0.96,0.01-1.13,0.18-1.16,1.1c-0.02,0.63,0.28,1.45-0.13,1.84
		c-0.4,0.4-1.23,0.1-1.88,0.12c-0.93,0.03-1.11,0.2-1.11,1.15c0,2.22-0.02,4.45,0.01,6.67c0.01,0.5-0.15,0.64-0.65,0.64
		c-1.92-0.03-3.85-0.01-5.77-0.01c-1.28,0-1.39,0.1-1.39,1.33c0,3.17-0.01,6.34,0.01,9.51c0.01,0.53-0.13,0.71-0.69,0.69
		c-1.14-0.04-2.29-0.01-3.43-0.02c-0.18,0-0.48,0.01-0.51-0.06c-0.36-0.95-1.17-0.69-1.86-0.69c-0.46,0-0.58-0.15-0.55-0.57
		c0.05-0.67-0.31-0.98-0.99-0.98c-1.92,0.01-3.85,0.01-5.77,0c-0.56,0-1.02,0.16-1.01,0.78c0.01,0.63,0.48,0.76,1.03,0.76
		c1.48-0.01,2.97,0.03,4.44-0.02c0.64-0.02,0.76,0.2,0.75,0.78c-0.03,3.2-0.01,6.39-0.01,9.58c0,3.22-0.02,6.44,0.02,9.66
		c0.01,0.58-0.16,0.73-0.74,0.71C5.11,47.98,3.63,48.01,2.15,48C1.6,48,1.11,48.12,1.1,48.75c-0.02,0.68,0.49,0.8,1.07,0.8
		c1.87-0.01,3.74-0.02,5.61,0c0.74,0.01,1.16-0.27,1.08-1.03c-0.04-0.49,0.21-0.52,0.6-0.52c0.44,0,1.01,0.21,1.28-0.11
		c0.58-0.68,1.23-0.44,1.89-0.34c0.72,0.11,1.43,0.2,2.16,0.3c3.7,0.5,7.39,1.02,11.09,1.48c0.74,0.09,1.51,0.44,2.28,0.03
		c6.91-3.67,13.83-7.32,20.75-10.99C50.39,37.59,51.2,35.98,50.96,34.45 M9.28,46.48c-0.61,0.01-0.4-0.43-0.4-0.7
		c-0.01-2.71-0.01-5.41-0.01-8.12c0-2.71-0.01-5.42,0.01-8.12c0-0.27-0.21-0.71,0.4-0.7c0.55,0.01,0.36,0.41,0.36,0.66
		c0.01,5.44,0.01,10.88,0,16.32C9.65,46.07,9.84,46.46,9.28,46.48 M36.17,25.36c0-2.22,0.01-4.44-0.01-6.66
		c0-0.45,0.09-0.63,0.59-0.61c1.69,0.03,3.38,0.03,5.06,0c0.5-0.01,0.6,0.16,0.6,0.61c-0.02,4.16-0.02,8.33,0,12.49
		c0,0.52-0.2,0.65-0.66,0.71c-1.67,0.23-3.33,0.48-4.99,0.75c-0.5,0.08-0.62-0.06-0.61-0.54C36.18,29.86,36.17,27.61,36.17,25.36
		 M28.35,7.27c0.03-0.5,0.1-0.73,0.68-0.69c0.67,0.05,1.35,0.02,2.02,0.01c0.72-0.02,0.41,0.51,0.43,0.81
		c0.02,0.3,0.2,0.77-0.45,0.73c-0.39-0.03-0.77-0.01-1.16-0.01c-0.21,0-0.42-0.03-0.62,0.01C28.55,8.23,28.3,7.98,28.35,7.27
		 M25.82,9.65c2.73,0.02,5.46,0.02,8.18-0.01c0.55-0.01,0.62,0.21,0.62,0.67c-0.02,3.68-0.01,7.36-0.01,11.03
		c0,3.65-0.01,7.3,0.01,10.95c0.01,0.51-0.13,0.76-0.65,0.76c-0.08,0-0.16,0.02-0.23,0.04c-1,0.32-1.65,0.17-2.12-0.93
		c-0.46-1.1-1.58-1.56-2.74-1.79c-1.04-0.21-2.08-0.43-3.12-0.6c-0.4-0.06-0.51-0.2-0.51-0.58c0.01-6.33,0.01-12.67,0-19
		C25.24,9.76,25.39,9.65,25.82,9.65 M18.13,18.08c1.66,0.03,3.32,0.02,4.98,0.01c0.34,0,0.58,0,0.58,0.47
		c-0.02,3.57-0.01,7.14-0.01,10.82c-1.94-0.36-3.79-0.72-5.65-1.05c-0.47-0.08-0.6-0.3-0.6-0.76c0.02-2.94,0.02-5.87,0-8.81
		C17.44,18.21,17.59,18.07,18.13,18.08 M48.22,36.95c-2.59,1.41-5.19,2.78-7.8,4.16c-3.97,2.1-7.97,4.18-11.91,6.33
		c-0.79,0.43-1.53,0.51-2.36,0.39c-3.78-0.51-7.55-1.01-11.33-1.52c-1-0.14-2-0.35-3-0.43c-0.55-0.04-0.61-0.27-0.61-0.71
		c0.02-2.5,0.01-5.01,0.01-7.52c0-2.43,0.02-4.86-0.02-7.28c-0.01-0.66,0.21-0.74,0.83-0.79c3.86-0.27,7.58,0.57,11.31,1.32
		c1.88,0.38,3.76,0.71,5.63,1.13c1.4,0.31,2.1,1.76,1.56,3.06c-0.37,0.89-1.3,1.48-2.38,1.4c-3.03-0.21-6.06-0.46-9.08-0.69
		c-0.23-0.02-0.47-0.05-0.7-0.05c-0.52-0.02-0.88,0.21-0.9,0.73c-0.02,0.53,0.33,0.76,0.84,0.8c1.94,0.15,3.88,0.3,5.82,0.45
		c1.09,0.08,2.18,0.14,3.26,0.27c2.37,0.28,3.85-0.57,4.73-2.79c0.1-0.26,0.23-0.35,0.49-0.38c3.51-0.51,7.02-1.03,10.54-1.55
		c1.15-0.17,2.3-0.34,3.45-0.53c1.18-0.19,2.25,0.35,2.65,1.38C49.68,35.21,49.3,36.36,48.22,36.95"/>
	<path style="fill:#E63343;" d="M4.97,45.69c-0.01-0.49-0.32-0.71-0.79-0.76c-0.47,0.08-0.77,0.35-0.74,0.82
		c0.04,0.46,0.35,0.74,0.84,0.7C4.73,46.42,4.99,46.14,4.97,45.69"/>
	<path style="fill:#E63343;" d="M27.6,28.82c0.02,0.48,0.31,0.77,0.8,0.76c0.45-0.01,0.7-0.29,0.75-0.73
		c0.02-0.2,0.01-0.41,0.01-0.61c0-4.65,0-9.29,0-13.94c0-0.54,0.02-1.08-0.01-1.61c-0.03-0.44-0.3-0.71-0.75-0.72
		c-0.46-0.01-0.72,0.26-0.78,0.69c-0.03,0.2-0.01,0.41-0.01,0.61c0,2.5,0,5,0,7.51c0,2.14,0,4.29,0,6.43
		C27.59,27.75,27.57,28.29,27.6,28.82"/>
	<path style="fill:#E63343;" d="M30.71,20.78c0,2.5,0,5,0,7.51c0,0.18-0.01,0.36,0.01,0.54c0.05,0.48,0.32,0.77,0.81,0.75
		c0.45-0.01,0.7-0.3,0.74-0.74c0.02-0.2,0.01-0.41,0.01-0.61c0-4.98,0-9.96,0-14.94c0-0.23,0.02-0.47-0.02-0.69
		c-0.08-0.39-0.33-0.63-0.75-0.64c-0.42,0-0.68,0.23-0.77,0.63c-0.04,0.2-0.02,0.41-0.02,0.61C30.71,15.73,30.71,18.26,30.71,20.78"
		/>
	<path style="fill:#E63343;" d="M37.78,21.15c0.52,0.01,1.04,0,1.55,0c0.47,0,0.93,0.01,1.4,0c0.51,0,0.87-0.24,0.88-0.76
		c0.01-0.52-0.34-0.77-0.86-0.77c-0.98-0.01-1.97-0.01-2.95,0c-0.52,0.01-0.85,0.26-0.84,0.79C36.98,20.9,37.3,21.14,37.78,21.15"/>
	<path style="fill:#E63343;" d="M37.71,24.21c1.04,0.03,2.07,0.02,3.11,0.01c0.48-0.01,0.79-0.28,0.79-0.76
		c0-0.48-0.31-0.74-0.79-0.76c-0.49-0.02-0.98,0-1.48,0c-0.54,0-1.09-0.02-1.63,0.01c-0.45,0.02-0.73,0.28-0.75,0.72
		C36.94,23.91,37.24,24.2,37.71,24.21"/>
	<path style="fill:#E63343;" d="M40.79,28.83c-1.01-0.01-2.02-0.01-3.03,0c-0.48,0.01-0.8,0.26-0.8,0.74
		c-0.01,0.49,0.3,0.75,0.78,0.77c0.49,0.03,0.98,0.01,1.48,0.01c0.52,0,1.04,0.01,1.55,0c0.52-0.01,0.85-0.27,0.84-0.79
		C41.6,29.09,41.28,28.84,40.79,28.83"/>
	<path style="fill:#E63343;" d="M37.74,27.29c0.49,0.02,0.98,0.01,1.48,0.01c0.52,0,1.04,0.01,1.55,0c0.52-0.01,0.85-0.28,0.84-0.8
		c-0.01-0.48-0.34-0.73-0.82-0.73c-1.01-0.01-2.02-0.01-3.03,0c-0.48,0.01-0.79,0.27-0.8,0.75C36.96,27,37.26,27.26,37.74,27.29"/>
	<path style="fill:#E63343;" d="M19.07,21.15c1.01,0.01,2.02,0.01,3.03,0c0.48-0.01,0.8-0.27,0.8-0.75
		c0.01-0.53-0.33-0.77-0.85-0.77c-0.49-0.01-0.98,0-1.48,0c-0.49,0-0.98-0.01-1.48,0c-0.52,0.01-0.85,0.27-0.84,0.79
		C18.26,20.89,18.58,21.15,19.07,21.15"/>
	<path style="fill:#E63343;" d="M19.04,24.22c0.49,0.02,0.98,0.01,1.48,0.01v0c0.54,0,1.09,0.02,1.63-0.01
		c0.48-0.03,0.77-0.31,0.75-0.8c-0.02-0.44-0.31-0.71-0.75-0.72c-1.04-0.02-2.07-0.02-3.11,0c-0.48,0.01-0.79,0.28-0.79,0.76
		C18.25,23.94,18.56,24.2,19.04,24.22"/>
	<path style="fill:#E63343;" d="M22.08,25.76c-1.01-0.01-2.02-0.01-3.03,0c-0.48,0.01-0.79,0.27-0.8,0.75
		c-0.01,0.48,0.3,0.75,0.78,0.77c0.49,0.02,0.99,0.01,1.48,0.01c0.52,0,1.04,0.01,1.55,0c0.52-0.01,0.85-0.27,0.84-0.8
		C22.88,26.01,22.56,25.77,22.08,25.76"/>
</g>
</svg>
