<?xml version="1.0" encoding="utf-8"?>
<!-- Generator: Adobe Illustrator 23.0.2, SVG Export Plug-In . SVG Version: 6.00 Build 0)  -->
<svg version="1.1" id="Layer_1" xmlns="http://www.w3.org/2000/svg" xmlns:xlink="http://www.w3.org/1999/xlink" x="0px" y="0px"
	 viewBox="0 0 52 52" style="enable-background:new 0 0 52 52;" xml:space="preserve">
<g>
	<path style="fill:#E52336;" d="M49.75,47.93c-0.97,0.17-1.15-0.27-1.15-1.17c0.03-7.91,0.01-15.82,0.03-23.73
		c0-0.73-0.2-1.29-0.64-1.85c-1.51-1.92-3-3.88-4.5-5.82c-0.95-1.23-1.91-2.45-3.01-3.87c-0.03,0.49-0.06,0.71-0.06,0.93
		c0,2.97,0,5.94-0.01,8.91c0,0.53,0.01,0.92,0.74,0.92c0.77,0,0.72-0.42,0.71-0.93c-0.01-1.8,0-3.59,0-5.69
		c1.82,2.37,3.46,4.51,5.11,6.64c0.17,0.23,0.16,0.48,0.16,0.74c0,8.07,0,16.14,0,24.21c0,0.61-0.5,0.94-0.99,0.66
		c-0.4-0.23-0.21-0.64-0.21-0.96c-0.01-7.27-0.02-14.53,0-21.8c0-0.71-0.13-1.03-0.94-1.01c-2.75,0.05-5.49,0.04-8.23,0
		c-0.74-0.01-0.92,0.21-0.91,0.93c0.04,3.36,0,6.72,0.03,10.08c0,0.66-0.16,0.91-0.86,0.89c-1.52-0.05-3.04,0.04-4.55-0.04
		c-0.94-0.05-1.27,0.17-1.25,1.2c0.08,3.29,0.04,6.59,0.02,9.88c0,0.31,0.2,0.72-0.35,0.86c-1.15,0.29-1.58-0.02-1.58-1.19
		c0-8.62-0.01-17.24,0.02-25.86c0-0.86-0.22-1.09-1.08-1.07c-2.36,0.06-4.71,0.06-7.07,0c-0.88-0.03-1.13,0.22-1.12,1.11
		c0.03,8.69,0.01,17.37,0.03,26.05c0,0.76-0.19,1.08-0.96,0.95c-0.19-0.03-0.38,0-0.58,0c-1.41,0-1.41,0-1.41-1.44
		c0-14.05-0.01-28.09,0.03-42.14c0-1.02-0.29-1.22-1.24-1.19c-3,0.06-6.01,0.07-9.01-0.01c-1.04-0.03-1.2,0.31-1.2,1.25
		c0.03,14.14,0.01,28.28,0.03,42.43c0,0.86-0.18,1.25-1.1,1.11c-0.47-0.07-0.86-0.05-0.88,0.66c-0.02,0.75,0.38,0.74,0.9,0.74
		c15.69,0,31.38,0,47.07,0c0.47,0,0.86,0.06,0.87-0.66C50.64,47.94,50.29,47.84,49.75,47.93 M13.68,46.86
		c0,0.81-0.15,1.12-1.04,1.09c-2.16-0.07-4.33-0.04-6.49-0.01c-0.63,0.01-0.9-0.09-0.9-0.82c0.02-13.88,0.02-27.76,0-41.64
		c0-0.66,0.23-0.8,0.83-0.79c2.19,0.03,4.39,0.05,6.58-0.01c0.82-0.02,1.02,0.22,1.01,1.02c-0.03,6.88-0.02,13.75-0.02,20.63
		C13.67,33.16,13.65,40.01,13.68,46.86 M21.89,47.89C21.54,47.68,21.7,47.3,21.7,47c-0.01-3.68-0.01-7.36-0.01-11.03
		c0-3.55,0-7.09,0-10.64c0-0.32,0.01-0.65,0.03-0.97c0.03-0.51,0.4-0.75,0.83-0.8c0.45-0.04,0.82,0.2,0.94,0.67
		c0.08,0.31,0.1,0.63,0.1,0.95c0.01,7.26,0,14.51,0,21.77C23.59,47.8,22.62,48.33,21.89,47.89 M25.83,34.61c0,4.07,0,8.14,0,12.21
		c0,0.26,0,0.52-0.01,0.77c-0.01,0.24-0.15,0.32-0.38,0.32c-0.22,0-0.38-0.06-0.39-0.31c-0.01-0.26-0.01-0.52-0.01-0.78
		c0-7.36,0-14.72,0-22.09c0-1.08-0.4-1.89-1.35-2.38c-0.84-0.43-1.69-0.36-2.46,0.19c-0.8,0.58-1.05,1.4-1.04,2.37
		c0.01,7.27,0.01,14.53-0.01,21.8c0,0.39,0.27,1.11-0.28,1.12c-0.57,0-0.3-0.72-0.3-1.11c-0.02-8.17,0-16.34-0.03-24.51
		c0-0.79,0.19-1.07,1.01-1.03c1.45,0.07,2.91,0.06,4.36,0c0.72-0.03,0.93,0.18,0.93,0.92C25.81,26.28,25.83,30.45,25.83,34.61
		 M44.42,47.11c0,0.6-0.13,0.84-0.79,0.84c-4.07-0.03-8.14-0.03-12.21,0c-0.61,0-0.76-0.21-0.76-0.78c0.03-2.97,0.03-5.94,0-8.91
		c0-0.66,0.24-0.8,0.84-0.79c1.58,0.03,3.17-0.05,4.75,0.03c0.92,0.05,1.04-0.3,1.04-1.09c-0.04-3.26,0-6.53-0.04-9.79
		c-0.01-0.74,0.17-1.01,0.96-0.98c1.77,0.06,3.55,0.06,5.33,0c0.77-0.03,0.89,0.25,0.89,0.94c-0.03,3.42-0.02,6.85-0.02,10.27
		C44.41,40.26,44.39,43.68,44.42,47.11"/>
	<path style="fill:#E52336;" d="M31.03,33.74c0,0.57,0.07,0.87,0.76,0.87c0.82,0,0.66-0.51,0.66-0.97c0-7.33,0.01-14.66-0.01-21.98
		c0-0.77,0.15-1.11,1-1.05c1,0.07,2,0.06,3,0c0.78-0.05,0.97,0.23,0.97,0.98c-0.04,3.29,0,6.58-0.03,9.88c0,0.58,0.14,0.8,0.76,0.79
		c0.58-0.01,0.69-0.24,0.69-0.76c-0.01-3.87-0.02-7.75,0-11.62c0-0.56-0.19-0.71-0.73-0.71c-2,0.03-4,0.05-6.01-0.01
		c-0.83-0.03-1.1,0.16-1.08,1.05c0.05,3.87,0.02,7.75,0.02,11.62C31.04,25.8,31.05,29.77,31.03,33.74"/>
	<path style="fill:#E52336;" d="M22.66,10.55c0.47,0,0.81-0.01,0.79-0.65c-0.04-0.94-0.01-1.87-0.01-2.81c0-0.97-0.03-1.94,0.01-2.9
		c0.03-0.62-0.29-0.67-0.77-0.66c-0.42,0.01-0.74,0-0.73,0.59c0.03,1.93,0.03,3.87,0,5.8C21.94,10.5,22.22,10.55,22.66,10.55"/>
	<path style="fill:#E52336;" d="M19.51,18.57c1.06-0.03,2.13-0.01,3.2-0.01c1.07,0,2.13-0.02,3.2,0.01
		c0.56,0.02,0.71-0.21,0.71-0.74c0-0.52-0.12-0.74-0.7-0.73c-2.13,0.03-4.26,0.03-6.39,0c-0.56,0-0.72,0.18-0.71,0.72
		C18.82,18.34,18.93,18.59,19.51,18.57"/>
	<path style="fill:#E52336;" d="M20.76,16c1.29-0.02,2.58-0.02,3.87,0c0.52,0.01,0.76-0.11,0.76-0.69
		c-0.01-0.54-0.16-0.76-0.72-0.72c-0.64,0.04-1.29,0.01-1.94,0.01c-0.65,0-1.29,0.03-1.94-0.01c-0.56-0.03-0.82,0.09-0.8,0.73
		C20.01,15.91,20.26,16.01,20.76,16"/>
	<path style="fill:#E52336;" d="M22.09,13.6c0.73-0.2,1.77,0.6,2.17-0.45c0.35-0.9,0.07-1.05-1.36-1.05c-1.68,0-1.64,0-1.59,0.99
		C21.33,13.71,21.74,13.7,22.09,13.6"/>
	<path style="fill:#E52336;" d="M34.92,22.57c0.9,0.01,0.76-0.52,0.76-1.05c0-0.23-0.03-0.45,0-0.67c0.1-0.69-0.21-0.85-0.86-0.84
		c-1.01,0.02-0.48,0.76-0.63,1.12c0,0.15-0.01,0.25,0,0.35C34.23,21.96,33.97,22.56,34.92,22.57"/>
	<path style="fill:#E52336;" d="M35.2,13.62c0.32,0.04,0.75,0.07,0.77-0.73c0.02-0.86-0.46-0.8-1.03-0.79
		c-0.56,0-1.03-0.09-1.03,0.79C33.91,13.81,34.47,13.6,35.2,13.62"/>
	<path style="fill:#E52336;" d="M35.97,17.79c-0.01-0.81-0.48-0.7-0.94-0.67c-0.47,0.03-1.11-0.29-1.11,0.69
		c0,0.84,0.45,0.77,1.02,0.74C35.44,18.57,35.98,18.7,35.97,17.79"/>
	<path style="fill:#E52336;" d="M34.9,16.41c0.52,0,1.09,0.18,1.07-0.75c-0.02-0.87-0.57-0.65-1.04-0.68
		c-0.47,0.03-1.01-0.19-1.01,0.69C33.91,16.53,34.39,16.42,34.9,16.41"/>
	<path style="fill:#E52336;" d="M11.36,30.14c-1.26,0.03-2.51,0.03-3.77,0c-0.52-0.01-0.75,0.14-0.74,0.71
		c0.02,2.45,0.02,4.9,0,7.34c0,0.51,0.18,0.67,0.67,0.66c1.29-0.02,2.58-0.03,3.86,0c0.59,0.02,0.7-0.23,0.68-0.74
		c-0.03-1.19-0.01-2.38-0.01-3.58c0-1.22-0.02-2.45,0.01-3.67C12.08,30.34,11.92,30.13,11.36,30.14 M9.98,37.43
		c-0.29-0.02-0.58-0.03-0.87,0c-0.57,0.07-0.82-0.13-0.78-0.74c0.04-0.74,0.01-1.48,0.01-2.22c0-0.45,0-0.9,0-1.35
		c0-1.5,0.37-1.78,1.86-1.48c0.36,0.07,0.39,0.27,0.39,0.54c0,1.54,0,3.09,0,4.63C10.6,37.24,10.45,37.47,9.98,37.43"/>
	<path style="fill:#E52336;" d="M7.82,19.44c0.51-0.02,1.03,0,1.54,0c0.58,0,1.16-0.02,1.73,0c0.58,0.03,0.96-0.01,0.95-0.78
		c-0.01-0.72-0.36-0.76-0.9-0.75c-1.09,0.02-2.18,0.03-3.27,0c-0.59-0.02-0.95,0.04-0.94,0.8C6.93,19.45,7.3,19.47,7.82,19.44"/>
	<path style="fill:#E52336;" d="M11.21,43.09c-0.55,0.03-1.09,0-1.64,0.01c-0.64,0-1.29,0.03-1.93-0.01
		c-0.58-0.03-0.7,0.23-0.7,0.75c0.01,0.47,0.05,0.8,0.66,0.78c1.19-0.03,2.39-0.03,3.58,0c0.6,0.02,0.86-0.13,0.86-0.8
		C12.03,43.17,11.75,43.06,11.21,43.09"/>
	<path style="fill:#E52336;" d="M7.79,7.82c0.54-0.03,1.09-0.01,1.63-0.01c0.64,0,1.29-0.03,1.92,0.01c0.6,0.04,0.68-0.26,0.68-0.76
		c-0.01-0.47-0.05-0.8-0.66-0.78c-1.18,0.04-2.37,0.03-3.56,0C7.24,6.27,6.93,6.36,6.93,7.05C6.93,7.74,7.22,7.85,7.79,7.82"/>
	<path style="fill:#E52336;" d="M7.75,13.63c0.55-0.03,1.1-0.01,1.65-0.01c0.64,0,1.29-0.03,1.94,0.01c0.59,0.04,0.7-0.25,0.69-0.76
		c0-0.48-0.06-0.8-0.67-0.78c-1.2,0.04-2.39,0.04-3.58,0c-0.63-0.02-0.85,0.16-0.84,0.81C6.93,13.55,7.21,13.66,7.75,13.63"/>
	<path style="fill:#E52336;" d="M9.52,25.25c0.61,0,1.22-0.03,1.83,0.01c0.6,0.04,0.68-0.27,0.67-0.76c0-0.48-0.05-0.8-0.66-0.78
		c-1.25,0.04-2.5,0.04-3.75,0c-0.6-0.02-0.67,0.29-0.67,0.77c0,0.47,0.04,0.81,0.66,0.77C8.24,25.21,8.88,25.25,9.52,25.25"/>
	<path style="fill:#E52336;" d="M11.33,20.8c-0.61,0.04-1.22,0.01-1.84,0.01s-1.22,0.03-1.84-0.01c-0.54-0.03-0.73,0.16-0.73,0.71
		c0.01,0.51,0.11,0.77,0.69,0.76c1.22-0.03,2.45-0.03,3.67,0c0.54,0.01,0.74-0.17,0.73-0.72C12.02,21.03,11.92,20.76,11.33,20.8"/>
	<path style="fill:#E52336;" d="M11.36,9.17c-1.19,0.03-2.38,0.02-3.57,0C7.3,9.16,6.94,9.16,6.93,9.85
		c-0.01,0.69,0.29,0.81,0.87,0.78c0.54-0.03,1.09-0.01,1.63-0.01c0.64,0,1.29-0.03,1.93,0c0.6,0.03,0.66-0.3,0.67-0.78
		C12.03,9.34,11.86,9.16,11.36,9.17"/>
	<path style="fill:#E52336;" d="M7.79,28.06c0.54-0.03,1.09-0.01,1.64-0.01c0.64,0,1.29-0.03,1.92,0.01
		c0.6,0.03,0.67-0.29,0.67-0.78c0-0.5-0.16-0.68-0.67-0.67c-1.18,0.03-2.37,0.01-3.56,0c-0.48,0-0.86-0.02-0.87,0.67
		C6.92,27.97,7.22,28.09,7.79,28.06"/>
	<path style="fill:#E52336;" d="M11.23,45.98c-1.16,0.03-2.33,0.03-3.48,0c-0.55-0.02-0.81,0.09-0.81,0.73
		c0,0.69,0.36,0.7,0.86,0.68c0.55-0.02,1.1,0,1.64,0c0.61,0,1.23-0.02,1.84,0.01c0.5,0.02,0.76-0.08,0.77-0.68
		C12.04,46.08,11.78,45.97,11.23,45.98"/>
	<path style="fill:#E52336;" d="M7.74,41.59c0.58-0.03,1.15-0.01,1.73-0.01c0.61,0,1.22-0.02,1.83,0.01
		c0.52,0.03,0.74-0.14,0.73-0.7c0-0.53-0.16-0.74-0.71-0.72c-1.18,0.03-2.37,0.03-3.56,0c-0.51-0.01-0.83,0.04-0.83,0.7
		C6.93,41.5,7.2,41.62,7.74,41.59"/>
	<path style="fill:#E52336;" d="M7.65,16.42c1.18-0.03,2.37-0.02,3.56,0c0.52,0.01,0.83-0.07,0.83-0.72c0-0.65-0.29-0.75-0.82-0.72
		c-0.58,0.03-1.15,0-1.73,0c-0.61,0-1.22,0.03-1.83-0.01c-0.56-0.03-0.72,0.18-0.72,0.72C6.94,16.22,7.09,16.43,7.65,16.42"/>
	<path style="fill:#E52336;" d="M38.02,36.79c0,0.46,0.07,0.71,0.63,0.7c1.42-0.03,2.84-0.03,4.26,0c0.49,0.01,0.59-0.21,0.59-0.64
		c-0.01-3.19-0.02-6.39,0-9.58c0-0.51-0.17-0.67-0.67-0.66c-1.35,0.03-2.71,0.04-4.06,0c-0.63-0.02-0.75,0.24-0.74,0.8
		c0.03,1.52,0.01,3.03,0.01,4.55C38.03,33.56,38.04,35.18,38.02,36.79 M40.39,28.03c1.69,0.01,1.69-0.02,1.69,1.68v2.33
		c0,1.13-0.02,2.26,0,3.39c0.01,0.45-0.14,0.6-0.61,0.63c-1.94,0.13-1.94,0.15-1.94-1.82c0-1.77,0.03-3.55-0.01-5.32
		C39.51,28.25,39.7,28.02,40.39,28.03"/>
	<path style="fill:#E52336;" d="M39.54,38.62c-1.09,0.04-2.19,0.01-3.28,0.01c-1.09,0-2.19,0.03-3.27-0.01
		c-0.56-0.02-0.81,0.12-0.79,0.74c0.02,0.54,0.1,0.82,0.74,0.8c2.22-0.03,4.44-0.03,6.65,0c0.63,0.01,0.72-0.26,0.74-0.8
		C40.35,38.74,40.11,38.6,39.54,38.62"/>
	<path style="fill:#E52336;" d="M39.56,40.94c-1.09,0.02-2.19,0.01-3.28,0.01c-1.12,0-2.25,0.02-3.37-0.01
		c-0.56-0.02-0.72,0.18-0.7,0.72c0.02,0.48,0.06,0.79,0.66,0.79c2.25-0.03,4.5-0.03,6.75,0c0.67,0.01,0.68-0.34,0.71-0.84
		C40.36,40.98,40.04,40.93,39.56,40.94"/>
	<path style="fill:#E52336;" d="M39.7,45.57c-2.29,0.02-4.58,0.02-6.87,0c-0.55,0-0.63,0.25-0.62,0.71c0,0.45,0.07,0.73,0.62,0.71
		c1.13-0.03,2.26-0.01,3.39-0.01c1.16,0,2.32-0.02,3.48,0.01c0.56,0.01,0.63-0.26,0.63-0.71C40.32,45.82,40.25,45.57,39.7,45.57"/>
	<path style="fill:#E52336;" d="M39.65,43.26c-2.25,0.02-4.5,0.03-6.75,0c-0.57,0-0.7,0.21-0.7,0.73c0,0.55,0.18,0.73,0.72,0.72
		c1.09-0.03,2.19-0.01,3.28-0.01c1.16,0,2.32-0.03,3.47,0.01c0.63,0.02,0.63-0.32,0.65-0.79C40.35,43.39,40.14,43.25,39.65,43.26"/>
	<path style="fill:#E52336;" d="M42.4,38.64c-0.52-0.09-0.97-0.1-0.97,0.77c0,0.83,0.47,0.76,1,0.74c0.52-0.02,1.08,0.18,1.09-0.75
		C43.52,38.52,43.03,38.59,42.4,38.64"/>
	<path style="fill:#E52336;" d="M42.5,40.94c-0.49,0.04-1.08-0.22-1.08,0.72c0,0.91,0.53,0.75,1.06,0.77
		c0.57,0.02,1.03,0.05,1.03-0.8C43.51,40.76,42.98,40.97,42.5,40.94"/>
	<path style="fill:#E52336;" d="M42.56,45.59c-0.46,0.04-1.12-0.31-1.13,0.67c-0.01,0.85,0.49,0.73,1.14,0.71
		c0.35-0.02,0.96,0.22,0.94-0.72C43.49,45.46,43.03,45.55,42.56,45.59"/>
	<path style="fill:#E52336;" d="M42.31,43.28c-0.3,0.04-0.87-0.23-0.88,0.66c-0.01,0.91,0.53,0.77,1.05,0.75
		c0.47-0.01,1.01,0.19,1.03-0.68C43.53,43.1,42.99,43.26,42.31,43.28"/>
</g>
</svg>
