<?xml version="1.0" encoding="utf-8"?>
<!-- Generator: Adobe Illustrator 23.0.2, SVG Export Plug-In . SVG Version: 6.00 Build 0)  -->
<svg version="1.1" id="Layer_1" xmlns="http://www.w3.org/2000/svg" xmlns:xlink="http://www.w3.org/1999/xlink" x="0px" y="0px"
	 viewBox="0 0 512 512" style="enable-background:new 0 0 512 512;" xml:space="preserve">
<path style="fill:#E52336;" d="M282.1,502.83c-3.51-2.28-5.97-5.18-4.43-9.59c1.53-4.37,5.24-4.92,9.41-4.9
	c30.96,0.08,61.94,0.04,92.9,0.06c2.24,0,4.25,0.18,5.85-2.2c22.62-33.72,41.3-69.28,51.03-109c1.45-5.89,2.28-11.93,3.25-17.92
	c0.91-5.6,4.37-8.97,8.71-8.2c4.58,0.78,6.67,4.64,5.87,10.27c-6.33,44.55-25.58,83.87-49.12,121.46c-1.01,1.59-1.98,3.2-3.23,5.28
	c8.73,0,16.99,0.44,25.2-0.16c6.15-0.44,10.54-4.53,13.16-10.06c16.97-35.57,30.07-72.34,34.18-111.86
	c2.92-28.3,1.05-56.03-10.3-82.5c-13.06-30.5-35.84-51.78-64.36-67.69c-20.16-11.24-42.23-17.43-63.81-24.93
	c-23.8-8.25-47.02-17.78-67.62-32.69c-2.72-1.98-5.34-4.09-7.86-6.33c-15.44-13.75-24.53-29.85-18.24-52.1
	c-9.7,13.78-9.72,30.11-0.46,43.96c7.38,11.02,17.66,18.95,28.64,25.98c21.87,13.99,45.92,23.22,70.24,31.78
	c27.9,9.82,53.96,22.84,75.71,43.4c21.53,20.36,34.25,45.25,38.4,74.54c1.07,7.64-0.69,11.43-5.64,12.36
	c-4.92,0.91-7.76-2-8.85-9.82c-5.3-38.48-27.05-65.53-59.1-85.52c-17.92-11.19-37.61-18.31-57.34-25.46
	c-26.4-9.57-52.08-20.7-74.5-38.15c-5.85-4.54-11.17-9.65-15.8-15.42c-16.02-19.87-17.74-41.64-5.04-63.91
	c9.41-16.49,23.22-28.91,38.03-40.31c12.6-9.72,26.14-17.98,39.93-25.84c1.33-0.75,2.96-1.09,4.05-2.86
	c-14.35-0.55-27.98-0.36-41.2,6.45C235.5,48.6,201.98,67.32,171.7,91.32c-16.02,12.7-31.02,26.49-41.84,44.13
	c-17.03,27.73-13.36,53.43,10.58,75.59c7.94,7.33,16.75,13.44,25.88,19.13c14.63,9.13,28.24,19.55,39.53,32.67
	c25.9,30.03,29.51,63.19,13.18,98.83c-11.35,24.73-28.66,45.09-47.87,63.96c-22.51,22.11-47.53,41.07-73.61,58.71
	c-1.53,1.05-3.08,2.12-4.47,4.05h5.02c49.72,0,99.47,0.02,149.21-0.02c4.13,0,8.22-0.18,10.22,4.39c1.89,4.3-0.81,7.2-3.37,10.08
	H31.76c-3.93-2.46-7.66-5.08-9.45-9.65c-3.14-7.98-0.56-15.82,7.28-20.7c20.44-12.66,40.74-25.56,60.07-39.89
	c25.84-19.15,50.53-39.57,69.84-65.67c8.95-12.08,16.12-25.12,18.52-40.17c2.98-18.59-3.55-34.33-15.66-48.11
	c-8.53-9.72-18.66-17.52-29.63-24.33c-12.84-7.98-25.05-16.73-35.25-28.04c-21.61-23.95-24.83-51.56-9.17-79.74
	c9.82-17.66,23.8-31.71,39.12-44.58c17.86-14.99,37.35-27.57,57.32-39.52c26.24-15.7,52.24-31.81,79.82-45.19
	c10-4.84,20.22-7.64,31.4-7.44c16.04,0.28,32.09,0.06,48.13,0.08c7.09,0,10.76,2.5,12.23,8.31c1.49,5.85-0.79,10.36-7.14,13.52
	c-19.39,9.62-38.4,19.9-56.07,32.43c-10.76,7.62-20.88,15.98-28.96,26.56c-12.66,16.55-11.81,32.07,2.9,46.82
	c11.85,11.89,26.52,19.47,41.48,26.55c21.91,10.36,45.35,16.53,67.95,24.95c34.1,12.72,64.12,31.42,85.97,61.37
	c16.17,22.13,24.89,47.1,27.57,74.26c4.33,44.16-5.84,85.86-21.67,126.58c-3.35,8.65-7.54,16.97-10.9,25.59
	c-4.9,12.6-12.74,22.03-26.12,26H282.1z M109.14,141.11c-2.6,4.02-5.42,7.92-7.76,12.1c-12.7,22.58-10.66,42.79,6.21,62.49
	c9.76,11.37,22.17,19.33,34.63,27.27c12.52,7.98,24.09,17.09,33.46,28.7c13.24,16.41,20.08,34.73,16.93,56.18
	c-2.78,18.97-11.65,35.09-22.96,50.07c-19.35,25.62-43.72,45.92-69.26,64.93C80.82,457.38,60.36,470.6,39.7,483.5
	c-1.51,0.93-4.35,1.43-3.63,3.75c0.73,2.22,3.41,1.05,5.18,1.09c6.59,0.12,13.16,0,19.73,0.08c2,0.02,3.73-0.36,5.44-1.43
	c33.78-21.11,66.35-43.86,95.08-71.68c17.13-16.59,32.59-34.51,42.97-56.25c13.69-28.66,13.04-56.32-6.63-82.3
	c-11.11-14.67-25.48-25.62-40.98-35.23c-12.34-7.62-23.91-16.18-33.56-27.11c-13.89-15.72-21.63-33.54-18.36-55.03
	C105.89,153.22,107.93,147.36,109.14,141.11"/>
<path style="fill:#E52336;" d="M328.61,328.24c0-1.75-0.08-3.5,0.02-5.26c0.22-4.39,3.06-7.53,6.93-7.8
	c3.81-0.28,7.4,2.56,7.76,6.89c0.36,4.27,0.3,8.63-0.14,12.88c-0.44,4.19-3.25,6.55-7.5,6.61c-3.85,0.04-6.87-3.29-7.14-7.58
	c-0.1-1.91-0.02-3.83-0.02-5.75H328.61z"/>
<path style="fill:#E52336;" d="M161.54,149.85c0.16-2.66,0.36-5.18,2.08-7.29c1.89-2.34,4.43-3.21,7.28-2.54
	c3.04,0.68,5.08,2.7,5.48,5.87c0.56,4.27,1.19,8.54,1.23,12.84c0.04,3.65-1.9,6.45-5.79,7.1c-3.93,0.64-7.14-0.73-8.24-4.74
	C162.56,157.43,162.2,153.6,161.54,149.85"/>
<path style="fill:#E52336;" d="M304.2,414.18c0.08,1.72-0.56,3.19-1.63,4.42c-2.68,3.14-5.34,6.35-8.26,9.29
	c-3.12,3.12-7.32,3.08-10.26,0.26c-2.7-2.58-3.02-6.85-0.48-9.97c2.62-3.23,5.36-6.35,8.3-9.28c2.16-2.16,4.86-2.92,7.88-1.47
	C302.65,408.8,304.06,411.04,304.2,414.18"/>
<path style="fill:#E52336;" d="M320.42,389.39c-6.21-0.16-9.49-5.22-7.3-10.24c1.65-3.77,3.63-7.44,5.79-10.96
	c2.06-3.31,5.08-4.78,8.99-3.11c3.85,1.65,5.3,4.82,4.17,8.57c-1.49,4.86-4.05,9.33-7.07,13.44
	C323.71,388.87,321.67,389.51,320.42,389.39"/>
<path style="fill:#E52336;" d="M231.74,214.95c5.1,2.12,11,4.28,15.36,8.85c2.28,2.4,1.87,5.74-0.18,8.4
	c-2.06,2.62-4.96,3.83-8.08,2.44c-4.21-1.89-8.32-4.07-12.23-6.51c-2.78-1.73-3.93-4.66-2.82-7.94
	C224.93,216.85,227.34,215.01,231.74,214.95"/>
<path style="fill:#E52336;" d="M277.24,237.9c5.3,2.12,11.53,4.62,15.58,10.22c1.96,2.66,1.05,5.85-1.35,8.24
	c-2.44,2.44-5.46,2.77-8.36,1.27c-3.81-1.95-7.5-4.19-11.03-6.65c-2.66-1.87-3.77-4.64-2.66-7.98
	C270.49,239.74,272.75,238.11,277.24,237.9"/>
<path style="fill:#E52336;" d="M316.44,269.09c0.28,0.06,0.93,0.16,1.53,0.34c3.81,1.07,12.5,12.15,12.56,16.17
	c0.06,3.18-1.29,5.72-4.27,6.87c-2.84,1.13-5.87,1.05-7.98-1.47c-2.96-3.57-5.97-7.17-8.34-11.13
	C307.12,275.2,310.75,269.22,316.44,269.09"/>
<path style="fill:#E52336;" d="M189.91,185.1c2.08-0.14,3.71,0.79,5.14,2.12c2.7,2.49,5.42,4.94,8,7.53
	c3.37,3.39,3.49,7.52,0.48,10.6c-2.72,2.82-6.95,2.98-10.3,0.12c-3.14-2.7-6.19-5.53-9.03-8.53c-2.14-2.3-2.36-5.24-0.91-8.02
	C184.63,186.35,186.86,184.94,189.91,185.1"/>
<path style="fill:#E52336;" d="M190.18,94.59c3.14-0.04,5.22,1.33,6.51,3.73c1.39,2.58,1.35,5.32-0.4,7.66
	c-2.6,3.44-5.26,6.83-8.18,9.97c-2.58,2.79-5.91,3.16-9.09,1.03c-2.9-1.95-4.43-4.92-2.84-8.26c2.46-5.2,6.21-9.56,10.66-13.24
	C187.86,94.64,189.19,94.53,190.18,94.59"/>
<path style="fill:#E52336;" d="M232.42,73.52c-0.02,4.22-7.3,10.4-12.19,10.38c-3.87-0.02-7.36-3.53-7.34-7.4
	c0-4.11,7.4-10.34,12.28-10.36C229.11,66.14,232.44,69.52,232.42,73.52"/>
<path style="fill:#E52336;" d="M260.65,442.74c4.82,0.12,8.12,4.68,6.81,9.35c-0.93,3.31-7.74,8.61-11.23,8.73
	c-4.51,0.18-8.38-4.11-7.56-8.4C249.46,448.4,256.58,442.64,260.65,442.74"/>
</svg>
