<?xml version="1.0" encoding="utf-8"?>
<!-- Generator: Adobe Illustrator 23.0.2, SVG Export Plug-In . SVG Version: 6.00 Build 0)  -->
<svg version="1.1" id="Layer_1" xmlns="http://www.w3.org/2000/svg" xmlns:xlink="http://www.w3.org/1999/xlink" x="0px" y="0px"
	 viewBox="0 0 52 52" style="enable-background:new 0 0 52 52;" xml:space="preserve">
<g>
	<path style="fill:#E63343;" d="M2,41.36c0.36-0.51,0.85-0.66,1.47-0.67c7.16-0.17,14.08-1.55,20.62-4.5
		c4.19-1.89,8.12-4.26,11.44-7.51c2.36-2.31,4.51-4.82,6.15-7.7c1.37-2.41,2.56-4.9,3.41-7.54c0.03-0.1,0.12-0.19,0.04-0.35
		c-0.99,0.57-1.98,1.14-2.98,1.7c-0.49,0.27-0.97,0.18-1.3-0.2c-0.32-0.36-0.37-0.84-0.08-1.23c0.15-0.21,0.34-0.43,0.56-0.56
		c1.69-1,3.38-1.98,5.08-2.95c0.52-0.3,1.1-0.15,1.4,0.38c1.04,1.81,2.06,3.62,3.07,5.44c0.29,0.52,0.07,1.12-0.43,1.39
		c-0.49,0.26-1.06,0.1-1.37-0.41c-0.53-0.87-1.02-1.76-1.54-2.64c-0.09-0.15-0.18-0.29-0.3-0.5c-0.32,0.89-0.61,1.71-0.93,2.53
		c-1.71,4.42-4.11,8.41-7.27,11.97c-2.77,3.12-6.05,5.57-9.59,7.73c-4.77,2.91-9.98,4.62-15.4,5.8c-3.48,0.75-7,1.16-10.56,1.26
		C2.88,42.81,2.36,42.68,2,42.12V41.36z"/>
	<path style="fill:#E63343;" d="M2,31.13c0.42-1.25,0.81-2.5,1.26-3.74c0.44-1.24,0.92-2.47,1.59-3.61c0.92-1.59,2.57-2.38,4.36-2.1
		c1.73,0.27,3.16,1.65,3.48,3.42c0.31,1.66-0.46,3.69-2.14,4.57c-1.85,0.97-3.81,1.66-5.79,2.31c-0.36,0.12-0.72,0.23-1.09,0.35
		C2.81,32.59,2.52,32.5,2,31.8V31.13z M4.65,29.79c1.4-0.32,4.09-1.46,5.13-2.17c0.7-0.48,1.03-1.34,0.85-2.22
		c-0.18-0.87-0.84-1.5-1.75-1.68c-0.84-0.16-1.73,0.18-2.15,0.9C5.78,26.23,5.23,27.98,4.65,29.79"/>
	<path style="fill:#E63343;" d="M32.64,2.87c-0.17,3.18-1.09,6.07-2.46,8.86c-1.41,2.86-3.29,5.36-5.64,7.52
		c-0.18,0.17-0.24,0.34-0.26,0.58c-0.14,2.4-0.54,4.74-1.52,6.95c-0.58,1.31-1.27,2.56-2.28,3.61c-0.34,0.35-0.71,0.56-1.19,0.43
		c-0.46-0.12-0.67-0.49-0.77-0.94c-0.29-1.28-0.61-2.56-0.9-3.85c-0.06-0.28-0.13-0.33-0.39-0.19c-0.39,0.2-0.8,0.12-1.11-0.19
		c-1.61-1.59-3.24-3.16-4.79-4.81c-0.79-0.83-1.6-1.63-2.4-2.46c-0.41-0.43-0.65-0.86-0.34-1.44c0.15-0.27-0.1-0.23-0.23-0.26
		c-1.3-0.32-2.6-0.63-3.89-0.95c-0.63-0.16-0.92-0.59-0.85-1.18c0.04-0.31,0.24-0.51,0.44-0.72c2.03-2.06,4.59-3,7.35-3.55
		c1.02-0.2,2.05-0.29,3.08-0.36c0.23-0.02,0.38-0.09,0.53-0.25c1.44-1.59,3.1-2.91,4.86-4.15C22.65,3.56,25.7,2.35,29,1.72
		c0.72-0.14,1.45-0.19,2.18-0.25C32.29,1.38,32.75,1.92,32.64,2.87 M30.16,3.64c-0.29,0.04-0.46,0.06-0.63,0.09
		c-1.94,0.35-3.8,0.92-5.56,1.84c-2.07,1.08-4.04,2.3-5.77,3.87c-1.28,1.16-2.39,2.46-3.5,3.77c-1.16,1.36-2.38,2.66-3.58,3.98
		c-0.16,0.18-0.17,0.28,0,0.45c1.84,1.85,3.67,3.71,5.49,5.58c0.23,0.23,0.34,0.19,0.56-0.01c1.49-1.39,2.97-2.78,4.49-4.13
		c2.21-1.96,4.29-4.02,5.77-6.63c1.51-2.65,2.68-5.4,3.04-8.46C30.53,3.53,30.35,3.58,30.16,3.64 M7.06,14.12
		c0.01,0.04,0.02,0.08,0.03,0.12c1,0.24,2,0.48,3,0.72c0.13,0.03,0.24,0.01,0.34-0.1c0.77-0.86,1.57-1.69,2.26-2.67
		C10.62,12.37,8.81,13.15,7.06,14.12 M21.93,21.69c-0.83,0.74-1.65,1.49-2.48,2.23c-0.18,0.16-0.13,0.34-0.08,0.53
		c0.21,0.87,0.42,1.73,0.63,2.59c0.02,0.1-0.01,0.23,0.19,0.25C21.21,25.59,21.74,23.71,21.93,21.69"/>
	<path style="fill:#E63343;" d="M44.89,36.59c0-4.43,0-8.86,0-13.29c0-0.86,0.71-1.38,1.43-1.06c0.32,0.14,0.55,0.39,0.59,0.75
		c0.03,0.22,0.04,0.44,0.04,0.67c0,8.62,0,17.24,0,25.86c0,0.16,0.01,0.32-0.01,0.48c-0.06,0.65-0.48,1.05-1.09,1.02
		c-0.57-0.03-0.96-0.46-0.96-1.1c-0.01-3.84,0-7.68,0-11.52C44.89,37.8,44.89,37.2,44.89,36.59"/>
	<path style="fill:#E63343;" d="M32.64,43.79c0-1.98,0.02-3.95-0.01-5.93c-0.01-0.73,0.44-1.22,1.03-1.22
		c0.64,0,1.03,0.45,1.03,1.23c0.01,3.76,0,7.52,0,11.29c0,0.3,0.01,0.61-0.02,0.91c-0.06,0.62-0.5,0.99-1.09,0.96
		c-0.55-0.03-0.94-0.46-0.94-1.06C32.64,47.9,32.64,45.85,32.64,43.79"/>
	<path style="fill:#E63343;" d="M20.38,46.86c0-0.99,0-1.98,0-2.96c0.01-0.68,0.37-1.1,0.97-1.13c0.6-0.03,1.05,0.36,1.06,1.03
		c0.03,2.07,0.03,4.14,0.01,6.22c-0.01,0.65-0.48,1.04-1.08,1.01c-0.56-0.03-0.95-0.47-0.95-1.1C20.38,48.9,20.38,47.88,20.38,46.86
		"/>
	<path style="fill:#E63343;" d="M8.13,48.43c0-0.49-0.01-0.99,0-1.48c0.01-0.59,0.41-1.01,0.97-1.03c0.57-0.02,1.03,0.35,1.05,0.94
		c0.04,1.07,0.04,2.13,0,3.2c-0.02,0.62-0.49,0.99-1.08,0.96c-0.55-0.03-0.93-0.46-0.94-1.06C8.12,49.45,8.13,48.94,8.13,48.43"/>
</g>
</svg>
