<?xml version="1.0" encoding="utf-8"?>
<!-- Generator: Adobe Illustrator 23.0.2, SVG Export Plug-In . SVG Version: 6.00 Build 0)  -->
<svg version="1.1" id="Layer_1" xmlns="http://www.w3.org/2000/svg" xmlns:xlink="http://www.w3.org/1999/xlink" x="0px" y="0px"
	 viewBox="0 0 512 512" style="enable-background:new 0 0 512 512;" xml:space="preserve">
<path style="fill:#E52336;" d="M255.79,478.66c-71.3,0-142.59,0-213.89-0.02c-2.05,0-4.1,0.02-6.11-0.23
	c-3.91-0.54-6.07-2.82-6.24-6.82c-0.06-1.71-0.02-3.4-0.02-5.11c0-80.66-0.02-161.32,0.06-241.98c0-3.85-0.81-6.35-4.19-8.87
	c-10.22-7.56-16.08-17.93-16.29-30.85c-0.28-17.36-0.17-34.72-0.24-52.06c0-1.9,0.6-3.63,1.39-5.37
	c13.3-28.62,26.66-57.23,39.66-85.98C52.61,35.42,56.08,33,62.7,33c129,0.15,257.97,0.15,386.97,0c6.56,0,10.15,2.25,12.87,8.26
	c13,28.77,26.36,57.38,39.66,86c0.88,1.9,1.43,3.78,1.43,5.88c-0.06,17.02,0,34.01-0.21,51.03c-0.15,13.34-6.11,23.97-16.65,31.75
	c-3.4,2.5-4.25,5-4.23,8.85c0.06,80.51,0.06,161,0.04,241.49c0,10.86-1.52,12.38-12.4,12.4c-54.28,0.1-108.56,0.23-162.84,0.32
	c-17.17,0.04-34.35,0.02-51.54,0.02V478.66z M221.82,206.28c-0.62,0.77-0.92,1.17-1.24,1.56c-18.66,21.8-46.16,22.12-65.37,0.57
	c-2.61-2.93-3.14-0.53-4.34,0.81c-18.02,20.14-45.96,20.18-63.81-0.17c-2.52-2.91-3.21-1.82-5.05,0.32
	c-8.59,9.98-19.52,15.29-32.75,14.56c-4.66-0.26-5.58,0.9-5.58,5.37c0.15,76.43,0.15,152.85,0,229.26c0,4.49,1.07,5.63,5.58,5.63
	c78.8-0.15,157.6-0.17,236.4,0c4.9,0.02,5.77-1.56,5.77-6.01c-0.13-60.07-0.09-120.15-0.09-180.24c0-9.77,1.77-11.52,11.67-11.52
	c37.09,0,74.2,0,111.3,0.02c1.71,0,3.42,0,5.11,0.17c3.93,0.45,6.11,2.7,6.35,6.69c0.09,1.69,0.04,3.4,0.04,5.11
	c0,59.9,0.06,119.8-0.13,179.73c-0.02,5.04,1.39,6.22,6.22,6.05c10.2-0.39,20.44-0.39,30.61,0c4.7,0.19,5.56-1.44,5.54-5.73
	c-0.15-46.31-0.09-92.59-0.09-138.9c0-30.29-0.06-60.59,0.06-90.88c0.02-3.65-0.64-4.94-4.72-4.72
	c-13.47,0.68-24.5-4.74-33.14-14.92c-1.99-2.35-2.67-2.31-4.68,0c-17.83,20.33-45.81,20.4-63.77,0.17c-2.12-2.4-2.78-2.65-5.05-0.05
	c-11.69,13.58-26.55,17.77-43.7,13.26c-9.32-2.44-16.53-8.38-22.32-16.08C272.89,230,239.74,230.02,221.82,206.28 M28.01,124.46
	h456.96c-11.33-24.54-22.51-48.51-33.44-72.6c-1.52-3.36-3.29-4.38-6.86-4.38c-125.58,0.09-251.17,0.09-376.75-0.02
	c-3.89,0-5.58,1.39-7.12,4.79c-9.73,21.5-19.71,42.88-29.57,64.31C30.06,119.13,28.41,121.55,28.01,124.46 M411.53,372.38
	c0-28.92-0.09-57.82,0.09-86.75c0.02-3.78-0.96-4.83-4.79-4.81c-31.98,0.15-63.96,0.13-95.92,0.02c-3.53-0.02-5.05,0.52-5.05,4.62
	c0.15,58,0.13,116,0.02,174c0,3.62,1.07,4.56,4.6,4.54c32.13-0.13,64.28-0.15,96.44,0.02c3.95,0.02,4.7-1.22,4.7-4.87
	C411.47,430.21,411.53,401.31,411.53,372.38 M119.36,139.68c-7.8,0-15.63,0.11-23.45-0.04c-2.95-0.06-4.19,0.62-4.15,3.91
	c0.17,13.42-0.15,26.87,0.13,40.3c0.3,14.73,12.76,26.08,27.88,25.85c14.37-0.19,26.12-12.01,26.19-26.45
	c0.06-13.08-0.06-26.19,0.09-39.27c0.04-3.25-0.79-4.49-4.23-4.36C134.34,139.83,126.84,139.68,119.36,139.68 M462.29,139.68
	c-7.82,0-15.65,0.07-23.47-0.04c-2.67-0.04-3.95,0.52-3.93,3.62c0.17,13.44-0.19,26.87,0.15,40.29
	c0.41,15.22,12.76,26.45,28.16,26.15c14.3-0.26,25.83-12.04,25.97-26.68c0.11-13.11-0.06-26.21,0.09-39.29
	c0.04-3.08-0.83-4.19-4-4.11C477.59,139.81,469.94,139.68,462.29,139.68 M50.75,139.68c-7.82,0-15.65,0.13-23.47-0.06
	c-3.1-0.06-4.06,0.97-4.04,4.06c0.15,12.94,0,25.85,0.09,38.78c0.11,15.3,11.61,27.1,26.44,27.26c15.5,0.15,27.54-11.5,27.73-27.13
	c0.17-12.93-0.09-25.87,0.13-38.78c0.06-3.55-1.28-4.25-4.43-4.19C65.72,139.79,58.24,139.68,50.75,139.68 M394.09,139.68
	c-7.31,0-14.64,0.21-21.93-0.08c-4.23-0.17-5.92,0.68-5.77,5.48c0.41,12.57,0.11,25.16,0.15,37.73c0.04,14.86,11.63,26.7,26.25,26.9
	c15.33,0.21,27.62-11.33,27.83-26.43c0.19-13.08-0.11-26.19,0.13-39.27c0.09-3.83-1.41-4.47-4.72-4.38
	C408.71,139.81,401.4,139.68,394.09,139.68 M298.06,164.39h0.36c0,8.17-1.09,16.51,0.26,24.44c2.31,13.64,15.2,22.04,29.57,20.78
	c12.68-1.11,23.28-12.32,23.69-25.89c0.38-13.42,0.02-26.87,0.15-40.32c0.02-2.97-1.15-3.76-3.91-3.76
	c-15.5,0.09-30.98,0.11-46.46,0c-2.95-0.02-3.78,1.01-3.72,3.85C298.16,150.46,298.06,157.42,298.06,164.39 M214.45,164.82
	c0-7.14-0.13-14.3,0.04-21.44c0.09-2.95-0.98-3.76-3.81-3.74c-15.48,0.11-30.98,0.09-46.46,0c-2.86-0.02-3.83,1.01-3.81,3.87
	c0.11,13.27-0.19,26.55,0.11,39.8c0.36,15.4,12.46,26.49,27.9,26.43c14.67-0.06,27.17-13.68,26.08-27.58
	C214.06,176.41,214.45,170.59,214.45,164.82 M256.31,139.68c-7.65,0-15.33,0.09-22.98-0.04c-2.74-0.04-3.93,0.68-3.89,3.7
	c0.15,14.13-0.15,28.26,0.17,42.37c0.3,13.06,12.48,23.93,26.32,24.01c14.22,0.08,26.64-10.63,26.96-23.9
	c0.34-14.11,0.04-28.24,0.17-42.38c0.04-2.86-0.88-3.87-3.76-3.8C271.63,139.79,263.96,139.68,256.31,139.68"/>
<path style="fill:#E52336;" d="M167.79,262.76c28.41,0,56.8-0.02,85.21,0c8.12,0,10.37,2.2,10.37,10.18c0,45.26,0.02,90.49,0,135.75
	c0,7.61-2.35,10.01-10.07,10.01c-56.99,0.02-113.99,0.02-170.98,0c-7.4,0-9.86-2.48-9.86-9.72c0-45.58-0.02-91.18,0-136.78
	c0-6.95,2.48-9.41,9.58-9.43C110.62,262.74,139.21,262.76,167.79,262.76 M167.9,277.11c-25.35,0-50.69,0.07-76.04-0.06
	c-3.74-0.02-5.26,0.58-5.24,4.9c0.17,39.12,0.15,78.27,0.02,117.39c-0.02,3.74,0.88,4.9,4.75,4.9c51.03-0.13,102.08-0.15,153.11,0
	c3.95,0,4.72-1.26,4.7-4.94c-0.13-38.95-0.15-77.92,0.02-116.88c0-4.14-0.96-5.43-5.28-5.41
	C218.58,277.22,193.25,277.11,167.9,277.11"/>
</svg>
