<?xml version="1.0" encoding="utf-8"?>
<!-- Generator: Adobe Illustrator 23.0.2, SVG Export Plug-In . SVG Version: 6.00 Build 0)  -->
<svg version="1.1" id="Layer_1" xmlns="http://www.w3.org/2000/svg" xmlns:xlink="http://www.w3.org/1999/xlink" x="0px" y="0px"
	 viewBox="0 0 52 52" style="enable-background:new 0 0 52 52;" xml:space="preserve">
<path style="fill:#E52336;" d="M20.15,12.98c1.17-1.69,2.72-2.36,4.63-2.26c0.47,0.02,0.94,0.03,1.4,0
	c1.68-0.11,3.16,0.23,4.27,1.74c0-0.55,0.02-1.1,0-1.64c-0.18-3.85,2.37-6.9,5.82-7.64c3.8-0.81,7.69,1.25,9.17,4.77
	c0.44,1.03,0.66,2.1,0.65,3.22c0,2.52,0.01,5.04-0.01,7.56c0,0.51,0.08,0.79,0.66,0.99c2.03,0.73,3.26,2.55,3.27,4.7
	c0,1.75,0,3.5,0,5.24c0,0.87-0.23,1.1-1.1,1.11c-0.63,0.01-1.36-0.17-1.84,0.09c-0.5,0.27-0.43,1.09-0.65,1.66
	c-0.51,1.37-1.09,2.73-1.89,3.96c-0.29,0.45-0.24,0.71,0.15,1.02c0.28,0.23,0.52,0.5,0.78,0.76c0.61,0.63,0.63,0.9,0.03,1.49
	c-1.7,1.7-3.42,3.39-5.14,5.07c-0.64,0.62-0.89,0.6-1.57-0.03c-0.41-0.39-0.79-1-1.26-1.08c-0.42-0.07-0.94,0.45-1.42,0.71
	c-1.61,0.86-3.3,1.51-5.08,1.92c-0.46,0.1-0.62,0.26-0.59,0.7c0.03,0.46,0.01,0.92,0,1.39c-0.01,0.56-0.31,0.86-0.87,0.86
	c-2.53,0-5.06,0-7.58,0c-0.6,0-0.89-0.29-0.93-0.9c-0.03-0.63,0.28-1.42-0.14-1.85c-0.38-0.38-1.15-0.36-1.74-0.55
	c-1.66-0.53-3.26-1.21-4.74-2.14c-0.39-0.25-0.62-0.21-0.9,0.12c-0.29,0.34-0.62,0.62-0.93,0.93c-0.46,0.46-0.9,0.44-1.35-0.01
	c-1.77-1.75-3.53-3.49-5.3-5.24c-0.46-0.45-0.43-0.89,0.02-1.33c0.44-0.43,1.14-0.85,1.2-1.34c0.06-0.5-0.54-1.06-0.82-1.61
	c-0.66-1.28-1.24-2.6-1.59-4c-0.12-0.48-0.35-0.67-0.86-0.62c-0.52,0.05-1.04,0.01-1.56,0c-0.45-0.01-0.8-0.24-0.8-0.68
	c-0.01-2.18-0.21-4.38,0.08-6.55c0.31-2.3,2.02-3.78,4.46-4.2c1.13-0.19,2.24-0.43,3.37-0.63c0.45-0.08,0.71-0.24,0.68-0.79
	c-0.05-0.99-0.71-1.74-1.73-1.82c-1.15-0.09-2.06-0.95-2.19-2.06c-0.13-1.12,0.55-2.19,1.69-2.44c0.64-0.14,0.69-0.44,0.66-0.94
	c-0.12-1.83,0.4-3.42,1.99-4.5c1.51-1.04,3.16-1.17,4.8-0.35c1.67,0.83,2.51,2.24,2.59,4.09c0,0.21,0.03,0.42,0,0.62
	c-0.11,0.65,0.08,1,0.82,1.13C19.39,11.78,19.8,12.31,20.15,12.98 M6.25,30.78c0.44,1.75,1.15,3.31,2.03,4.8
	c0.96,1.62,1.41,1.43-0.35,3.03c-0.38,0.35-0.28,0.55,0.04,0.85c1.03,0.99,2.03,1.99,3.05,2.99c0.94,0.92,0.94,0.92,1.89-0.01
	c0.8-0.78,0.94-0.8,1.86-0.21c1.82,1.17,3.79,2.03,5.9,2.56c1.9,0.48,1.92,0.45,1.97,2.41c0.01,0.44,0.14,0.57,0.58,0.56
	c1.38-0.02,2.76-0.01,4.14-0.01c1.53,0,1.57,0,1.53-1.51c-0.01-0.77,0.3-1.12,1.04-1.26c2.19-0.4,4.23-1.22,6.15-2.32
	c1.69-0.97,1.69-0.97,3.13,0.34c0.04,0.03,0.08,0.07,0.11,0.11c0.2,0.24,0.37,0.17,0.57-0.02c1.27-1.26,2.53-2.52,3.81-3.76
	c0.25-0.24,0.23-0.42-0.01-0.63c-0.18-0.15-0.33-0.33-0.5-0.49c-0.99-0.97-0.98-0.97-0.24-2.13c1.02-1.63,1.84-3.36,2.33-5.3
	c-1.45,0-2.82,0.02-4.2-0.01c-0.45-0.01-0.49,0.27-0.6,0.56c-0.55,1.57-1.34,3.01-2.4,4.29c-0.45,0.54-0.64,1.06-0.61,1.74
	c0.04,0.91-0.21,1.16-1.14,1.13c-0.78-0.03-1.41,0.19-2.1,0.6c-5.62,3.38-11.3,3.39-16.93,0.02c-0.71-0.42-1.35-0.66-2.17-0.62
	c-0.87,0.04-1.09-0.22-1.12-1.08c-0.01-0.47,0.12-0.95-0.26-1.39c-1.24-1.41-2.14-3.02-2.76-4.78c-0.08-0.24-0.16-0.46-0.51-0.46
	C9.1,30.8,7.7,30.78,6.25,30.78 M25.74,36.96c1.64,0,3.28-0.01,4.92,0.01c0.43,0.01,0.6-0.11,0.58-0.56c-0.03-0.92-0.02-1.85,0-2.77
	c0-0.21-0.11-0.45,0.26-0.54c0.95-0.23,1.3,0.02,1.3,0.98c0,0.15-0.01,0.31,0,0.46c0.05,0.79-0.35,1.91,0.16,2.27
	c0.58,0.4,1.64,0.11,2.5,0.15c0.39,0.02,0.48-0.15,0.47-0.5c-0.01-1.52,0.03-3.04-0.02-4.55c-0.05-1.51-1.05-2.73-2.55-3.13
	c-0.82-0.22-1.69-0.31-2.51-0.53c-0.44-0.12-0.6-0.01-0.74,0.38c-0.29,0.79-0.8,1.44-1.47,1.95c-2.46,1.85-5.96,0.96-7.18-1.85
	c-0.21-0.47-0.38-0.61-0.9-0.45c-0.62,0.19-1.27,0.24-1.91,0.35c-1.89,0.35-3.04,1.71-3.05,3.62c0,1.39,0.01,2.78-0.01,4.17
	c0,0.38,0.08,0.56,0.51,0.54c0.7-0.03,1.41-0.03,2.11,0c0.43,0.02,0.53-0.14,0.52-0.53c-0.02-0.95,0.01-1.9-0.02-2.85
	c-0.02-0.69,0.47-0.46,0.8-0.47c0.34,0,0.82-0.19,0.78,0.49c-0.04,0.92,0.02,1.85-0.02,2.77c-0.02,0.49,0.16,0.6,0.62,0.59
	C22.52,36.94,24.13,36.96,25.74,36.96 M20.33,26.75c0.66-0.14,1.29-0.27,1.92-0.41c0.17-0.03,0.33-0.03,0.39-0.28
	c0.25-0.96-0.61-2.17-1.61-2.22c-1.46-0.07-2.47-1.23-2.27-2.64c0.06-0.42,0.01-0.55-0.41-0.67c-0.44-0.12-0.58,0-0.74,0.38
	c-0.82,1.89-2.3,2.92-4.36,2.91c-2.07-0.01-3.54-1.03-4.35-2.93c-0.14-0.34-0.26-0.48-0.68-0.36c-0.67,0.19-1.37,0.26-2.06,0.39
	c-1.6,0.29-2.75,1.31-2.98,2.85c-0.14,0.98-0.07,2-0.08,3c0,0.79-0.28,1.88,0.13,2.3c0.51,0.53,1.62,0.1,2.46,0.18
	c0.41,0.03,0.55-0.11,0.53-0.52c-0.02-0.95,0.02-1.9-0.02-2.85c-0.02-0.68,0.45-0.49,0.79-0.49c0.33,0.01,0.82-0.22,0.8,0.47
	c-0.04,0.92,0.01,1.85-0.02,2.77c-0.02,0.46,0.11,0.62,0.6,0.61c2-0.03,4.01-0.02,6.01,0c0.41,0,0.66-0.14,0.92-0.44
	c0.69-0.8,1.56-1.37,2.62-1.56c0.66-0.12,0.92-0.42,0.8-1.07c-0.11-0.61,0.1-0.83,0.78-0.82c0.66,0,0.9,0.18,0.8,0.81
	C20.27,26.34,20.31,26.53,20.33,26.75 M30.71,26.62c-0.06-0.33-0.1-0.57-0.14-0.82c-0.04-0.25-0.09-0.51-0.11-0.76
	c-0.01-0.16-0.07-0.4,0.2-0.41c0.39-0.01,0.8-0.07,1.17,0.02c0.35,0.09,0.13,0.49,0.22,0.74c0.08,0.19,0.07,0.41,0.14,0.6
	c0.19,0.59,0.4,1.13,1.18,1.23c1.21,0.16,2.18,0.8,2.95,1.73c0.23,0.29,0.5,0.31,0.82,0.31c1.64,0,3.28-0.01,4.92,0
	c0.56,0,1.06,0.04,0.9-0.77c-0.05-0.26,0.14-0.48,0.32-0.68c0.72-0.76,1.12-1.67,1.21-2.69c0.08-0.96,0.78-0.4,1.18-0.48
	c0.59-0.12,0.41,0.39,0.38,0.67c-0.13,1.19-0.55,2.28-1.33,3.22c-0.14,0.16-0.26,0.34-0.18,0.56c0.1,0.27,0.36,0.14,0.54,0.14
	c0.94,0.01,1.87-0.01,2.81,0.01c0.4,0.01,0.55-0.1,0.54-0.51c-0.02-1.49,0.02-2.98-0.02-4.47c-0.03-1.55-1.04-2.78-2.57-3.19
	c-0.87-0.23-1.78-0.37-2.65-0.58c-0.37-0.09-0.45,0.12-0.55,0.37c-0.81,1.93-2.3,2.97-4.41,2.96c-2.07-0.01-3.55-1.04-4.32-2.95
	c-0.22-0.54-0.5-0.32-0.85-0.29c-0.49,0.05-0.33,0.31-0.29,0.59c0.17,1.33-0.7,2.57-2.01,2.62c-0.76,0.03-1.15,0.35-1.57,0.88
	c-0.64,0.82-0.4,1.62,0.59,1.8C30.06,26.52,30.34,26.56,30.71,26.62 M32.07,11.93c0.34-0.13,0.64-0.31,0.96-0.35
	c0.45-0.06,0.58-0.26,0.56-0.7c-0.04-0.72,0-1.44-0.01-2.16c0-0.44,0.03-0.84,0.5-1.02c0.44-0.18,0.74,0.06,1.03,0.34
	c1.93,1.79,4.22,2.66,6.86,2.68c0.27,0,0.6-0.01,0.71,0.21c0.37,0.78,1.21,0.61,1.82,1.06c0.16-2.83-0.81-5.05-3.21-6.49
	c-2.2-1.31-4.52-1.39-6.69,0.06C32.32,7.08,31.78,9.35,32.07,11.93 M30.41,16.96c0.12-1.39,0.16-2.61-1.21-3.32
	c-0.15-0.08-0.23-0.27-0.33-0.42c-0.42-0.63-1.02-0.94-1.77-0.95c-0.99-0.01-1.98-0.03-2.96,0c-1.61,0.05-2.91,1.2-3.02,2.77
	c-0.09,1.22-0.02,2.44-0.02,3.76c0.55-0.5,1.14-0.37,1.7-0.37c1.98,0,3.52-0.77,4.51-2.5c0.33-0.58,0.78-0.67,1.37-0.53
	C29.48,15.62,29.98,16.17,30.41,16.96 M16.38,12.5L16.38,12.5c0-0.52,0.02-1.03,0-1.54c-0.03-0.65-0.33-0.85-0.91-0.54
	c-1.49,0.8-2.96,0.78-4.44-0.01c-0.58-0.31-0.88-0.1-0.89,0.56c-0.02,0.97-0.03,1.95,0,2.92c0.06,1.7,1.44,3,3.12,3
	c1.68,0,3.04-1.31,3.11-3.02C16.4,13.42,16.38,12.96,16.38,12.5 M28.89,19.96c0-0.86,0-1.56,0-2.25c0-0.24-0.06-0.51-0.29-0.58
	c-0.25-0.09-0.3,0.22-0.42,0.36c-1.07,1.31-2.43,2.11-4.12,2.43c-0.47,0.09-1.15-0.27-1.37,0.32c-0.17,0.45-0.07,1.02-0.02,1.53
	c0.14,1.54,1.36,2.72,2.9,2.83c1.51,0.12,2.88-0.91,3.24-2.42C28.99,21.39,28.84,20.59,28.89,19.96 M35.15,10.13
	c0,1.36-0.03,2.57,0,3.77c0.05,1.5,1.09,2.65,2.6,2.95c1.34,0.26,2.78-0.5,3.37-1.8c0.39-0.86,0.44-1.81,0.18-2.63
	c-0.12-0.4-1.03-0.23-1.58-0.33c-0.07-0.01-0.15-0.06-0.22-0.07C37.96,11.72,36.57,11.05,35.15,10.13 M13.08,22.29
	c1.34,0,2.53-0.74,2.97-1.75c0.11-0.25,0.17-0.44-0.18-0.48c-0.85-0.09-1.17-0.57-1.05-1.37c0.06-0.4-0.11-0.49-0.48-0.39
	c-0.71,0.19-1.44,0.2-2.15,0c-0.45-0.12-0.54,0.08-0.49,0.45c0.09,0.73-0.17,1.2-0.96,1.29c-0.39,0.04-0.45,0.21-0.26,0.56
	C11.08,21.69,12.01,22.22,13.08,22.29 M38.26,22.3c1.24-0.08,2.18-0.62,2.78-1.7c0.18-0.32,0.17-0.53-0.24-0.56
	c-0.8-0.08-1.06-0.56-0.97-1.28c0.07-0.49-0.16-0.56-0.57-0.44c-0.66,0.18-1.33,0.19-2,0c-0.43-0.12-0.63-0.02-0.56,0.45
	c0.1,0.73-0.19,1.19-0.97,1.28c-0.42,0.05-0.42,0.24-0.24,0.56C36.09,21.7,37.04,22.22,38.26,22.3 M22.83,27.9
	c0.54,1.33,1.59,2.09,2.89,2.11c1.32,0.02,2.41-0.75,2.98-2.16c-1.05-0.06-1.55-0.58-1.39-1.65c0.05-0.37-0.28-0.22-0.44-0.18
	c-0.69,0.14-1.39,0.22-2.08,0.01c-0.45-0.13-0.68-0.05-0.6,0.48c0.12,0.76-0.25,1.16-1,1.26C23.07,27.79,22.95,27.86,22.83,27.9
	 M31.82,38.55H19.71C23.74,40.5,27.78,40.49,31.82,38.55 M16,8.5c-0.6-1.09-1.6-1.7-2.94-1.61c-1.18,0.07-2.09,0.64-2.52,1.61
	C12.35,9.69,14.17,9.67,16,8.5 M44.49,19.16v-3.52c-0.5,0.21-0.92,0.45-1.43,0.48c-0.93,0.04-1.63,0.85-1.68,1.76
	c-0.03,0.52,0.16,0.74,0.63,0.82C42.83,18.85,43.64,19.01,44.49,19.16 M32.05,19.17c0.89-0.17,1.75-0.33,2.6-0.52
	c0.16-0.03,0.36,0,0.47-0.21c0.31-0.57-0.49-2.28-1.15-2.3c-0.68-0.02-1.29-0.21-1.92-0.49V19.17z M19.48,15.68
	c-0.46,0.16-0.84,0.44-1.17,0.39c-0.9-0.12-1.3,0.45-1.74,1.02c-0.5,0.64-0.2,1.5,0.57,1.65c0.77,0.15,1.54,0.28,2.34,0.42V15.68z
	 M37.55,33.65c0.49-0.62,0.76-1.2,1.02-1.78c0.15-0.32,0.52-0.75,0.3-0.97c-0.29-0.29-0.83-0.08-1.26-0.1
	c-0.2-0.01-0.28,0.11-0.23,0.3C37.6,31.89,37.41,32.71,37.55,33.65 M14.07,33.51c0-0.69-0.09-1.39,0.02-2.06
	c0.1-0.58-0.02-0.75-0.58-0.68c-0.16,0.02-0.32,0.02-0.47,0.01c-0.39-0.04-0.55,0.08-0.37,0.47C13.04,32.04,13.37,32.85,14.07,33.51
	 M30.48,20.77v1.5c0.45-0.06,0.71-0.29,0.74-0.68C31.25,21.16,31.02,20.88,30.48,20.77 M21.13,21.56c-0.23-0.21,0.17-0.67-0.24-0.73
	c-0.34-0.05-0.57,0.31-0.58,0.68c-0.01,0.36,0.19,0.71,0.54,0.71C21.33,22.23,20.95,21.79,21.13,21.56 M42.99,14.56
	c0.51-0.09,0.76-0.37,0.73-0.8c-0.02-0.38-0.25-0.65-0.73-0.68V14.56z M33.53,14.54v-1.47c-0.51,0.1-0.75,0.38-0.71,0.81
	C32.85,14.25,33.09,14.51,33.53,14.54 M18,13.07v1.49c0.48-0.11,0.71-0.36,0.7-0.76C18.7,13.41,18.48,13.15,18,13.07 M8.62,13.84
	c-0.22-0.21,0.18-0.67-0.24-0.73c-0.33-0.05-0.57,0.31-0.58,0.68c-0.01,0.36,0.19,0.71,0.55,0.71C8.82,14.51,8.45,14.08,8.62,13.84"
	/>
</svg>
