<svg version="1.2" xmlns="http://www.w3.org/2000/svg" viewBox="0 0 49 46" width="49" height="46"><style>.a{fill:#e63343}</style><path fill-rule="evenodd" class="a" d="m48.4 8.2v22.9c0 0.2-0.2 0.4-0.3 0.5l-23.6 13.7c-0.2 0.1-0.4 0.1-0.6 0l-23.6-13.7c-0.2-0.1-0.3-0.3-0.3-0.5v-22.9c0-0.3 0.1-0.5 0.3-0.6l12.4-7.1c0.2-0.1 0.4-0.1 0.6 0l10.6 6.1c0.2 0.1 0.4 0.1 0.6 0l10.5-6.1c0.2-0.1 0.5-0.1 0.6 0l12.5 7.1c0.1 0.1 0.3 0.3 0.3 0.6zm-33.5 8.7v18.5c0 0.3 0.1 0.5 0.3 0.6l6.8 3.9c0.1 0.1 0.3 0 0.3-0.1v-27.3c0-0.1-0.2-0.2-0.3-0.1l-6.8 4c-0.2 0.1-0.3 0.3-0.3 0.5zm11.1-4.4v27.3c0 0.1 0.2 0.2 0.3 0.2l6.9-4c0.2-0.1 0.3-0.3 0.3-0.5v-18.6c0-0.3-0.1-0.5-0.3-0.6l-6.9-4c-0.1 0-0.3 0.1-0.3 0.2zm7.2-6.6l-5 2.9c-0.2 0.1-0.2 0.2 0 0.3l5 2.9c0.1 0.1 0.3 0 0.3-0.1v-5.9c0-0.1-0.2-0.2-0.3-0.1zm-18 6.2l5-3c0.2-0.1 0.2-0.2 0-0.3l-5-3c-0.1 0-0.3 0.1-0.3 0.2v5.9c0 0.1 0.2 0.2 0.3 0.2zm-11.5-1.8v18.6c0 0.3 0.1 0.5 0.3 0.6l6.9 3.9c0.1 0.1 0.3 0 0.3-0.1v-27.3c0-0.1-0.2-0.2-0.3-0.2l-6.9 4c-0.2 0.1-0.3 0.3-0.3 0.5zm41 18.6v-18.6c0-0.2-0.2-0.4-0.4-0.5l-6.8-4c-0.1-0.1-0.3 0-0.3 0.2v27.3c0 0.1 0.2 0.2 0.3 0.2l6.8-4c0.2-0.1 0.3-0.3 0.4-0.6z"/></svg>